SplineFontDB: 3.0
FontName: KAN-KaveriItalic
FullName: KAN Kaveri Italic
FamilyName: KAN Kaveri
Weight: Book
Copyright: Copyright (c) 2009-2015, NLCI (http://www.nlci.in/fonts/)
Version: 1.0 Wed May 17 15:42:18 1995
ItalicAngle: 12
UnderlinePosition: -290
UnderlineWidth: 20
Ascent: 800
Descent: 200
InvalidEm: 0
LayerCount: 2
Layer: 0 1 "Back" 1
Layer: 1 1 "Fore" 0
XUID: [1021 297 2115494286 1251845]
FSType: 0
OS2Version: 0
OS2_WeightWidthSlopeOnly: 0
OS2_UseTypoMetrics: 1
CreationTime: 1250825687
ModificationTime: 1462831652
PfmFamily: 81
TTFWeight: 400
TTFWidth: 5
LineGap: 0
VLineGap: 0
Panose: 5 0 0 0 0 0 0 0 0 0
OS2TypoAscent: -72
OS2TypoAOffset: 1
OS2TypoDescent: -196
OS2TypoDOffset: 1
OS2TypoLinegap: 0
OS2WinAscent: -236
OS2WinAOffset: 1
OS2WinDescent: -103
OS2WinDOffset: 1
HheadAscent: -236
HheadAOffset: 1
HheadDescent: 103
HheadDOffset: 1
OS2SubXSize: 700
OS2SubYSize: 650
OS2SubXOff: 0
OS2SubYOff: 143
OS2SupXSize: 700
OS2SupYSize: 650
OS2SupXOff: 0
OS2SupYOff: 453
OS2StrikeYSize: 50
OS2StrikeYPos: 259
OS2Vendor: 'Alts'
OS2UnicodeRanges: 00000000.00000000.00000000.00000000
MarkAttachClasses: 1
DEI: 91125
TtTable: prep
NPUSHB
 1
 1
SCANTYPE
PUSHW_1
 511
SCANCTRL
EndTTInstrs
ShortTable: maxp 16
  1
  0
  319
  202
  5
  175
  6
  2
  8
  64
  10
  0
  3
  557
  4
  2
EndShort
LangName: 1033 "" "" "Italic" "NLCI:KAN Kaveri Italic" "" "1.0 Wed May 17 15:42:18 1995"
Encoding: UnicodeBmp
UnicodeInterp: none
NameList: Adobe Glyph List
DisplaySize: -24
AntiAlias: 1
FitToEm: 1
WinInfo: 0 64 21
BeginPrivate: 0
EndPrivate
AnchorClass2: "s" "" "V" "" 
BeginChars: 65670 321

StartChar: .notdef
Encoding: 65536 -1 0
Width: 500
Flags: W
LayerCount: 2
Fore
SplineSet
31 0 m 1,0,-1
 31 604 l 1,1,-1
 469 604 l 1,2,-1
 469 0 l 1,3,-1
 31 0 l 1,0,-1
438 31 m 1,4,-1
 438 573 l 1,5,-1
 62 573 l 1,6,-1
 62 31 l 1,7,-1
 438 31 l 1,4,-1
EndSplineSet
EndChar

StartChar: exclam
Encoding: 33 33 4
Width: 337
Flags: W
LayerCount: 2
Fore
SplineSet
195 48 m 0,0,1
 195 25 195 25 177.5 8.5 c 128,-1,2
 160 -8 160 -8 130 -8 c 0,3,4
 120 -8 120 -8 109 -4.5 c 128,-1,5
 98 -1 98 -1 89 6 c 128,-1,6
 80 13 80 13 74.5 23.5 c 128,-1,7
 69 34 69 34 69 48 c 0,8,9
 69 61 69 61 73.5 71.5 c 128,-1,10
 78 82 78 82 86.5 90 c 128,-1,11
 95 98 95 98 106.5 102 c 128,-1,12
 118 106 118 106 131 106 c 256,13,14
 144 106 144 106 155.5 102 c 128,-1,15
 167 98 167 98 176 90.5 c 128,-1,16
 185 83 185 83 190 72.5 c 128,-1,17
 195 62 195 62 195 48 c 0,0,1
296 631 m 1,18,19
 268 521 268 521 245 427 c 0,20,21
 235 387 235 387 225 347 c 128,-1,22
 215 307 215 307 206.5 272 c 128,-1,23
 198 237 198 237 191.5 210 c 128,-1,24
 185 183 185 183 182 170 c 1,25,-1
 120 170 l 1,26,-1
 170 602 l 2,27,28
 172 621 172 621 177 636 c 128,-1,29
 182 651 182 651 191 661.5 c 128,-1,30
 200 672 200 672 214 677.5 c 128,-1,31
 228 683 228 683 248 683 c 0,32,33
 297 683 297 683 296 631 c 1,18,19
EndSplineSet
EndChar

StartChar: quotedbl
Encoding: 34 34 5
Width: 331
Flags: W
LayerCount: 2
Fore
SplineSet
214 675 m 0,0,1
 214 670 214 670 209 651.5 c 128,-1,2
 204 633 204 633 195.5 607 c 128,-1,3
 187 581 187 581 177 551.5 c 128,-1,4
 167 522 167 522 158 496 c 128,-1,5
 149 470 149 470 142 450 c 128,-1,6
 135 430 135 430 133 424 c 1,7,-1
 102 424 l 1,8,-1
 114 647 l 2,9,10
 114 662 114 662 117 674 c 128,-1,11
 120 686 120 686 126.5 695 c 128,-1,12
 133 704 133 704 144 709 c 128,-1,13
 155 714 155 714 172 714 c 256,14,15
 189 714 189 714 200.5 704.5 c 128,-1,16
 212 695 212 695 214 675 c 0,0,1
373 677 m 0,17,18
 373 672 373 672 367.5 653.5 c 128,-1,19
 362 635 362 635 353.5 609 c 128,-1,20
 345 583 345 583 335 553.5 c 128,-1,21
 325 524 325 524 315.5 498 c 128,-1,22
 306 472 306 472 299 452 c 128,-1,23
 292 432 292 432 290 426 c 1,24,-1
 258 426 l 1,25,-1
 270 649 l 2,26,27
 270 664 270 664 273.5 676 c 128,-1,28
 277 688 277 688 284 697 c 128,-1,29
 291 706 291 706 302 711 c 128,-1,30
 313 716 313 716 330 716 c 0,31,32
 348 716 348 716 359.5 706.5 c 128,-1,33
 371 697 371 697 373 677 c 0,17,18
EndSplineSet
EndChar

StartChar: numbersign
Encoding: 35 35 6
Width: 743
Flags: W
LayerCount: 2
Fore
SplineSet
337 420 m 1,0,-1
 290 277 l 1,1,-1
 435 277 l 1,2,-1
 482 420 l 1,3,-1
 337 420 l 1,0,-1
538 420 m 1,4,-1
 491 277 l 1,5,-1
 651 277 l 1,6,-1
 651 228 l 1,7,-1
 474 228 l 1,8,-1
 390 -22 l 1,9,-1
 340 -6 l 1,10,-1
 419 228 l 1,11,-1
 274 228 l 1,12,-1
 190 -22 l 1,13,-1
 141 -5 l 1,14,-1
 220 228 l 1,15,-1
 79 228 l 1,16,-1
 79 277 l 1,17,-1
 236 277 l 1,18,-1
 285 420 l 1,19,-1
 124 420 l 1,20,-1
 124 471 l 1,21,-1
 301 471 l 1,22,-1
 381 706 l 1,23,-1
 432 690 l 1,24,-1
 356 471 l 1,25,-1
 501 471 l 1,26,-1
 580 706 l 1,27,-1
 631 690 l 1,28,-1
 556 471 l 1,29,-1
 695 471 l 1,30,-1
 695 420 l 1,31,-1
 538 420 l 1,4,-1
EndSplineSet
EndChar

StartChar: dollar
Encoding: 36 36 7
Width: 556
Flags: W
LayerCount: 2
Fore
SplineSet
372 181 m 0,0,1
 372 213 372 213 355 238 c 128,-1,2
 338 263 338 263 301 280 c 1,3,-1
 258 55 l 1,4,5
 314 68 314 68 343.5 100.5 c 128,-1,6
 373 133 373 133 372 181 c 0,0,1
308 617 m 1,7,8
 285 610 285 610 265.5 599 c 128,-1,9
 246 588 246 588 232.5 573 c 128,-1,10
 219 558 219 558 211.5 539 c 128,-1,11
 204 520 204 520 204 499 c 0,12,13
 204 466 204 466 220.5 443 c 128,-1,14
 237 420 237 420 267 405 c 1,15,-1
 308 617 l 1,7,8
491 496 m 1,16,-1
 433 496 l 1,17,-1
 437 593 l 2,18,19
 437 596 437 596 433.5 601 c 128,-1,20
 430 606 430 606 427 607 c 2,21,22
 427 607 427 607 422 609 c 128,-1,23
 417 611 417 611 409.5 613.5 c 128,-1,24
 402 616 402 616 392 618.5 c 128,-1,25
 382 621 382 621 370 621 c 1,26,-1
 324 373 l 1,27,28
 357 363 357 363 386 347.5 c 128,-1,29
 415 332 415 332 436.5 311.5 c 128,-1,30
 458 291 458 291 470 265 c 128,-1,31
 482 239 482 239 482 208 c 0,32,33
 482 170 482 170 470 140 c 128,-1,34
 458 110 458 110 438 87.5 c 128,-1,35
 418 65 418 65 393 49.5 c 128,-1,36
 368 34 368 34 342.5 24 c 128,-1,37
 317 14 317 14 293.5 9 c 128,-1,38
 270 4 270 4 254 4 c 1,39,-1
 235 -99 l 1,40,-1
 176 -99 l 1,41,-1
 195 3 l 1,42,43
 169 4 169 4 146.5 7 c 128,-1,44
 124 10 124 10 103.5 15 c 128,-1,45
 83 20 83 20 63.5 27.5 c 128,-1,46
 44 35 44 35 25 44 c 1,47,-1
 56 201 l 1,48,-1
 122 201 l 1,49,-1
 114 86 l 2,50,51
 114 83 114 83 116 81.5 c 128,-1,52
 118 80 118 80 120 80 c 0,53,54
 121 80 121 80 129 76.5 c 128,-1,55
 137 73 137 73 148.5 69 c 128,-1,56
 160 65 160 65 174 61.5 c 128,-1,57
 188 58 188 58 203 57 c 1,58,-1
 252 312 l 1,59,60
 221 325 221 325 194.5 341.5 c 128,-1,61
 168 358 168 358 148.5 378 c 128,-1,62
 129 398 129 398 118.5 422 c 128,-1,63
 108 446 108 446 108 475 c 0,64,65
 108 517 108 517 125.5 551.5 c 128,-1,66
 143 586 143 586 172.5 611 c 128,-1,67
 202 636 202 636 241 651 c 128,-1,68
 280 666 280 666 322 669 c 1,69,-1
 336 744 l 1,70,-1
 393 744 l 1,71,-1
 381 672 l 1,72,73
 405 672 405 672 428 668.5 c 128,-1,74
 451 665 451 665 470.5 660.5 c 128,-1,75
 490 656 490 656 504.5 652 c 128,-1,76
 519 648 519 648 524 647 c 1,77,-1
 491 496 l 1,16,-1
EndSplineSet
EndChar

StartChar: percent
Encoding: 37 37 8
Width: 859
Flags: W
LayerCount: 2
Fore
SplineSet
314 566 m 0,0,1
 314 579 314 579 312.5 593 c 128,-1,2
 311 607 311 607 305.5 619 c 128,-1,3
 300 631 300 631 290 638.5 c 128,-1,4
 280 646 280 646 264 646 c 0,5,6
 242 646 242 646 224 632 c 128,-1,7
 206 618 206 618 192.5 595 c 128,-1,8
 179 572 179 572 169.5 543.5 c 128,-1,9
 160 515 160 515 154 486.5 c 128,-1,10
 148 458 148 458 145.5 432.5 c 128,-1,11
 143 407 143 407 143 391 c 0,12,13
 143 378 143 378 145 363 c 128,-1,14
 147 348 147 348 152.5 335.5 c 128,-1,15
 158 323 158 323 168.5 315 c 128,-1,16
 179 307 179 307 196 307 c 0,17,18
 218 307 218 307 235.5 321.5 c 128,-1,19
 253 336 253 336 266 359 c 128,-1,20
 279 382 279 382 288.5 411 c 128,-1,21
 298 440 298 440 304 469 c 128,-1,22
 310 498 310 498 312.5 523.5 c 128,-1,23
 315 549 315 549 314 566 c 0,0,1
748 283 m 0,24,25
 748 296 748 296 746.5 310 c 128,-1,26
 745 324 745 324 739.5 335.5 c 128,-1,27
 734 347 734 347 724 355 c 128,-1,28
 714 363 714 363 697 363 c 0,29,30
 675 363 675 363 657.5 349 c 128,-1,31
 640 335 640 335 626.5 312 c 128,-1,32
 613 289 613 289 603.5 260.5 c 128,-1,33
 594 232 594 232 588 203.5 c 128,-1,34
 582 175 582 175 579.5 149.5 c 128,-1,35
 577 124 577 124 577 108 c 0,36,37
 577 95 577 95 578.5 80 c 128,-1,38
 580 65 580 65 585.5 52.5 c 128,-1,39
 591 40 591 40 601.5 31.5 c 128,-1,40
 612 23 612 23 629 23 c 0,41,42
 650 23 650 23 667.5 37.5 c 128,-1,43
 685 52 685 52 698 75.5 c 128,-1,44
 711 99 711 99 720.5 128.5 c 128,-1,45
 730 158 730 158 736 187 c 128,-1,46
 742 216 742 216 744.5 241.5 c 128,-1,47
 747 267 747 267 748 283 c 0,24,25
389 547 m 0,48,49
 389 518 389 518 384 486.5 c 128,-1,50
 379 455 379 455 368 424 c 128,-1,51
 357 393 357 393 340.5 365 c 128,-1,52
 324 337 324 337 301.5 316 c 128,-1,53
 279 295 279 295 251 282.5 c 128,-1,54
 223 270 223 270 189 270 c 0,55,56
 158 270 158 270 135.5 280.5 c 128,-1,57
 113 291 113 291 99 310 c 128,-1,58
 85 329 85 329 78.5 354.5 c 128,-1,59
 72 380 72 380 72 408 c 0,60,61
 72 437 72 437 77.5 468.5 c 128,-1,62
 83 500 83 500 93.5 531 c 128,-1,63
 104 562 104 562 120.5 590 c 128,-1,64
 137 618 137 618 159.5 639 c 128,-1,65
 182 660 182 660 210.5 672.5 c 128,-1,66
 239 685 239 685 273 685 c 0,67,68
 304 685 304 685 326 674.5 c 128,-1,69
 348 664 348 664 362 645.5 c 128,-1,70
 376 627 376 627 382.5 602 c 128,-1,71
 389 577 389 577 389 547 c 0,48,49
196 1 m 1,72,-1
 134 1 l 1,73,-1
 694 671 l 1,74,-1
 756 671 l 1,75,-1
 196 1 l 1,72,-1
821 266 m 0,76,77
 821 237 821 237 816 205 c 128,-1,78
 811 173 811 173 800 142 c 128,-1,79
 789 111 789 111 772.5 83 c 128,-1,80
 756 55 756 55 734 34 c 128,-1,81
 712 13 712 13 683.5 0.5 c 128,-1,82
 655 -12 655 -12 621 -12 c 0,83,84
 590 -12 590 -12 568 -1.5 c 128,-1,85
 546 9 546 9 532 28 c 128,-1,86
 518 47 518 47 511.5 72.5 c 128,-1,87
 505 98 505 98 505 126 c 0,88,89
 505 155 505 155 510 187 c 128,-1,90
 515 219 515 219 526 250 c 128,-1,91
 537 281 537 281 553.5 309 c 128,-1,92
 570 337 570 337 592.5 358 c 128,-1,93
 615 379 615 379 643 391.5 c 128,-1,94
 671 404 671 404 705 404 c 0,95,96
 736 404 736 404 758 393.5 c 128,-1,97
 780 383 780 383 794 364.5 c 128,-1,98
 808 346 808 346 814 321 c 128,-1,99
 820 296 820 296 821 266 c 0,76,77
EndSplineSet
EndChar

StartChar: ampersand
Encoding: 38 38 9
Width: 704
Flags: W
LayerCount: 2
Fore
SplineSet
210 328 m 1,0,1
 168 301 168 301 143.5 266 c 128,-1,2
 119 231 119 231 119 186 c 0,3,4
 119 156 119 156 129 132 c 128,-1,5
 139 108 139 108 156 91 c 128,-1,6
 173 74 173 74 195 64.5 c 128,-1,7
 217 55 217 55 241 55 c 0,8,9
 258 55 258 55 273.5 58 c 128,-1,10
 289 61 289 61 305 67.5 c 128,-1,11
 321 74 321 74 337.5 84 c 128,-1,12
 354 94 354 94 373 108 c 1,13,-1
 210 328 l 1,0,1
404 544 m 0,14,15
 404 561 404 561 399.5 577.5 c 128,-1,16
 395 594 395 594 385.5 606.5 c 128,-1,17
 376 619 376 619 362 626.5 c 128,-1,18
 348 634 348 634 330 634 c 256,19,20
 312 634 312 634 292.5 627.5 c 128,-1,21
 273 621 273 621 256.5 607.5 c 128,-1,22
 240 594 240 594 229.5 573.5 c 128,-1,23
 219 553 219 553 219 525 c 0,24,25
 219 507 219 507 223.5 489.5 c 128,-1,26
 228 472 228 472 235.5 455.5 c 128,-1,27
 243 439 243 439 253 424 c 128,-1,28
 263 409 263 409 273 397 c 1,29,30
 302 408 302 408 326 422 c 128,-1,31
 350 436 350 436 367 454 c 128,-1,32
 384 472 384 472 393.5 494 c 128,-1,33
 403 516 403 516 404 544 c 0,14,15
595 310 m 1,34,35
 575 266 575 266 543 219.5 c 128,-1,36
 511 173 511 173 473 132 c 1,37,38
 490 109 490 109 506.5 93.5 c 128,-1,39
 523 78 523 78 541.5 68.5 c 128,-1,40
 560 59 560 59 582 55 c 128,-1,41
 604 51 604 51 632 51 c 1,42,-1
 632 8 l 1,43,44
 608 8 608 8 591 7.5 c 128,-1,45
 574 7 574 7 560 7 c 0,46,47
 545 7 545 7 530.5 7 c 128,-1,48
 516 7 516 7 503 9 c 0,49,50
 491 10 491 10 480 14.5 c 128,-1,51
 469 19 469 19 458 26.5 c 128,-1,52
 447 34 447 34 435 45.5 c 128,-1,53
 423 57 423 57 410 73 c 1,54,55
 389 57 389 57 365.5 43 c 128,-1,56
 342 29 342 29 315.5 19 c 128,-1,57
 289 9 289 9 259 3 c 128,-1,58
 229 -3 229 -3 194 -3 c 0,59,60
 157 -3 157 -3 125 8 c 128,-1,61
 93 19 93 19 69 40 c 128,-1,62
 45 61 45 61 31.5 91.5 c 128,-1,63
 18 122 18 122 18 161 c 0,64,65
 18 198 18 198 31 229 c 128,-1,66
 44 260 44 260 67 286 c 128,-1,67
 90 312 90 312 121 333 c 128,-1,68
 152 354 152 354 187 372 c 1,69,70
 176 387 176 387 166 402.5 c 128,-1,71
 156 418 156 418 149 433.5 c 128,-1,72
 142 449 142 449 138 465.5 c 128,-1,73
 134 482 134 482 134 500 c 0,74,75
 134 540 134 540 151 574 c 128,-1,76
 168 608 168 608 197.5 632.5 c 128,-1,77
 227 657 227 657 267.5 671 c 128,-1,78
 308 685 308 685 355 685 c 0,79,80
 396 685 396 685 424.5 674 c 128,-1,81
 453 663 453 663 471.5 644.5 c 128,-1,82
 490 626 490 626 498.5 602.5 c 128,-1,83
 507 579 507 579 507 555 c 0,84,85
 507 519 507 519 492.5 490.5 c 128,-1,86
 478 462 478 462 451.5 439 c 128,-1,87
 425 416 425 416 388 397.5 c 128,-1,88
 351 379 351 379 307 364 c 1,89,-1
 447 178 l 1,90,91
 472 206 472 206 491.5 238.5 c 128,-1,92
 511 271 511 271 523 296 c 1,93,94
 523 296 523 296 522 298 c 128,-1,95
 521 300 521 300 519.5 302 c 128,-1,96
 518 304 518 304 516.5 305.5 c 128,-1,97
 515 307 515 307 515 307 c 1,98,-1
 464 315 l 1,99,-1
 464 360 l 1,100,-1
 676 360 l 1,101,-1
 676 315 l 1,102,-1
 595 310 l 1,34,35
EndSplineSet
EndChar

StartChar: quotesingle
Encoding: 39 39 10
Width: 169
Flags: W
LayerCount: 2
Fore
SplineSet
220 675 m 0,0,1
 220 670 220 670 214.5 651.5 c 128,-1,2
 209 633 209 633 200.5 607 c 128,-1,3
 192 581 192 581 182 551.5 c 128,-1,4
 172 522 172 522 162.5 496 c 128,-1,5
 153 470 153 470 145.5 450 c 128,-1,6
 138 430 138 430 136 424 c 1,7,-1
 104 424 l 1,8,-1
 116 647 l 2,9,10
 117 662 117 662 120.5 674 c 128,-1,11
 124 686 124 686 131 695 c 128,-1,12
 138 704 138 704 149.5 709 c 128,-1,13
 161 714 161 714 178 714 c 0,14,15
 197 714 197 714 209 704.5 c 128,-1,16
 221 695 221 695 220 675 c 0,0,1
EndSplineSet
EndChar

StartChar: parenleft
Encoding: 40 40 11
Width: 418
Flags: W
LayerCount: 2
Fore
SplineSet
458 671 m 1,0,1
 417 666 417 666 383 645.5 c 128,-1,2
 349 625 349 625 321 594 c 128,-1,3
 293 563 293 563 271 524 c 128,-1,4
 249 485 249 485 232.5 442 c 128,-1,5
 216 399 216 399 204.5 354.5 c 128,-1,6
 193 310 193 310 186 268 c 128,-1,7
 179 226 179 226 176 188.5 c 128,-1,8
 173 151 173 151 173 123 c 0,9,10
 173 68 173 68 183.5 30 c 128,-1,11
 194 -8 194 -8 213 -33 c 128,-1,12
 232 -58 232 -58 257.5 -71.5 c 128,-1,13
 283 -85 283 -85 312 -91 c 1,14,-1
 303 -136 l 1,15,16
 253 -134 253 -134 211 -112.5 c 128,-1,17
 169 -91 169 -91 138.5 -54.5 c 128,-1,18
 108 -18 108 -18 91 32.5 c 128,-1,19
 74 83 74 83 74 144 c 0,20,21
 74 203 74 203 84.5 267 c 128,-1,22
 95 331 95 331 116 393 c 128,-1,23
 137 455 137 455 169.5 511.5 c 128,-1,24
 202 568 202 568 245.5 612 c 128,-1,25
 289 656 289 656 344.5 684.5 c 128,-1,26
 400 713 400 713 466 718 c 1,27,-1
 458 671 l 1,0,1
EndSplineSet
EndChar

StartChar: parenright
Encoding: 41 41 12
Width: 417
Flags: W
LayerCount: 2
Fore
SplineSet
347 443 m 1,0,1
 347 360 347 360 333.5 286.5 c 128,-1,2
 320 213 320 213 295 150.5 c 128,-1,3
 270 88 270 88 234.5 36.5 c 128,-1,4
 199 -15 199 -15 155.5 -52.5 c 128,-1,5
 112 -90 112 -90 61 -113 c 128,-1,6
 10 -136 10 -136 -45 -142 c 1,7,-1
 -37 -95 l 1,8,9
 6 -90 6 -90 41 -68.5 c 128,-1,10
 76 -47 76 -47 104.5 -14.5 c 128,-1,11
 133 18 133 18 154.5 59 c 128,-1,12
 176 100 176 100 192 144.5 c 128,-1,13
 208 189 208 189 218.5 234.5 c 128,-1,14
 229 280 229 280 235.5 321.5 c 128,-1,15
 242 363 242 363 244.5 398 c 128,-1,16
 247 433 247 433 247 456 c 0,17,18
 247 471 247 471 245.5 491 c 128,-1,19
 244 511 244 511 239 532.5 c 128,-1,20
 234 554 234 554 224.5 575.5 c 128,-1,21
 215 597 215 597 199.5 615.5 c 128,-1,22
 184 634 184 634 161.5 647 c 128,-1,23
 139 660 139 660 109 664 c 1,24,-1
 118 709 l 1,25,26
 171 704 171 704 208.5 685 c 128,-1,27
 246 666 246 666 271.5 640.5 c 128,-1,28
 297 615 297 615 311.5 585 c 128,-1,29
 326 555 326 555 333.5 527 c 128,-1,30
 341 499 341 499 343 475.5 c 128,-1,31
 345 452 345 452 347 443 c 1,0,1
EndSplineSet
EndChar

StartChar: asterisk
Encoding: 42 42 13
Width: 500
Flags: W
LayerCount: 2
Fore
SplineSet
262 362 m 1,0,-1
 192 337 l 1,1,-1
 193 411 l 1,2,-1
 294 492 l 1,3,-1
 307 483 l 1,4,-1
 262 362 l 1,0,-1
291 505 m 1,5,-1
 162 512 l 1,6,-1
 118 568 l 1,7,-1
 187 588 l 1,8,-1
 294 518 l 1,9,-1
 291 505 l 1,5,-1
364 361 m 1,10,-1
 318 481 l 1,11,-1
 331 490 l 1,12,-1
 432 409 l 1,13,-1
 433 335 l 1,14,-1
 364 361 l 1,10,-1
318 527 m 1,15,-1
 306 527 l 1,16,-1
 271 652 l 1,17,-1
 312 713 l 1,18,-1
 353 652 l 1,19,-1
 318 527 l 1,15,-1
462 511 m 1,20,-1
 334 504 l 1,21,-1
 331 518 l 1,22,-1
 437 588 l 1,23,-1
 507 568 l 1,24,-1
 462 511 l 1,20,-1
EndSplineSet
EndChar

StartChar: plus
Encoding: 43 43 14
Width: 1000
Flags: W
LayerCount: 2
Fore
SplineSet
530 269 m 1,0,-1
 530 0 l 1,1,-1
 469 0 l 1,2,-1
 469 269 l 1,3,-1
 200 269 l 1,4,-1
 200 331 l 1,5,-1
 469 331 l 1,6,-1
 469 600 l 1,7,-1
 530 600 l 1,8,-1
 530 331 l 1,9,-1
 799 331 l 1,10,-1
 799 269 l 1,11,-1
 530 269 l 1,0,-1
EndSplineSet
EndChar

StartChar: comma
Encoding: 44 44 15
Width: 279
Flags: W
LayerCount: 2
Fore
SplineSet
159 46 m 1,0,1
 159 4 159 4 141 -33.5 c 128,-1,2
 123 -71 123 -71 93 -100 c 128,-1,3
 63 -129 63 -129 24.5 -147.5 c 128,-1,4
 -14 -166 -14 -166 -55 -169 c 1,5,-1
 -48 -133 l 1,6,7
 -18 -127 -18 -127 5 -116 c 128,-1,8
 28 -105 28 -105 44.5 -88.5 c 128,-1,9
 61 -72 61 -72 71.5 -49 c 128,-1,10
 82 -26 82 -26 87 4 c 1,11,-1
 25 4 l 1,12,13
 20 10 20 10 18 18.5 c 128,-1,14
 16 27 16 27 16 35 c 0,15,16
 16 50 16 50 22 64.5 c 128,-1,17
 28 79 28 79 38 90.5 c 128,-1,18
 48 102 48 102 61.5 109 c 128,-1,19
 75 116 75 116 90 116 c 0,20,21
 107 116 107 116 119 110.5 c 128,-1,22
 131 105 131 105 138.5 95 c 128,-1,23
 146 85 146 85 149.5 71.5 c 128,-1,24
 153 58 153 58 159 46 c 1,0,1
EndSplineSet
EndChar

StartChar: hyphen
Encoding: 45 45 16
Width: 318
Flags: W
LayerCount: 2
Fore
SplineSet
270 207 m 1,0,-1
 30 207 l 1,1,-1
 43 274 l 1,2,-1
 283 274 l 1,3,-1
 270 207 l 1,0,-1
EndSplineSet
EndChar

StartChar: period
Encoding: 46 46 17
Width: 279
Flags: W
LayerCount: 2
Fore
SplineSet
151 55 m 0,0,1
 151 41 151 41 146 29 c 128,-1,2
 141 17 141 17 132 8 c 128,-1,3
 123 -1 123 -1 111 -6 c 128,-1,4
 99 -11 99 -11 86 -11 c 0,5,6
 72 -11 72 -11 60.5 -6 c 128,-1,7
 49 -1 49 -1 40.5 8 c 128,-1,8
 32 17 32 17 27 29 c 128,-1,9
 22 41 22 41 22 55 c 0,10,11
 22 68 22 68 27 80 c 128,-1,12
 32 92 32 92 40.5 101 c 128,-1,13
 49 110 49 110 60.5 115 c 128,-1,14
 72 120 72 120 86 120 c 0,15,16
 99 120 99 120 111 115 c 128,-1,17
 123 110 123 110 132 101 c 128,-1,18
 141 92 141 92 146 80 c 128,-1,19
 151 68 151 68 151 55 c 0,0,1
EndSplineSet
EndChar

StartChar: slash
Encoding: 47 47 18
Width: 490
Flags: W
LayerCount: 2
Fore
SplineSet
63 -92 m 1,0,-1
 0 -92 l 1,1,-1
 425 671 l 1,2,-1
 489 671 l 1,3,-1
 63 -92 l 1,0,-1
EndSplineSet
EndChar

StartChar: zero
Encoding: 48 48 19
Width: 556
Flags: W
LayerCount: 2
Fore
SplineSet
442 479 m 0,0,1
 442 520 442 520 435 549.5 c 128,-1,2
 428 579 428 579 415.5 598 c 128,-1,3
 403 617 403 617 386 626 c 128,-1,4
 369 635 369 635 350 635 c 0,5,6
 319 635 319 635 292 615 c 128,-1,7
 265 595 265 595 242.5 561.5 c 128,-1,8
 220 528 220 528 202 483.5 c 128,-1,9
 184 439 184 439 171.5 390 c 128,-1,10
 159 341 159 341 152.5 290 c 128,-1,11
 146 239 146 239 146 193 c 0,12,13
 146 142 146 142 155.5 111.5 c 128,-1,14
 165 81 165 81 179 65 c 128,-1,15
 193 49 193 49 209.5 44 c 128,-1,16
 226 39 226 39 239 39 c 0,17,18
 268 39 268 39 294.5 58.5 c 128,-1,19
 321 78 321 78 343.5 111 c 128,-1,20
 366 144 366 144 384 188 c 128,-1,21
 402 232 402 232 414.5 281 c 128,-1,22
 427 330 427 330 434 381 c 128,-1,23
 441 432 441 432 442 479 c 0,0,1
548 461 m 0,24,25
 548 403 548 403 538 345 c 128,-1,26
 528 287 528 287 508.5 234.5 c 128,-1,27
 489 182 489 182 461 136.5 c 128,-1,28
 433 91 433 91 397.5 58 c 128,-1,29
 362 25 362 25 319.5 6 c 128,-1,30
 277 -13 277 -13 228 -13 c 0,31,32
 182 -13 182 -13 146 2 c 128,-1,33
 110 17 110 17 85.5 45.5 c 128,-1,34
 61 74 61 74 48.5 115.5 c 128,-1,35
 36 157 36 157 36 210 c 0,36,37
 36 262 36 262 45 317.5 c 128,-1,38
 54 373 54 373 72 426 c 128,-1,39
 90 479 90 479 117 526.5 c 128,-1,40
 144 574 144 574 180 609.5 c 128,-1,41
 216 645 216 645 261 665.5 c 128,-1,42
 306 686 306 686 359 686 c 0,43,44
 408 686 408 686 444 669 c 128,-1,45
 480 652 480 652 503 622 c 128,-1,46
 526 592 526 592 537 551 c 128,-1,47
 548 510 548 510 548 461 c 0,24,25
EndSplineSet
EndChar

StartChar: one
Encoding: 49 49 20
Width: 556
Flags: W
LayerCount: 2
Fore
SplineSet
304 71 m 2,0,1
 303 63 303 63 307 58 c 128,-1,2
 311 53 311 53 323 53 c 2,3,-1
 397 49 l 1,4,-1
 397 3 l 1,5,-1
 84 3 l 1,6,-1
 84 49 l 1,7,-1
 185 53 l 2,8,9
 193 53 193 53 197.5 58.5 c 128,-1,10
 202 64 202 64 203 71 c 2,11,-1
 305 594 l 1,12,-1
 148 574 l 1,13,-1
 148 618 l 1,14,-1
 385 684 l 1,15,-1
 421 684 l 1,16,-1
 304 71 l 2,0,1
EndSplineSet
EndChar

StartChar: two
Encoding: 50 50 21
Width: 556
Flags: W
LayerCount: 2
Fore
SplineSet
535 538 m 1,0,1
 535 504 535 504 523.5 470.5 c 128,-1,2
 512 437 512 437 491.5 404.5 c 128,-1,3
 471 372 471 372 443 341 c 128,-1,4
 415 310 415 310 383 282 c 0,5,6
 352 255 352 255 320 230 c 128,-1,7
 288 205 288 205 254.5 181 c 128,-1,8
 221 157 221 157 187.5 134 c 128,-1,9
 154 111 154 111 120 88 c 1,10,-1
 399 88 l 1,11,-1
 433 172 l 1,12,-1
 493 172 l 1,13,-1
 462 5 l 1,14,-1
 -17 5 l 1,15,-1
 -4 69 l 1,16,17
 68 120 68 120 127.5 164 c 128,-1,18
 187 208 187 208 234.5 247 c 128,-1,19
 282 286 282 286 317 321 c 128,-1,20
 352 356 352 356 375 390 c 128,-1,21
 398 424 398 424 409.5 457.5 c 128,-1,22
 421 491 421 491 421 527 c 0,23,24
 421 555 421 555 413.5 575 c 128,-1,25
 406 595 406 595 392.5 607.5 c 128,-1,26
 379 620 379 620 360.5 625.5 c 128,-1,27
 342 631 342 631 321 631 c 0,28,29
 308 631 308 631 295.5 629 c 128,-1,30
 283 627 283 627 272.5 623.5 c 128,-1,31
 262 620 262 620 253.5 616.5 c 128,-1,32
 245 613 245 613 240 611 c 1,33,-1
 220 506 l 1,34,35
 218 505 218 505 213.5 502.5 c 128,-1,36
 209 500 209 500 202 497.5 c 128,-1,37
 195 495 195 495 186 493 c 128,-1,38
 177 491 177 491 166 491 c 0,39,40
 158 491 158 491 148.5 492.5 c 128,-1,41
 139 494 139 494 131 498.5 c 128,-1,42
 123 503 123 503 117.5 511.5 c 128,-1,43
 112 520 112 520 112 533 c 0,44,45
 112 560 112 560 131.5 588 c 128,-1,46
 151 616 151 616 184.5 638.5 c 128,-1,47
 218 661 218 661 262.5 675 c 128,-1,48
 307 689 307 689 357 689 c 0,49,50
 396 689 396 689 429.5 681 c 128,-1,51
 463 673 463 673 487.5 655.5 c 128,-1,52
 512 638 512 638 526 610 c 128,-1,53
 540 582 540 582 535 538 c 1,0,1
EndSplineSet
EndChar

StartChar: three
Encoding: 51 51 22
Width: 556
Flags: W
LayerCount: 2
Fore
SplineSet
535 544 m 0,0,1
 535 518 535 518 524.5 491 c 128,-1,2
 514 464 514 464 492 439.5 c 128,-1,3
 470 415 470 415 435.5 394.5 c 128,-1,4
 401 374 401 374 354 360 c 1,5,6
 386 356 386 356 412 346.5 c 128,-1,7
 438 337 438 337 456.5 321.5 c 128,-1,8
 475 306 475 306 485 284.5 c 128,-1,9
 495 263 495 263 495 234 c 0,10,11
 495 187 495 187 472.5 143 c 128,-1,12
 450 99 450 99 409.5 65.5 c 128,-1,13
 369 32 369 32 314 11.5 c 128,-1,14
 259 -9 259 -9 196 -9 c 0,15,16
 146 -9 146 -9 111 1.5 c 128,-1,17
 76 12 76 12 54.5 28.5 c 128,-1,18
 33 45 33 45 23.5 64 c 128,-1,19
 14 83 14 83 14 99 c 0,20,21
 14 105 14 105 17 115 c 128,-1,22
 20 125 20 125 27 134 c 128,-1,23
 34 143 34 143 45.5 149 c 128,-1,24
 57 155 57 155 74 155 c 0,25,26
 86 155 86 155 97 153 c 128,-1,27
 108 151 108 151 116 148 c 1,28,-1
 131 64 l 1,29,30
 134 62 134 62 141 58.5 c 128,-1,31
 148 55 148 55 157.5 51.5 c 128,-1,32
 167 48 167 48 178.5 45.5 c 128,-1,33
 190 43 190 43 204 43 c 0,34,35
 240 43 240 43 272 56.5 c 128,-1,36
 304 70 304 70 328 94 c 128,-1,37
 352 118 352 118 366 150 c 128,-1,38
 380 182 380 182 380 219 c 0,39,40
 380 254 380 254 368 275 c 128,-1,41
 356 296 356 296 338.5 307 c 128,-1,42
 321 318 321 318 302 321.5 c 128,-1,43
 283 325 283 325 270 325 c 0,44,45
 252 325 252 325 235 323.5 c 128,-1,46
 218 322 218 322 201 320 c 1,47,-1
 209 382 l 1,48,49
 256 380 256 380 295 391 c 128,-1,50
 334 402 334 402 361.5 422.5 c 128,-1,51
 389 443 389 443 404 472 c 128,-1,52
 419 501 419 501 419 535 c 0,53,54
 419 564 419 564 409 583.5 c 128,-1,55
 399 603 399 603 384 615 c 128,-1,56
 369 627 369 627 351.5 632 c 128,-1,57
 334 637 334 637 320 637 c 0,58,59
 304 637 304 637 290 634 c 128,-1,60
 276 631 276 631 265 626.5 c 128,-1,61
 254 622 254 622 245.5 617 c 128,-1,62
 237 612 237 612 233 609 c 1,63,-1
 218 514 l 1,64,65
 215 514 215 514 209 512 c 128,-1,66
 203 510 203 510 195.5 508 c 128,-1,67
 188 506 188 506 180 505 c 128,-1,68
 172 504 172 504 166 504 c 0,69,70
 157 504 157 504 148 506.5 c 128,-1,71
 139 509 139 509 131.5 515 c 128,-1,72
 124 521 124 521 119.5 530 c 128,-1,73
 115 539 115 539 115 551 c 0,74,75
 115 580 115 580 136 605.5 c 128,-1,76
 157 631 157 631 191 650 c 128,-1,77
 225 669 225 669 268.5 679.5 c 128,-1,78
 312 690 312 690 356 690 c 0,79,80
 442 690 442 690 489 654 c 128,-1,81
 536 618 536 618 535 544 c 0,0,1
EndSplineSet
EndChar

StartChar: four
Encoding: 52 52 23
Width: 556
Flags: W
LayerCount: 2
Fore
SplineSet
132 270 m 1,0,-1
 336 270 l 1,1,-1
 389 535 l 1,2,-1
 132 270 l 1,0,-1
507 202 m 1,3,-1
 415 202 l 1,4,-1
 372 -27 l 1,5,-1
 278 -27 l 1,6,-1
 323 202 l 1,7,-1
 21 202 l 1,8,-1
 34 268 l 1,9,-1
 436 685 l 1,10,-1
 510 685 l 1,11,-1
 430 269 l 1,12,-1
 520 269 l 1,13,-1
 507 202 l 1,3,-1
EndSplineSet
EndChar

StartChar: five
Encoding: 53 53 24
Width: 556
Flags: W
LayerCount: 2
Fore
SplineSet
526 589 m 1,0,-1
 235 589 l 1,1,-1
 196 396 l 1,2,3
 214 401 214 401 239.5 405.5 c 128,-1,4
 265 410 265 410 298 410 c 0,5,6
 332 410 332 410 365.5 402 c 128,-1,7
 399 394 399 394 425.5 375 c 128,-1,8
 452 356 452 356 468.5 325.5 c 128,-1,9
 485 295 485 295 485 250 c 0,10,11
 485 214 485 214 474 180.5 c 128,-1,12
 463 147 463 147 443 117.5 c 128,-1,13
 423 88 423 88 395 64 c 128,-1,14
 367 40 367 40 332.5 22.5 c 128,-1,15
 298 5 298 5 258 -4.5 c 128,-1,16
 218 -14 218 -14 176 -14 c 0,17,18
 97 -14 97 -14 53.5 11 c 128,-1,19
 10 36 10 36 10 78 c 0,20,21
 10 89 10 89 14 100 c 128,-1,22
 18 111 18 111 26.5 119 c 128,-1,23
 35 127 35 127 47 132 c 128,-1,24
 59 137 59 137 75 137 c 0,25,26
 83 137 83 137 91 136 c 128,-1,27
 99 135 99 135 104 134 c 1,28,-1
 130 50 l 1,29,30
 145 45 145 45 160.5 41 c 128,-1,31
 176 37 176 37 194 37 c 0,32,33
 231 37 231 37 264 52.5 c 128,-1,34
 297 68 297 68 321.5 94 c 128,-1,35
 346 120 346 120 360 154 c 128,-1,36
 374 188 374 188 374 225 c 256,37,38
 374 262 374 262 360 286 c 128,-1,39
 346 310 346 310 323 324 c 128,-1,40
 300 338 300 338 270.5 343.5 c 128,-1,41
 241 349 241 349 210 349 c 0,42,43
 200 349 200 349 186 348.5 c 128,-1,44
 172 348 172 348 157 347 c 128,-1,45
 142 346 142 346 128 345 c 128,-1,46
 114 344 114 344 104 343 c 1,47,-1
 170 672 l 1,48,-1
 536 672 l 1,49,-1
 526 589 l 1,0,-1
EndSplineSet
EndChar

StartChar: six
Encoding: 54 54 25
Width: 556
Flags: W
LayerCount: 2
Fore
SplineSet
413 245 m 0,0,1
 413 277 413 277 406 303 c 128,-1,2
 399 329 399 329 384.5 347.5 c 128,-1,3
 370 366 370 366 347.5 376 c 128,-1,4
 325 386 325 386 294 386 c 0,5,6
 279 386 279 386 264 384 c 128,-1,7
 249 382 249 382 233 376 c 128,-1,8
 217 370 217 370 199.5 360 c 128,-1,9
 182 350 182 350 163 335 c 1,10,11
 163 331 163 331 160 317 c 128,-1,12
 157 303 157 303 154 284 c 128,-1,13
 151 265 151 265 148.5 244.5 c 128,-1,14
 146 224 146 224 146 206 c 0,15,16
 146 181 146 181 150 151.5 c 128,-1,17
 154 122 154 122 166 97 c 128,-1,18
 178 72 178 72 199 55 c 128,-1,19
 220 38 220 38 254 38 c 0,20,21
 285 38 285 38 314 55 c 128,-1,22
 343 72 343 72 365.5 101 c 128,-1,23
 388 130 388 130 401 168 c 128,-1,24
 414 206 414 206 413 245 c 0,0,1
519 273 m 0,25,26
 519 215 519 215 498 163 c 128,-1,27
 477 111 477 111 440 72 c 128,-1,28
 403 33 403 33 353.5 10 c 128,-1,29
 304 -13 304 -13 247 -13 c 0,30,31
 224 -13 224 -13 199.5 -9 c 128,-1,32
 175 -5 175 -5 151.5 5 c 128,-1,33
 128 15 128 15 107.5 32 c 128,-1,34
 87 49 87 49 71.5 74.5 c 128,-1,35
 56 100 56 100 47 135 c 128,-1,36
 38 170 38 170 38 216 c 0,37,38
 38 277 38 277 52.5 335.5 c 128,-1,39
 67 394 67 394 95 447 c 128,-1,40
 123 500 123 500 164 545.5 c 128,-1,41
 205 591 205 591 257 626 c 128,-1,42
 309 661 309 661 371.5 684 c 128,-1,43
 434 707 434 707 506 714 c 1,44,-1
 506 660 l 1,45,46
 442 653 442 653 387.5 630.5 c 128,-1,47
 333 608 333 608 291 573.5 c 128,-1,48
 249 539 249 539 219.5 495 c 128,-1,49
 190 451 190 451 177 402 c 1,50,51
 213 426 213 426 252.5 439 c 128,-1,52
 292 452 292 452 337 452 c 0,53,54
 377 452 377 452 410.5 440 c 128,-1,55
 444 428 444 428 468 405 c 128,-1,56
 492 382 492 382 505.5 349 c 128,-1,57
 519 316 519 316 519 273 c 0,25,26
EndSplineSet
EndChar

StartChar: seven
Encoding: 55 55 26
Width: 556
Flags: W
LayerCount: 2
Fore
SplineSet
596 627 m 1,0,-1
 141 -15 l 1,1,-1
 135 -37 l 1,2,-1
 37 -37 l 1,3,-1
 481 589 l 1,4,-1
 190 589 l 1,5,-1
 159 500 l 1,6,-1
 96 500 l 1,7,-1
 129 670 l 1,8,-1
 605 670 l 1,9,-1
 596 627 l 1,0,-1
EndSplineSet
EndChar

StartChar: eight
Encoding: 56 56 27
Width: 556
Flags: W
LayerCount: 2
Fore
SplineSet
397 182 m 0,0,1
 397 205 397 205 383 225 c 128,-1,2
 369 245 369 245 345.5 262.5 c 128,-1,3
 322 280 322 280 291.5 295.5 c 128,-1,4
 261 311 261 311 230 325 c 1,5,6
 206 312 206 312 185.5 295.5 c 128,-1,7
 165 279 165 279 150 259 c 128,-1,8
 135 239 135 239 126.5 215.5 c 128,-1,9
 118 192 118 192 118 165 c 0,10,11
 118 139 118 139 126.5 116 c 128,-1,12
 135 93 135 93 151.5 76 c 128,-1,13
 168 59 168 59 192 49 c 128,-1,14
 216 39 216 39 247 39 c 256,15,16
 278 39 278 39 305.5 51 c 128,-1,17
 333 63 333 63 353.5 83 c 128,-1,18
 374 103 374 103 385.5 128.5 c 128,-1,19
 397 154 397 154 397 182 c 0,0,1
434 536 m 1,20,21
 434 558 434 558 427.5 576.5 c 128,-1,22
 421 595 421 595 409 608 c 128,-1,23
 397 621 397 621 379 628 c 128,-1,24
 361 635 361 635 339 635 c 0,25,26
 312 635 312 635 287.5 624.5 c 128,-1,27
 263 614 263 614 245 595 c 128,-1,28
 227 576 227 576 217 551 c 128,-1,29
 207 526 207 526 207 498 c 0,30,31
 207 478 207 478 216 461 c 128,-1,32
 225 444 225 444 241.5 429.5 c 128,-1,33
 258 415 258 415 281.5 402.5 c 128,-1,34
 305 390 305 390 334 378 c 1,35,36
 357 390 357 390 376 406 c 128,-1,37
 395 422 395 422 408.5 441.5 c 128,-1,38
 422 461 422 461 429.5 484.5 c 128,-1,39
 437 508 437 508 434 536 c 1,20,21
531 544 m 1,40,41
 531 505 531 505 519.5 476 c 128,-1,42
 508 447 508 447 487.5 425.5 c 128,-1,43
 467 404 467 404 440 387.5 c 128,-1,44
 413 371 413 371 383 358 c 1,45,46
 402 350 402 350 423.5 338 c 128,-1,47
 445 326 445 326 463.5 308 c 128,-1,48
 482 290 482 290 494 266.5 c 128,-1,49
 506 243 506 243 506 213 c 0,50,51
 506 167 506 167 485 126.5 c 128,-1,52
 464 86 464 86 427 55.5 c 128,-1,53
 390 25 390 25 339.5 7.5 c 128,-1,54
 289 -10 289 -10 231 -10 c 0,55,56
 180 -10 180 -10 140.5 1.5 c 128,-1,57
 101 13 101 13 74 34.5 c 128,-1,58
 47 56 47 56 33.5 86 c 128,-1,59
 20 116 20 116 20 152 c 0,60,61
 20 176 20 176 28 203 c 128,-1,62
 36 230 36 230 55.5 257 c 128,-1,63
 75 284 75 284 107 309.5 c 128,-1,64
 139 335 139 335 186 355 c 1,65,66
 161 368 161 368 145.5 383 c 128,-1,67
 130 398 130 398 121.5 414 c 128,-1,68
 113 430 113 430 110 446 c 128,-1,69
 107 462 107 462 107 477 c 0,70,71
 107 518 107 518 123.5 555.5 c 128,-1,72
 140 593 140 593 171 622 c 128,-1,73
 202 651 202 651 247 668 c 128,-1,74
 292 685 292 685 348 685 c 0,75,76
 393 685 393 685 427 674.5 c 128,-1,77
 461 664 461 664 483.5 645 c 128,-1,78
 506 626 506 626 517 600.5 c 128,-1,79
 528 575 528 575 531 544 c 1,40,41
EndSplineSet
EndChar

StartChar: nine
Encoding: 57 57 28
Width: 556
Flags: W
LayerCount: 2
Fore
SplineSet
451 477 m 1,0,1
 451 525 451 525 440 556 c 128,-1,2
 429 587 429 587 412 605 c 128,-1,3
 395 623 395 623 375 629.5 c 128,-1,4
 355 636 355 636 337 636 c 0,5,6
 304 636 304 636 275 618.5 c 128,-1,7
 246 601 246 601 224 571.5 c 128,-1,8
 202 542 202 542 189.5 503.5 c 128,-1,9
 177 465 177 465 177 423 c 0,10,11
 177 386 177 386 188 360.5 c 128,-1,12
 199 335 199 335 216 319 c 128,-1,13
 233 303 233 303 253.5 295.5 c 128,-1,14
 274 288 274 288 293 288 c 0,15,16
 319 288 319 288 342.5 296 c 128,-1,17
 366 304 366 304 384.5 314 c 128,-1,18
 403 324 403 324 415 334 c 128,-1,19
 427 344 427 344 430 347 c 1,20,21
 435 377 435 377 441.5 409.5 c 128,-1,22
 448 442 448 442 451 477 c 1,0,1
553 474 m 0,23,24
 553 401 553 401 532.5 338 c 128,-1,25
 512 275 512 275 476.5 222 c 128,-1,26
 441 169 441 169 393 125.5 c 128,-1,27
 345 82 345 82 291 47.5 c 128,-1,28
 237 13 237 13 179 -12.5 c 128,-1,29
 121 -38 121 -38 66 -55 c 1,30,-1
 46 -8 l 1,31,32
 99 12 99 12 147 35.5 c 128,-1,33
 195 59 195 59 239 90.5 c 128,-1,34
 283 122 283 122 323 165 c 128,-1,35
 363 208 363 208 399 268 c 1,36,37
 383 260 383 260 364.5 252.5 c 128,-1,38
 346 245 346 245 326.5 239.5 c 128,-1,39
 307 234 307 234 286.5 230.5 c 128,-1,40
 266 227 266 227 246 227 c 0,41,42
 215 227 215 227 183 236.5 c 128,-1,43
 151 246 151 246 125 266.5 c 128,-1,44
 99 287 99 287 82.5 320.5 c 128,-1,45
 66 354 66 354 66 402 c 0,46,47
 66 460 66 460 87.5 511.5 c 128,-1,48
 109 563 109 563 147.5 601 c 128,-1,49
 186 639 186 639 238.5 661 c 128,-1,50
 291 683 291 683 352 683 c 0,51,52
 369 683 369 683 390.5 681 c 128,-1,53
 412 679 412 679 434 671.5 c 128,-1,54
 456 664 456 664 477.5 650 c 128,-1,55
 499 636 499 636 516 613 c 128,-1,56
 533 590 533 590 543 556.5 c 128,-1,57
 553 523 553 523 553 474 c 0,23,24
EndSplineSet
EndChar

StartChar: colon
Encoding: 58 58 29
Width: 279
Flags: W
LayerCount: 2
Fore
SplineSet
151 55 m 0,0,1
 151 41 151 41 146 29 c 128,-1,2
 141 17 141 17 132 8 c 128,-1,3
 123 -1 123 -1 111 -6 c 128,-1,4
 99 -11 99 -11 86 -11 c 0,5,6
 72 -11 72 -11 60.5 -6 c 128,-1,7
 49 -1 49 -1 40 8 c 128,-1,8
 31 17 31 17 26 29 c 128,-1,9
 21 41 21 41 21 55 c 0,10,11
 21 68 21 68 26 80 c 128,-1,12
 31 92 31 92 40 101 c 128,-1,13
 49 110 49 110 60.5 115 c 128,-1,14
 72 120 72 120 86 120 c 0,15,16
 99 120 99 120 111 115 c 128,-1,17
 123 110 123 110 132 101 c 128,-1,18
 141 92 141 92 146 80 c 128,-1,19
 151 68 151 68 151 55 c 0,0,1
224 425 m 256,20,21
 224 412 224 412 219 400 c 128,-1,22
 214 388 214 388 205 379 c 128,-1,23
 196 370 196 370 184 365 c 128,-1,24
 172 360 172 360 159 360 c 0,25,26
 145 360 145 360 133 365 c 128,-1,27
 121 370 121 370 112 379 c 128,-1,28
 103 388 103 388 98 400 c 128,-1,29
 93 412 93 412 93 425 c 256,30,31
 93 438 93 438 98 450 c 128,-1,32
 103 462 103 462 112 471 c 128,-1,33
 121 480 121 480 133 485 c 128,-1,34
 145 490 145 490 159 490 c 0,35,36
 172 490 172 490 184 485 c 128,-1,37
 196 480 196 480 205 471 c 128,-1,38
 214 462 214 462 219 450 c 128,-1,39
 224 438 224 438 224 425 c 256,20,21
EndSplineSet
EndChar

StartChar: semicolon
Encoding: 59 59 30
Width: 279
Flags: W
LayerCount: 2
Fore
SplineSet
159 47 m 1,0,1
 159 5 159 5 141 -33 c 128,-1,2
 123 -71 123 -71 93 -100 c 128,-1,3
 63 -129 63 -129 24.5 -147.5 c 128,-1,4
 -14 -166 -14 -166 -55 -169 c 1,5,-1
 -48 -133 l 1,6,7
 -18 -127 -18 -127 5 -116 c 128,-1,8
 28 -105 28 -105 44.5 -88.5 c 128,-1,9
 61 -72 61 -72 71.5 -49 c 128,-1,10
 82 -26 82 -26 87 5 c 1,11,-1
 25 5 l 1,12,13
 20 11 20 11 18 20.5 c 128,-1,14
 16 30 16 30 16 38 c 0,15,16
 16 52 16 52 22 66 c 128,-1,17
 28 80 28 80 38.5 91.5 c 128,-1,18
 49 103 49 103 62.5 110 c 128,-1,19
 76 117 76 117 91 117 c 0,20,21
 108 117 108 117 120 111.5 c 128,-1,22
 132 106 132 106 139.5 96 c 128,-1,23
 147 86 147 86 150.5 72.5 c 128,-1,24
 154 59 154 59 159 47 c 1,0,1
219 422 m 256,25,26
 219 409 219 409 214 397 c 128,-1,27
 209 385 209 385 200 376 c 128,-1,28
 191 367 191 367 179 362 c 128,-1,29
 167 357 167 357 154 357 c 0,30,31
 140 357 140 357 128 362 c 128,-1,32
 116 367 116 367 107 376 c 128,-1,33
 98 385 98 385 93 397 c 128,-1,34
 88 409 88 409 88 422 c 256,35,36
 88 435 88 435 93 447 c 128,-1,37
 98 459 98 459 107 468 c 128,-1,38
 116 477 116 477 128 482 c 128,-1,39
 140 487 140 487 154 487 c 0,40,41
 167 487 167 487 179 482 c 128,-1,42
 191 477 191 477 200 468 c 128,-1,43
 209 459 209 459 214 447 c 128,-1,44
 219 435 219 435 219 422 c 256,25,26
EndSplineSet
EndChar

StartChar: less
Encoding: 60 60 31
Width: 1000
Flags: W
LayerCount: 2
Fore
SplineSet
200 269 m 1,0,-1
 200 331 l 1,1,-1
 799 560 l 1,2,-1
 799 498 l 1,3,-1
 264 299 l 1,4,-1
 799 101 l 1,5,-1
 799 39 l 1,6,-1
 200 269 l 1,0,-1
EndSplineSet
EndChar

StartChar: equal
Encoding: 61 61 32
Width: 1000
Flags: W
LayerCount: 2
Fore
SplineSet
200 178 m 1,0,-1
 200 240 l 1,1,-1
 799 240 l 1,2,-1
 799 178 l 1,3,-1
 200 178 l 1,0,-1
200 359 m 1,4,-1
 200 421 l 1,5,-1
 799 421 l 1,6,-1
 799 359 l 1,7,-1
 200 359 l 1,4,-1
EndSplineSet
EndChar

StartChar: greater
Encoding: 62 62 33
Width: 1000
Flags: W
LayerCount: 2
Fore
SplineSet
200 39 m 1,0,-1
 200 101 l 1,1,-1
 735 299 l 1,2,-1
 200 498 l 1,3,-1
 200 560 l 1,4,-1
 799 331 l 1,5,-1
 799 269 l 1,6,-1
 200 39 l 1,0,-1
EndSplineSet
EndChar

StartChar: question
Encoding: 63 63 34
Width: 485
Flags: W
LayerCount: 2
Fore
SplineSet
227 43 m 0,0,1
 227 32 227 32 223 21.5 c 128,-1,2
 219 11 219 11 211 3 c 128,-1,3
 203 -5 203 -5 191.5 -10 c 128,-1,4
 180 -15 180 -15 165 -15 c 256,5,6
 150 -15 150 -15 138 -10.5 c 128,-1,7
 126 -6 126 -6 117.5 2 c 128,-1,8
 109 10 109 10 104.5 20 c 128,-1,9
 100 30 100 30 100 41 c 256,10,11
 100 52 100 52 104.5 62.5 c 128,-1,12
 109 73 109 73 117.5 81.5 c 128,-1,13
 126 90 126 90 138 95 c 128,-1,14
 150 100 150 100 165 100 c 256,15,16
 180 100 180 100 191.5 95.5 c 128,-1,17
 203 91 203 91 211 82.5 c 128,-1,18
 219 74 219 74 223 63.5 c 128,-1,19
 227 53 227 53 227 43 c 0,0,1
462 540 m 1,20,21
 462 490 462 490 442 450.5 c 128,-1,22
 422 411 422 411 390 380 c 128,-1,23
 358 349 358 349 317.5 326 c 128,-1,24
 277 303 277 303 236 287 c 1,25,-1
 214 168 l 1,26,-1
 148 168 l 1,27,-1
 174 316 l 1,28,29
 208 326 208 326 240.5 345 c 128,-1,30
 273 364 273 364 298.5 391 c 128,-1,31
 324 418 324 418 339.5 452.5 c 128,-1,32
 355 487 355 487 355 528 c 0,33,34
 355 579 355 579 327.5 605 c 128,-1,35
 300 631 300 631 252 631 c 1,36,-1
 191 532 l 1,37,-1
 163 532 l 2,38,39
 138 532 138 532 123.5 542.5 c 128,-1,40
 109 553 109 553 109 572 c 0,41,42
 109 586 109 586 117.5 604.5 c 128,-1,43
 126 623 126 623 146.5 639 c 128,-1,44
 167 655 167 655 200 666 c 128,-1,45
 233 677 233 677 282 677 c 0,46,47
 326 677 326 677 360 667 c 128,-1,48
 394 657 394 657 417 638.5 c 128,-1,49
 440 620 440 620 451.5 593.5 c 128,-1,50
 463 567 463 567 462 540 c 1,20,21
EndSplineSet
EndChar

StartChar: at
Encoding: 64 64 35
Width: 936
Flags: W
LayerCount: 2
Fore
SplineSet
594 393 m 2,0,1
 595 399 595 399 591 408.5 c 128,-1,2
 587 418 587 418 579 427 c 128,-1,3
 571 436 571 436 560 442.5 c 128,-1,4
 549 449 549 449 536 449 c 0,5,6
 499 449 499 449 469.5 432 c 128,-1,7
 440 415 440 415 419.5 385 c 128,-1,8
 399 355 399 355 388 315 c 128,-1,9
 377 275 377 275 377 230 c 0,10,11
 377 176 377 176 397 149.5 c 128,-1,12
 417 123 417 123 455 123 c 0,13,14
 471 123 471 123 486 129.5 c 128,-1,15
 501 136 501 136 513.5 145.5 c 128,-1,16
 526 155 526 155 536.5 166 c 128,-1,17
 547 177 547 177 554 186 c 1,18,-1
 594 393 l 2,0,1
873 373 m 0,19,20
 873 323 873 323 862 280 c 128,-1,21
 851 237 851 237 832.5 202 c 128,-1,22
 814 167 814 167 789.5 140 c 128,-1,23
 765 113 765 113 738 95 c 128,-1,24
 711 77 711 77 683.5 68 c 128,-1,25
 656 59 656 59 632 59 c 0,26,27
 591 59 591 59 573 79.5 c 128,-1,28
 555 100 555 100 555 141 c 1,29,30
 516 102 516 102 481.5 81 c 128,-1,31
 447 60 447 60 412 60 c 0,32,33
 385 60 385 60 362.5 71 c 128,-1,34
 340 82 340 82 323.5 103 c 128,-1,35
 307 124 307 124 298 154 c 128,-1,36
 289 184 289 184 289 221 c 0,37,38
 289 278 289 278 309.5 327.5 c 128,-1,39
 330 377 330 377 364.5 413.5 c 128,-1,40
 399 450 399 450 443 470.5 c 128,-1,41
 487 491 487 491 534 491 c 0,42,43
 544 491 544 491 556.5 489.5 c 128,-1,44
 569 488 569 488 581.5 484.5 c 128,-1,45
 594 481 594 481 606.5 476 c 128,-1,46
 619 471 619 471 629 466 c 1,47,-1
 647 488 l 1,48,-1
 704 488 l 1,49,50
 704 486 704 486 701 472 c 128,-1,51
 698 458 698 458 693 437 c 128,-1,52
 688 416 688 416 682 389.5 c 128,-1,53
 676 363 676 363 670 337 c 0,54,55
 656 274 656 274 638 195 c 0,56,57
 635 178 635 178 635 164 c 128,-1,58
 635 150 635 150 639 140 c 128,-1,59
 643 130 643 130 652 124.5 c 128,-1,60
 661 119 661 119 675 119 c 256,61,62
 689 119 689 119 706 127 c 128,-1,63
 723 135 723 135 740 150.5 c 128,-1,64
 757 166 757 166 772.5 188 c 128,-1,65
 788 210 788 210 800 238.5 c 128,-1,66
 812 267 812 267 819 301.5 c 128,-1,67
 826 336 826 336 826 375 c 0,68,69
 826 421 826 421 815.5 459.5 c 128,-1,70
 805 498 805 498 785.5 528.5 c 128,-1,71
 766 559 766 559 739.5 581 c 128,-1,72
 713 603 713 603 682 617.5 c 128,-1,73
 651 632 651 632 616.5 639 c 128,-1,74
 582 646 582 646 547 646 c 0,75,76
 490 646 490 646 439 633 c 128,-1,77
 388 620 388 620 345 595.5 c 128,-1,78
 302 571 302 571 267.5 536 c 128,-1,79
 233 501 233 501 209 458 c 128,-1,80
 185 415 185 415 172 364.5 c 128,-1,81
 159 314 159 314 159 259 c 0,82,83
 159 183 159 183 182.5 117.5 c 128,-1,84
 206 52 206 52 250.5 4 c 128,-1,85
 295 -44 295 -44 359.5 -71.5 c 128,-1,86
 424 -99 424 -99 507 -99 c 0,87,88
 550 -99 550 -99 588 -92.5 c 128,-1,89
 626 -86 626 -86 658.5 -75.5 c 128,-1,90
 691 -65 691 -65 718.5 -52 c 128,-1,91
 746 -39 746 -39 768 -27 c 1,92,-1
 782 -63 l 1,93,94
 749 -81 749 -81 714 -96.5 c 128,-1,95
 679 -112 679 -112 642 -123.5 c 128,-1,96
 605 -135 605 -135 565 -142 c 128,-1,97
 525 -149 525 -149 482 -149 c 0,98,99
 429 -149 429 -149 379 -137 c 128,-1,100
 329 -125 329 -125 285 -102 c 128,-1,101
 241 -79 241 -79 204.5 -45.5 c 128,-1,102
 168 -12 168 -12 142 31 c 128,-1,103
 116 74 116 74 101.5 126.5 c 128,-1,104
 87 179 87 179 87 239 c 0,105,106
 87 313 87 313 104.5 375 c 128,-1,107
 122 437 122 437 153 487 c 128,-1,108
 184 537 184 537 226.5 575 c 128,-1,109
 269 613 269 613 319 638 c 128,-1,110
 369 663 369 663 423.5 675.5 c 128,-1,111
 478 688 478 688 533 688 c 0,112,113
 607 688 607 688 669.5 667.5 c 128,-1,114
 732 647 732 647 777 607 c 128,-1,115
 822 567 822 567 847.5 508 c 128,-1,116
 873 449 873 449 873 373 c 0,19,20
EndSplineSet
EndChar

StartChar: A
Encoding: 65 65 36
Width: 672
Flags: W
LayerCount: 2
Fore
SplineSet
374 563 m 1,0,-1
 227 304 l 1,1,-1
 417 304 l 1,2,-1
 374 563 l 1,0,-1
392 0 m 1,3,-1
 392 41 l 1,4,-1
 437 45 l 2,5,6
 458 47 458 47 456 63 c 2,7,-1
 426 253 l 1,8,-1
 200 253 l 1,9,-1
 98 63 l 2,10,11
 93 54 93 54 98 50.5 c 128,-1,12
 103 47 103 47 117 46 c 2,13,-1
 162 42 l 1,14,-1
 162 1 l 1,15,-1
 -53 1 l 1,16,-1
 -53 42 l 1,17,-1
 3 47 l 1,18,-1
 372 686 l 1,19,-1
 452 686 l 1,20,-1
 559 65 l 2,21,22
 560 56 560 56 563.5 52 c 128,-1,23
 567 48 567 48 577 48 c 2,24,-1
 622 44 l 1,25,-1
 622 3 l 1,26,-1
 392 0 l 1,3,-1
EndSplineSet
EndChar

StartChar: B
Encoding: 66 66 37
Width: 606
Flags: W
LayerCount: 2
Fore
SplineSet
574 542 m 0,0,1
 574 504 574 504 561 474.5 c 128,-1,2
 548 445 548 445 525.5 423 c 128,-1,3
 503 401 503 401 472.5 385 c 128,-1,4
 442 369 442 369 408 358 c 1,5,6
 440 354 440 354 466.5 345 c 128,-1,7
 493 336 493 336 512.5 320.5 c 128,-1,8
 532 305 532 305 542.5 282 c 128,-1,9
 553 259 553 259 553 227 c 0,10,11
 553 166 553 166 531 123.5 c 128,-1,12
 509 81 509 81 469.5 54.5 c 128,-1,13
 430 28 430 28 376.5 16.5 c 128,-1,14
 323 5 323 5 261 5 c 2,15,-1
 -12 5 l 1,16,-1
 -12 46 l 1,17,-1
 50 50 l 2,18,19
 59 50 59 50 63 54.5 c 128,-1,20
 67 59 67 59 68 67 c 2,21,-1
 172 605 l 2,22,23
 173 613 173 613 169.5 618 c 128,-1,24
 166 623 166 623 153 623 c 2,25,-1
 98 627 l 1,26,-1
 98 668 l 1,27,-1
 378 668 l 2,28,29
 432 668 432 668 469.5 659 c 128,-1,30
 507 650 507 650 530.5 633.5 c 128,-1,31
 554 617 554 617 564 593.5 c 128,-1,32
 574 570 574 570 574 542 c 0,0,1
445 213 m 0,33,34
 445 243 445 243 434.5 264 c 128,-1,35
 424 285 424 285 404.5 298 c 128,-1,36
 385 311 385 311 357 316.5 c 128,-1,37
 329 322 329 322 294 322 c 0,38,39
 276 322 276 322 256 321 c 128,-1,40
 236 320 236 320 220 318 c 1,41,-1
 168 47 l 1,42,43
 173 47 173 47 181 47 c 128,-1,44
 189 47 189 47 197.5 47 c 128,-1,45
 206 47 206 47 214 47 c 128,-1,46
 222 47 222 47 228 47 c 0,47,48
 335 47 335 47 390.5 91.5 c 128,-1,49
 446 136 446 136 445 213 c 0,33,34
464 537 m 1,50,51
 464 584 464 584 428.5 606 c 128,-1,52
 393 628 393 628 330 628 c 0,53,54
 315 628 315 628 301.5 627.5 c 128,-1,55
 288 627 288 627 280 627 c 1,56,-1
 232 374 l 1,57,58
 237 374 237 374 243 374 c 2,59,-1
 256 374 l 2,60,61
 262 374 262 374 267.5 374 c 128,-1,62
 273 374 273 374 276 374 c 0,63,64
 322 374 322 374 357 387 c 128,-1,65
 392 400 392 400 415.5 422.5 c 128,-1,66
 439 445 439 445 450.5 475.5 c 128,-1,67
 462 506 462 506 464 537 c 1,50,51
EndSplineSet
EndChar

StartChar: C
Encoding: 67 67 38
Width: 629
Flags: W
LayerCount: 2
Fore
SplineSet
617 491 m 1,0,-1
 558 491 l 1,1,-1
 558 583 l 2,2,3
 558 590 558 590 552.5 598 c 128,-1,4
 547 606 547 606 541 608 c 0,5,6
 540 608 540 608 533.5 612 c 128,-1,7
 527 616 527 616 516.5 620 c 128,-1,8
 506 624 506 624 491.5 627.5 c 128,-1,9
 477 631 477 631 459 631 c 0,10,11
 421 631 421 631 384 619 c 128,-1,12
 347 607 347 607 314 584.5 c 128,-1,13
 281 562 281 562 253 529 c 128,-1,14
 225 496 225 496 204.5 454 c 128,-1,15
 184 412 184 412 172.5 361.5 c 128,-1,16
 161 311 161 311 161 254 c 0,17,18
 161 198 161 198 177 156.5 c 128,-1,19
 193 115 193 115 220.5 88 c 128,-1,20
 248 61 248 61 285 48 c 128,-1,21
 322 35 322 35 363 35 c 0,22,23
 379 35 379 35 392 37 c 128,-1,24
 405 39 405 39 414.5 41.5 c 128,-1,25
 424 44 424 44 429.5 46.5 c 128,-1,26
 435 49 435 49 436 49 c 0,27,28
 441 49 441 49 448 55 c 128,-1,29
 455 61 455 61 457 67 c 2,30,-1
 499 181 l 1,31,-1
 558 181 l 1,32,-1
 532 19 l 1,33,34
 527 18 527 18 508 12 c 128,-1,35
 489 6 489 6 461 -1 c 128,-1,36
 433 -8 433 -8 398.5 -13.5 c 128,-1,37
 364 -19 364 -19 328 -19 c 0,38,39
 279 -19 279 -19 239 -8 c 128,-1,40
 199 3 199 3 168.5 22.5 c 128,-1,41
 138 42 138 42 116 68.5 c 128,-1,42
 94 95 94 95 80 126 c 128,-1,43
 66 157 66 157 59.5 191.5 c 128,-1,44
 53 226 53 226 53 261 c 0,45,46
 53 314 53 314 66 365.5 c 128,-1,47
 79 417 79 417 103.5 463.5 c 128,-1,48
 128 510 128 510 163.5 549.5 c 128,-1,49
 199 589 199 589 243.5 617.5 c 128,-1,50
 288 646 288 646 340.5 662 c 128,-1,51
 393 678 393 678 452 678 c 0,52,53
 476 678 476 678 498 675.5 c 128,-1,54
 520 673 520 673 542.5 668 c 128,-1,55
 565 663 565 663 589.5 655.5 c 128,-1,56
 614 648 614 648 642 639 c 1,57,-1
 617 491 l 1,0,-1
EndSplineSet
EndChar

StartChar: D
Encoding: 68 68 39
Width: 670
Flags: W
LayerCount: 2
Fore
SplineSet
544 423 m 0,0,1
 544 485 544 485 525 523 c 128,-1,2
 506 561 506 561 474 581.5 c 128,-1,3
 442 602 442 602 400 609.5 c 128,-1,4
 358 617 358 617 312 618 c 1,5,-1
 276 618 l 1,6,-1
 167 49 l 1,7,-1
 239 49 l 2,8,9
 314 49 314 49 371.5 80 c 128,-1,10
 429 111 429 111 467.5 162.5 c 128,-1,11
 506 214 506 214 525.5 280.5 c 128,-1,12
 545 347 545 347 544 423 c 0,0,1
652 409 m 0,13,14
 652 348 652 348 638 293.5 c 128,-1,15
 624 239 624 239 597.5 193 c 128,-1,16
 571 147 571 147 533 110.5 c 128,-1,17
 495 74 495 74 447 48.5 c 128,-1,18
 399 23 399 23 342.5 9.5 c 128,-1,19
 286 -4 286 -4 223 -4 c 2,20,-1
 -12 -4 l 1,21,-1
 -12 37 l 1,22,-1
 50 41 l 2,23,24
 59 41 59 41 62.5 45.5 c 128,-1,25
 66 50 66 50 68 58 c 2,26,-1
 172 596 l 2,27,28
 173 604 173 604 169.5 609 c 128,-1,29
 166 614 166 614 153 614 c 2,30,-1
 98 618 l 1,31,-1
 98 659 l 1,32,-1
 336 659 l 2,33,34
 404 659 404 659 462 646 c 128,-1,35
 520 633 520 633 562.5 603 c 128,-1,36
 605 573 605 573 629 524.5 c 128,-1,37
 653 476 653 476 652 409 c 0,13,14
EndSplineSet
EndChar

StartChar: E
Encoding: 69 69 40
Width: 558
Flags: W
LayerCount: 2
Fore
SplineSet
549 520 m 1,0,-1
 486 520 l 1,1,-1
 486 601 l 2,2,3
 486 611 486 611 482.5 615 c 128,-1,4
 479 619 479 619 468 619 c 2,5,-1
 277 619 l 1,6,-1
 232 373 l 1,7,-1
 365 373 l 2,8,9
 375 373 375 373 380.5 377 c 128,-1,10
 386 381 386 381 389 391 c 2,11,-1
 408 457 l 1,12,-1
 463 457 l 1,13,-1
 420 228 l 1,14,-1
 363 228 l 1,15,-1
 373 299 l 2,16,17
 375 319 375 319 354 319 c 2,18,-1
 219 319 l 1,19,-1
 168 46 l 1,20,-1
 402 46 l 2,21,22
 412 46 412 46 417.5 51.5 c 128,-1,23
 423 57 423 57 425 65 c 2,24,-1
 456 161 l 1,25,-1
 517 161 l 1,26,-1
 484 -5 l 1,27,-1
 -16 -5 l 1,28,-1
 -16 36 l 1,29,-1
 42 40 l 2,30,31
 62 41 62 41 64 58 c 1,32,-1
 168 596 l 2,33,34
 169 604 169 604 165.5 609 c 128,-1,35
 162 614 162 614 150 614 c 2,36,-1
 95 618 l 1,37,-1
 95 659 l 1,38,-1
 578 659 l 1,39,-1
 549 520 l 1,0,-1
EndSplineSet
EndChar

StartChar: F
Encoding: 70 70 41
Width: 514
Flags: W
LayerCount: 2
Fore
SplineSet
538 509 m 1,0,-1
 475 509 l 1,1,-1
 475 601 l 2,2,3
 475 611 475 611 471 615 c 128,-1,4
 467 619 467 619 456 619 c 2,5,-1
 277 619 l 1,6,-1
 229 362 l 1,7,-1
 356 362 l 2,8,9
 366 362 366 362 371 366 c 128,-1,10
 376 370 376 370 378 380 c 2,11,-1
 397 448 l 1,12,-1
 454 448 l 1,13,-1
 411 220 l 1,14,-1
 354 220 l 1,15,-1
 363 289 l 2,16,17
 364 298 364 298 358.5 303 c 128,-1,18
 353 308 353 308 343 308 c 2,19,-1
 217 308 l 1,20,-1
 170 61 l 2,21,22
 169 54 169 54 172.5 49 c 128,-1,23
 176 44 176 44 188 44 c 2,24,-1
 252 40 l 1,25,-1
 252 -1 l 1,26,-1
 -15 -1 l 1,27,-1
 -15 40 l 1,28,-1
 42 44 l 2,29,30
 62 45 62 45 66 62 c 2,31,-1
 170 600 l 2,32,33
 171 608 171 608 167.5 613 c 128,-1,34
 164 618 164 618 151 618 c 2,35,-1
 96 622 l 1,36,-1
 96 663 l 1,37,-1
 569 663 l 1,38,-1
 538 509 l 1,0,-1
EndSplineSet
EndChar

StartChar: G
Encoding: 71 71 42
Width: 687
Flags: W
LayerCount: 2
Fore
SplineSet
618 276 m 2,0,1
 609 276 609 276 602.5 272 c 128,-1,2
 596 268 596 268 594 259 c 2,3,-1
 550 25 l 1,4,5
 546 24 546 24 534 21 c 128,-1,6
 522 18 522 18 505 14 c 128,-1,7
 488 10 488 10 467.5 5.5 c 128,-1,8
 447 1 447 1 425 -3 c 128,-1,9
 403 -7 403 -7 380.5 -9 c 128,-1,10
 358 -11 358 -11 338 -11 c 0,11,12
 281 -11 281 -11 238 2 c 128,-1,13
 195 15 195 15 164 37 c 128,-1,14
 133 59 133 59 112.5 88 c 128,-1,15
 92 117 92 117 79.5 148.5 c 128,-1,16
 67 180 67 180 62 211.5 c 128,-1,17
 57 243 57 243 57 270 c 0,18,19
 57 333 57 333 74 388.5 c 128,-1,20
 91 444 91 444 121 490.5 c 128,-1,21
 151 537 151 537 191.5 573 c 128,-1,22
 232 609 232 609 280 634 c 128,-1,23
 328 659 328 659 380.5 672 c 128,-1,24
 433 685 433 685 486 685 c 0,25,26
 510 685 510 685 531 683.5 c 128,-1,27
 552 682 552 682 573 678 c 128,-1,28
 594 674 594 674 617.5 667.5 c 128,-1,29
 641 661 641 661 669 653 c 1,30,-1
 638 493 l 1,31,-1
 571 493 l 1,32,-1
 573 584 l 2,33,34
 573 595 573 595 568 602 c 128,-1,35
 563 609 563 609 554 611 c 0,36,37
 553 611 553 611 547 614 c 128,-1,38
 541 617 541 617 531 620.5 c 128,-1,39
 521 624 521 624 506.5 626.5 c 128,-1,40
 492 629 492 629 474 629 c 0,41,42
 437 629 437 629 400 617 c 128,-1,43
 363 605 363 605 329 582.5 c 128,-1,44
 295 560 295 560 265.5 527 c 128,-1,45
 236 494 236 494 214.5 452 c 128,-1,46
 193 410 193 410 181 359.5 c 128,-1,47
 169 309 169 309 169 252 c 0,48,49
 169 212 169 212 178 181 c 128,-1,50
 187 150 187 150 202.5 126.5 c 128,-1,51
 218 103 218 103 238 86.5 c 128,-1,52
 258 70 258 70 279 60 c 128,-1,53
 300 50 300 50 321 45.5 c 128,-1,54
 342 41 342 41 360 41 c 0,55,56
 375 41 375 41 390 42.5 c 128,-1,57
 405 44 405 44 418.5 46.5 c 128,-1,58
 432 49 432 49 442.5 51.5 c 128,-1,59
 453 54 453 54 458 55 c 1,60,-1
 497 258 l 2,61,62
 498 266 498 266 494.5 270.5 c 128,-1,63
 491 275 491 275 478 275 c 1,64,-1
 423 280 l 1,65,-1
 423 321 l 1,66,-1
 680 321 l 1,67,-1
 680 280 l 1,68,-1
 618 276 l 2,0,1
EndSplineSet
EndChar

StartChar: H
Encoding: 72 72 43
Width: 725
Flags: W
LayerCount: 2
Fore
SplineSet
708 624 m 2,0,1
 699 624 699 624 693 619.5 c 128,-1,2
 687 615 687 615 685 606 c 2,3,-1
 581 68 l 2,4,5
 580 61 580 61 583.5 56 c 128,-1,6
 587 51 587 51 600 51 c 2,7,-1
 656 47 l 1,8,-1
 656 6 l 1,9,-1
 395 6 l 1,10,-1
 395 47 l 1,11,-1
 455 51 l 2,12,13
 463 51 463 51 469.5 55.5 c 128,-1,14
 476 60 476 60 477 68 c 2,15,-1
 526 328 l 1,16,-1
 214 328 l 1,17,-1
 165 68 l 2,18,19
 164 61 164 61 167.5 56 c 128,-1,20
 171 51 171 51 183 51 c 2,21,-1
 241 47 l 1,22,-1
 241 6 l 1,23,-1
 -19 6 l 1,24,-1
 -19 47 l 1,25,-1
 38 51 l 2,26,27
 58 52 58 52 62 69 c 2,28,-1
 166 607 l 2,29,30
 167 615 167 615 163.5 620 c 128,-1,31
 160 625 160 625 147 625 c 2,32,-1
 92 629 l 1,33,-1
 92 670 l 1,34,-1
 351 670 l 1,35,-1
 351 629 l 1,36,-1
 292 625 l 2,37,38
 284 625 284 625 277.5 620.5 c 128,-1,39
 271 616 271 616 270 607 c 2,40,-1
 227 379 l 1,41,-1
 539 379 l 1,42,-1
 582 607 l 2,43,44
 583 615 583 615 579.5 620 c 128,-1,45
 576 625 576 625 563 625 c 2,46,-1
 506 629 l 1,47,-1
 506 670 l 1,48,-1
 766 670 l 1,49,-1
 766 629 l 1,50,-1
 708 624 l 2,0,1
EndSplineSet
EndChar

StartChar: I
Encoding: 73 73 44
Width: 313
Flags: W
LayerCount: 2
Fore
SplineSet
291 624 m 2,0,1
 282 624 282 624 278.5 619.5 c 128,-1,2
 275 615 275 615 273 606 c 2,3,-1
 169 68 l 2,4,5
 168 61 168 61 171.5 56 c 128,-1,6
 175 51 175 51 188 51 c 2,7,-1
 246 47 l 1,8,-1
 246 6 l 1,9,-1
 -15 6 l 1,10,-1
 -15 47 l 1,11,-1
 47 51 l 2,12,13
 56 51 56 51 60 55.5 c 128,-1,14
 64 60 64 60 65 68 c 2,15,-1
 169 606 l 2,16,17
 170 614 170 614 166.5 619 c 128,-1,18
 163 624 163 624 151 624 c 2,19,-1
 96 628 l 1,20,-1
 96 669 l 1,21,-1
 355 669 l 1,22,-1
 355 628 l 1,23,-1
 291 624 l 2,0,1
EndSplineSet
EndChar

StartChar: J
Encoding: 74 74 45
Width: 467
Flags: W
LayerCount: 2
Fore
SplineSet
450 624 m 1,0,1
 430 623 430 623 426 605 c 2,2,-1
 363 257 l 2,3,4
 352 195 352 195 336 145 c 128,-1,5
 320 95 320 95 292.5 60 c 128,-1,6
 265 25 265 25 222.5 6 c 128,-1,7
 180 -13 180 -13 116 -13 c 0,8,9
 87 -13 87 -13 64.5 -9.5 c 128,-1,10
 42 -6 42 -6 26 -1 c 128,-1,11
 10 4 10 4 0 9 c 128,-1,12
 -10 14 -10 14 -13 15 c 1,13,-1
 20 185 l 1,14,-1
 85 185 l 1,15,-1
 85 63 l 2,16,17
 85 51 85 51 97 44 c 128,-1,18
 109 37 109 37 124 37 c 0,19,20
 155 37 155 37 177 51 c 128,-1,21
 199 65 199 65 214.5 91.5 c 128,-1,22
 230 118 230 118 240.5 157 c 128,-1,23
 251 196 251 196 259 246 c 1,24,-1
 325 602 l 2,25,26
 326 610 326 610 322.5 615 c 128,-1,27
 319 620 319 620 307 620 c 2,28,-1
 249 624 l 1,29,-1
 249 665 l 1,30,-1
 508 665 l 1,31,-1
 508 624 l 1,32,-1
 450 624 l 1,0,1
EndSplineSet
EndChar

StartChar: K
Encoding: 75 75 46
Width: 655
Flags: W
LayerCount: 2
Fore
SplineSet
607 621 m 1,0,-1
 346 369 l 1,1,-1
 484 100 l 2,2,3
 493 82 493 82 501.5 71 c 128,-1,4
 510 60 510 60 519 53.5 c 128,-1,5
 528 47 528 47 538 45 c 128,-1,6
 548 43 548 43 561 43 c 0,7,8
 570 43 570 43 580 43 c 128,-1,9
 590 43 590 43 602 43 c 1,10,-1
 602 2 l 1,11,12
 579 -4 579 -4 554 -8.5 c 128,-1,13
 529 -13 529 -13 510 -13 c 0,14,15
 489 -13 489 -13 473 -10 c 128,-1,16
 457 -7 457 -7 443.5 1.5 c 128,-1,17
 430 10 430 10 419 24 c 128,-1,18
 408 38 408 38 397 59 c 2,19,-1
 274 295 l 1,20,-1
 213 295 l 1,21,-1
 169 66 l 2,22,23
 168 59 168 59 172 54 c 128,-1,24
 176 49 176 49 188 49 c 2,25,-1
 246 45 l 1,26,-1
 246 4 l 1,27,-1
 -15 4 l 1,28,-1
 -15 45 l 1,29,-1
 43 49 l 2,30,31
 63 50 63 50 65 67 c 1,32,-1
 169 605 l 2,33,34
 170 613 170 613 166.5 618 c 128,-1,35
 163 623 163 623 151 623 c 2,36,-1
 96 627 l 1,37,-1
 96 668 l 1,38,-1
 355 668 l 1,39,-1
 355 627 l 1,40,-1
 296 623 l 2,41,42
 287 623 287 623 281 618.5 c 128,-1,43
 275 614 275 614 273 605 c 2,44,-1
 223 343 l 1,45,-1
 239 343 l 1,46,-1
 505 605 l 2,47,48
 511 610 511 610 510 616.5 c 128,-1,49
 509 623 509 623 499 623 c 2,50,-1
 436 627 l 1,51,-1
 436 668 l 1,52,-1
 694 668 l 1,53,-1
 694 627 l 1,54,-1
 607 621 l 1,0,-1
EndSplineSet
EndChar

StartChar: L
Encoding: 76 76 47
Width: 518
Flags: W
LayerCount: 2
Fore
SplineSet
446 0 m 1,0,-1
 -15 0 l 1,1,-1
 -15 41 l 1,2,-1
 43 45 l 2,3,4
 63 46 63 46 65 63 c 1,5,-1
 169 601 l 2,6,7
 170 609 170 609 166.5 614 c 128,-1,8
 163 619 163 619 151 619 c 2,9,-1
 96 623 l 1,10,-1
 96 664 l 1,11,-1
 355 664 l 1,12,-1
 355 623 l 1,13,-1
 296 619 l 2,14,15
 285 619 285 619 279 613.5 c 128,-1,16
 273 608 273 608 272 601 c 2,17,-1
 167 47 l 1,18,-1
 363 47 l 2,19,20
 372 47 372 47 378 52.5 c 128,-1,21
 384 58 384 58 387 66 c 2,22,-1
 422 181 l 1,23,-1
 481 181 l 1,24,-1
 446 0 l 1,0,-1
EndSplineSet
EndChar

StartChar: M
Encoding: 77 77 48
Width: 861
Flags: W
LayerCount: 2
Fore
SplineSet
846 624 m 2,0,1
 826 623 826 623 822 605 c 2,2,-1
 719 67 l 2,3,4
 718 60 718 60 722 55 c 128,-1,5
 726 50 726 50 739 50 c 2,6,-1
 795 46 l 1,7,-1
 795 5 l 1,8,-1
 536 5 l 1,9,-1
 536 46 l 1,10,-1
 594 50 l 2,11,12
 603 50 603 50 609.5 54.5 c 128,-1,13
 616 59 616 59 617 67 c 2,14,-1
 713 574 l 1,15,-1
 393 1 l 1,16,-1
 333 1 l 1,17,-1
 233 568 l 1,18,-1
 141 67 l 2,19,20
 140 60 140 60 143.5 55 c 128,-1,21
 147 50 147 50 159 50 c 2,22,-1
 214 46 l 1,23,-1
 214 5 l 1,24,-1
 -15 5 l 1,25,-1
 -15 46 l 1,26,-1
 42 50 l 2,27,28
 62 51 62 51 66 68 c 2,29,-1
 169 606 l 2,30,31
 170 614 170 614 166.5 619 c 128,-1,32
 163 624 163 624 150 624 c 2,33,-1
 95 628 l 1,34,-1
 95 669 l 1,35,-1
 318 669 l 1,36,-1
 318 642 l 1,37,-1
 403 159 l 1,38,-1
 670 638 l 1,39,-1
 670 670 l 1,40,-1
 900 670 l 1,41,-1
 900 629 l 1,42,-1
 846 624 l 2,0,1
EndSplineSet
EndChar

StartChar: N
Encoding: 78 78 49
Width: 710
Flags: W
LayerCount: 2
Fore
SplineSet
698 624 m 2,0,1
 689 624 689 624 682.5 619.5 c 128,-1,2
 676 615 676 615 674 606 c 2,3,-1
 557 2 l 1,4,-1
 485 2 l 1,5,-1
 234 532 l 1,6,-1
 146 68 l 2,7,8
 145 61 145 61 148.5 56 c 128,-1,9
 152 51 152 51 165 51 c 2,10,-1
 220 47 l 1,11,-1
 220 6 l 1,12,-1
 -11 6 l 1,13,-1
 -11 47 l 1,14,-1
 46 51 l 2,15,16
 66 52 66 52 70 69 c 2,17,-1
 173 607 l 2,18,19
 174 615 174 615 170.5 620 c 128,-1,20
 167 625 167 625 155 625 c 2,21,-1
 100 629 l 1,22,-1
 100 670 l 1,23,-1
 292 670 l 1,24,-1
 292 645 l 1,25,-1
 517 168 l 1,26,-1
 601 604 l 2,27,28
 602 612 602 612 598.5 617 c 128,-1,29
 595 622 595 622 583 622 c 2,30,-1
 526 626 l 1,31,-1
 526 667 l 1,32,-1
 757 667 l 1,33,-1
 757 626 l 1,34,-1
 698 624 l 2,0,1
EndSplineSet
EndChar

StartChar: O
Encoding: 79 79 50
Width: 709
Flags: W
LayerCount: 2
Fore
SplineSet
577 416 m 0,0,1
 577 465 577 465 565 505.5 c 128,-1,2
 553 546 553 546 531 575 c 128,-1,3
 509 604 509 604 478.5 619.5 c 128,-1,4
 448 635 448 635 413 635 c 0,5,6
 377 635 377 635 344.5 619 c 128,-1,7
 312 603 312 603 284.5 575.5 c 128,-1,8
 257 548 257 548 235 511 c 128,-1,9
 213 474 213 474 197.5 432 c 128,-1,10
 182 390 182 390 174 344.5 c 128,-1,11
 166 299 166 299 166 255 c 0,12,13
 166 205 166 205 178.5 165 c 128,-1,14
 191 125 191 125 213 97 c 128,-1,15
 235 69 235 69 265 54 c 128,-1,16
 295 39 295 39 330 39 c 0,17,18
 366 39 366 39 398.5 55 c 128,-1,19
 431 71 431 71 458.5 99 c 128,-1,20
 486 127 486 127 508 164 c 128,-1,21
 530 201 530 201 545.5 243 c 128,-1,22
 561 285 561 285 569 329.5 c 128,-1,23
 577 374 577 374 577 416 c 0,0,1
690 416 m 0,24,25
 690 364 690 364 679 312 c 128,-1,26
 668 260 668 260 647 212 c 128,-1,27
 626 164 626 164 594.5 123 c 128,-1,28
 563 82 563 82 522 51.5 c 128,-1,29
 481 21 481 21 430.5 4 c 128,-1,30
 380 -13 380 -13 322 -13 c 0,31,32
 262 -13 262 -13 212.5 6.5 c 128,-1,33
 163 26 163 26 127 62.5 c 128,-1,34
 91 99 91 99 71 150 c 128,-1,35
 51 201 51 201 51 263 c 0,36,37
 51 316 51 316 63 368 c 128,-1,38
 75 420 75 420 98 467 c 128,-1,39
 121 514 121 514 153.5 554 c 128,-1,40
 186 594 186 594 227 623 c 128,-1,41
 268 652 268 652 317 668.5 c 128,-1,42
 366 685 366 685 420 685 c 0,43,44
 482 685 482 685 532 664 c 128,-1,45
 582 643 582 643 617 606.5 c 128,-1,46
 652 570 652 570 671 521 c 128,-1,47
 690 472 690 472 690 416 c 0,24,25
EndSplineSet
EndChar

StartChar: P
Encoding: 80 80 51
Width: 565
Flags: W
LayerCount: 2
Fore
SplineSet
466 494 m 0,0,1
 466 522 466 522 458 545.5 c 128,-1,2
 450 569 450 569 432 586 c 128,-1,3
 414 603 414 603 384.5 612.5 c 128,-1,4
 355 622 355 622 313 622 c 0,5,6
 304 622 304 622 294 622 c 128,-1,7
 284 622 284 622 277 622 c 1,8,-1
 215 305 l 1,9,10
 236 304 236 304 258 304.5 c 128,-1,11
 280 305 280 305 301 308.5 c 128,-1,12
 322 312 322 312 342 319 c 128,-1,13
 362 326 362 326 379 336 c 0,14,15
 398 347 398 347 414 362 c 128,-1,16
 430 377 430 377 441.5 396.5 c 128,-1,17
 453 416 453 416 459.5 440 c 128,-1,18
 466 464 466 464 466 494 c 0,0,1
570 510 m 1,19,20
 570 450 570 450 547.5 402 c 128,-1,21
 525 354 525 354 484.5 320.5 c 128,-1,22
 444 287 444 287 388.5 269 c 128,-1,23
 333 251 333 251 268 251 c 0,24,25
 261 251 261 251 250.5 251 c 128,-1,26
 240 251 240 251 231 251 c 0,27,28
 220 251 220 251 208 251 c 1,29,-1
 171 65 l 2,30,31
 170 58 170 58 173.5 53 c 128,-1,32
 177 48 177 48 190 48 c 2,33,-1
 247 44 l 1,34,-1
 247 3 l 1,35,-1
 -13 3 l 1,36,-1
 -13 44 l 1,37,-1
 45 48 l 2,38,39
 64 49 64 49 68 66 c 2,40,-1
 172 604 l 2,41,42
 173 612 173 612 169.5 617 c 128,-1,43
 166 622 166 622 153 622 c 2,44,-1
 98 626 l 1,45,-1
 98 667 l 1,46,-1
 346 667 l 2,47,48
 407 667 407 667 450 655.5 c 128,-1,49
 493 644 493 644 520.5 623 c 128,-1,50
 548 602 548 602 560 573 c 128,-1,51
 572 544 572 544 570 510 c 1,19,20
EndSplineSet
EndChar

StartChar: Q
Encoding: 81 81 52
Width: 709
Flags: W
LayerCount: 2
Fore
SplineSet
577 417 m 1,0,1
 577 464 577 464 565.5 504 c 128,-1,2
 554 544 554 544 533 573 c 128,-1,3
 512 602 512 602 482.5 618 c 128,-1,4
 453 634 453 634 417 634 c 0,5,6
 380 634 380 634 346.5 619 c 128,-1,7
 313 604 313 604 284.5 577.5 c 128,-1,8
 256 551 256 551 233 514.5 c 128,-1,9
 210 478 210 478 194 436 c 128,-1,10
 178 394 178 394 169.5 348 c 128,-1,11
 161 302 161 302 161 256 c 256,12,13
 161 210 161 210 172.5 170.5 c 128,-1,14
 184 131 184 131 205.5 102.5 c 128,-1,15
 227 74 227 74 258 58 c 128,-1,16
 289 42 289 42 328 42 c 0,17,18
 363 42 363 42 395 58 c 128,-1,19
 427 74 427 74 455 101.5 c 128,-1,20
 483 129 483 129 505 166 c 128,-1,21
 527 203 527 203 543 245 c 128,-1,22
 559 287 559 287 567.5 332 c 128,-1,23
 576 377 576 377 577 417 c 1,0,1
721 -108 m 1,24,25
 716 -110 716 -110 699 -118 c 128,-1,26
 682 -126 682 -126 658.5 -134 c 128,-1,27
 635 -142 635 -142 608 -148.5 c 128,-1,28
 581 -155 581 -155 555 -155 c 0,29,30
 517 -155 517 -155 488.5 -144 c 128,-1,31
 460 -133 460 -133 438.5 -113 c 128,-1,32
 417 -93 417 -93 401 -66.5 c 128,-1,33
 385 -40 385 -40 372 -9 c 1,34,35
 361 -9 361 -9 348 -10 c 128,-1,36
 335 -11 335 -11 323 -11 c 0,37,38
 268 -11 268 -11 219 7 c 128,-1,39
 170 25 170 25 133.5 60 c 128,-1,40
 97 95 97 95 75.5 146 c 128,-1,41
 54 197 54 197 54 262 c 0,42,43
 54 313 54 313 66 364.5 c 128,-1,44
 78 416 78 416 101 463.5 c 128,-1,45
 124 511 124 511 157 552 c 128,-1,46
 190 593 190 593 231.5 623 c 128,-1,47
 273 653 273 653 322.5 670 c 128,-1,48
 372 687 372 687 427 687 c 0,49,50
 488 687 488 687 537.5 666.5 c 128,-1,51
 587 646 587 646 622 610 c 128,-1,52
 657 574 657 574 676 525 c 128,-1,53
 695 476 695 476 695 419 c 0,54,55
 695 393 695 393 692 360.5 c 128,-1,56
 689 328 689 328 680.5 293 c 128,-1,57
 672 258 672 258 656.5 221.5 c 128,-1,58
 641 185 641 185 617 150 c 128,-1,59
 593 115 593 115 559 83 c 128,-1,60
 525 51 525 51 480 25 c 1,61,62
 495 -2 495 -2 508.5 -24 c 128,-1,63
 522 -46 522 -46 537.5 -62 c 128,-1,64
 553 -78 553 -78 571.5 -86.5 c 128,-1,65
 590 -95 590 -95 614 -95 c 0,66,67
 628 -95 628 -95 643 -92 c 128,-1,68
 658 -89 658 -89 673 -84.5 c 128,-1,69
 688 -80 688 -80 701.5 -74.5 c 128,-1,70
 715 -69 715 -69 726 -64 c 1,71,-1
 721 -108 l 1,24,25
EndSplineSet
EndChar

StartChar: R
Encoding: 82 82 53
Width: 641
Flags: W
LayerCount: 2
Fore
SplineSet
467 508 m 1,0,1
 467 544 467 544 451.5 566 c 128,-1,2
 436 588 436 588 411.5 600 c 128,-1,3
 387 612 387 612 357 615.5 c 128,-1,4
 327 619 327 619 299 619 c 0,5,6
 296 619 296 619 289.5 619 c 128,-1,7
 283 619 283 619 279 619 c 1,8,-1
 229 347 l 1,9,-1
 250 347 l 2,10,11
 290 347 290 347 329.5 354 c 128,-1,12
 369 361 369 361 400 379.5 c 128,-1,13
 431 398 431 398 450.5 429 c 128,-1,14
 470 460 470 460 467 508 c 1,0,1
617 0 m 1,15,16
 597 -9 597 -9 579.5 -12 c 128,-1,17
 562 -15 562 -15 545 -15 c 0,18,19
 500 -15 500 -15 472.5 -0.5 c 128,-1,20
 445 14 445 14 429.5 37 c 128,-1,21
 414 60 414 60 406.5 88.5 c 128,-1,22
 399 117 399 117 394 144 c 256,23,24
 389 171 389 171 382 198 c 128,-1,25
 375 225 375 225 362.5 246 c 128,-1,26
 350 267 350 267 329 280 c 128,-1,27
 308 293 308 293 273 293 c 0,28,29
 267 293 267 293 258.5 293 c 128,-1,30
 250 293 250 293 242 293 c 0,31,32
 233 293 233 293 223 293 c 1,33,-1
 181 64 l 2,34,35
 180 57 180 57 183.5 52 c 128,-1,36
 187 47 187 47 199 47 c 2,37,-1
 257 43 l 1,38,-1
 257 2 l 1,39,-1
 -3 2 l 1,40,-1
 -3 43 l 1,41,-1
 54 47 l 2,42,43
 74 48 74 48 78 65 c 2,44,-1
 180 603 l 2,45,46
 181 611 181 611 177.5 616 c 128,-1,47
 174 621 174 621 162 621 c 2,48,-1
 107 625 l 1,49,-1
 107 666 l 1,50,-1
 374 666 l 2,51,52
 415 666 415 666 454 659.5 c 128,-1,53
 493 653 493 653 523 636 c 128,-1,54
 553 619 553 619 571 590.5 c 128,-1,55
 589 562 589 562 589 520 c 0,56,57
 589 480 589 480 573 447.5 c 128,-1,58
 557 415 557 415 529.5 389.5 c 128,-1,59
 502 364 502 364 465 345.5 c 128,-1,60
 428 327 428 327 387 316 c 1,61,62
 417 303 417 303 435 287 c 128,-1,63
 453 271 453 271 464 251 c 128,-1,64
 475 231 475 231 481 207 c 128,-1,65
 487 183 487 183 494 155 c 0,66,67
 501 128 501 128 509.5 107 c 128,-1,68
 518 86 518 86 532 72 c 128,-1,69
 546 58 546 58 567 51 c 128,-1,70
 588 44 588 44 620 44 c 1,71,-1
 617 0 l 1,15,16
EndSplineSet
EndChar

StartChar: S
Encoding: 83 83 54
Width: 520
Flags: W
LayerCount: 2
Fore
SplineSet
480 498 m 1,0,-1
 421 498 l 1,1,-1
 424 599 l 2,2,3
 424 603 424 603 417 609.5 c 128,-1,4
 410 616 410 616 398 622 c 128,-1,5
 386 628 386 628 370 632 c 128,-1,6
 354 636 354 636 336 636 c 0,7,8
 308 636 308 636 281 626 c 128,-1,9
 254 616 254 616 233.5 598 c 128,-1,10
 213 580 213 580 201 555 c 128,-1,11
 189 530 189 530 189 501 c 0,12,13
 189 475 189 475 203.5 455 c 128,-1,14
 218 435 218 435 239 419.5 c 128,-1,15
 260 404 260 404 284 392.5 c 128,-1,16
 308 381 308 381 328 372 c 0,17,18
 354 359 354 359 379 344 c 128,-1,19
 404 329 404 329 423.5 310 c 128,-1,20
 443 291 443 291 454.5 266.5 c 128,-1,21
 466 242 466 242 466 210 c 0,22,23
 466 174 466 174 451.5 135 c 128,-1,24
 437 96 437 96 404 64 c 128,-1,25
 371 32 371 32 318.5 11.5 c 128,-1,26
 266 -9 266 -9 190 -9 c 0,27,28
 152 -9 152 -9 119.5 -2 c 128,-1,29
 87 5 87 5 62 14 c 128,-1,30
 37 23 37 23 21 31.5 c 128,-1,31
 5 40 5 40 0 42 c 1,32,-1
 33 202 l 1,33,-1
 101 202 l 1,34,-1
 90 88 l 2,35,36
 90 83 90 83 97 77.5 c 128,-1,37
 104 72 104 72 115.5 67 c 128,-1,38
 127 62 127 62 141 58 c 128,-1,39
 155 54 155 54 167.5 51 c 128,-1,40
 180 48 180 48 190 46.5 c 128,-1,41
 200 45 200 45 203 45 c 0,42,43
 235 45 235 45 264 55 c 128,-1,44
 293 65 293 65 315 83.5 c 128,-1,45
 337 102 337 102 350 129 c 128,-1,46
 363 156 363 156 363 190 c 0,47,48
 363 215 363 215 348.5 234.5 c 128,-1,49
 334 254 334 254 312.5 269.5 c 128,-1,50
 291 285 291 285 267 296.5 c 128,-1,51
 243 308 243 308 225 317 c 0,52,53
 199 330 199 330 174.5 344.5 c 128,-1,54
 150 359 150 359 131 377 c 128,-1,55
 112 395 112 395 100.5 417.5 c 128,-1,56
 89 440 89 440 89 469 c 0,57,58
 89 518 89 518 108.5 558.5 c 128,-1,59
 128 599 128 599 162.5 627.5 c 128,-1,60
 197 656 197 656 244.5 671.5 c 128,-1,61
 292 687 292 687 348 687 c 0,62,63
 381 687 381 687 409.5 682.5 c 128,-1,64
 438 678 438 678 459.5 672 c 128,-1,65
 481 666 481 666 495 660.5 c 128,-1,66
 509 655 509 655 513 653 c 1,67,-1
 480 498 l 1,0,-1
EndSplineSet
EndChar

StartChar: T
Encoding: 84 84 55
Width: 585
Flags: W
LayerCount: 2
Fore
SplineSet
618 518 m 1,0,-1
 556 518 l 1,1,-1
 559 605 l 2,2,3
 560 625 560 625 540 625 c 2,4,-1
 412 625 l 1,5,-1
 308 65 l 2,6,7
 307 58 307 58 310.5 53 c 128,-1,8
 314 48 314 48 327 48 c 2,9,-1
 383 44 l 1,10,-1
 383 3 l 1,11,-1
 124 3 l 1,12,-1
 124 44 l 1,13,-1
 182 48 l 2,14,15
 190 48 190 48 196.5 52.5 c 128,-1,16
 203 57 203 57 204 65 c 2,17,-1
 308 625 l 1,18,-1
 183 625 l 2,19,20
 164 625 164 625 159 605 c 1,21,-1
 128 518 l 1,22,-1
 66 518 l 1,23,-1
 95 670 l 1,24,-1
 648 670 l 1,25,-1
 618 518 l 1,0,-1
EndSplineSet
EndChar

StartChar: U
Encoding: 85 85 56
Width: 707
Flags: W
LayerCount: 2
Fore
SplineSet
690 624 m 2,0,1
 682 624 682 624 675.5 619.5 c 128,-1,2
 669 615 669 615 668 606 c 2,3,-1
 591 216 l 2,4,5
 581 162 581 162 559 119.5 c 128,-1,6
 537 77 537 77 502.5 47.5 c 128,-1,7
 468 18 468 18 421 2.5 c 128,-1,8
 374 -13 374 -13 315 -13 c 0,9,10
 269 -13 269 -13 229.5 -3.5 c 128,-1,11
 190 6 190 6 160.5 26.5 c 128,-1,12
 131 47 131 47 114.5 80 c 128,-1,13
 98 113 98 113 98 160 c 0,14,15
 98 175 98 175 101 202 c 128,-1,16
 104 229 104 229 110 264 c 1,17,-1
 179 603 l 2,18,19
 180 611 180 611 176.5 616 c 128,-1,20
 173 621 173 621 160 621 c 2,21,-1
 105 625 l 1,22,-1
 105 666 l 1,23,-1
 364 666 l 1,24,-1
 364 625 l 1,25,-1
 305 621 l 2,26,27
 297 621 297 621 290.5 616.5 c 128,-1,28
 284 612 284 612 283 603 c 2,29,-1
 215 264 l 2,30,31
 210 235 210 235 207.5 212 c 128,-1,32
 205 189 205 189 205 176 c 0,33,34
 205 145 205 145 215 122 c 128,-1,35
 225 99 225 99 243 83.5 c 128,-1,36
 261 68 261 68 287 60.5 c 128,-1,37
 313 53 313 53 345 53 c 0,38,39
 393 53 393 53 425.5 69 c 128,-1,40
 458 85 458 85 479.5 112 c 128,-1,41
 501 139 501 139 513.5 175 c 128,-1,42
 526 211 526 211 533 251 c 2,43,-1
 603 605 l 2,44,45
 604 613 604 613 600.5 618 c 128,-1,46
 597 623 597 623 584 623 c 2,47,-1
 528 627 l 1,48,-1
 528 668 l 1,49,-1
 754 668 l 1,50,-1
 754 627 l 1,51,-1
 690 624 l 2,0,1
EndSplineSet
EndChar

StartChar: V
Encoding: 86 86 57
Width: 643
Flags: W
LayerCount: 2
Fore
SplineSet
663 623 m 1,0,-1
 318 -16 l 1,1,-1
 243 -16 l 1,2,-1
 146 607 l 2,3,4
 145 616 145 616 139 620.5 c 128,-1,5
 133 625 133 625 124 625 c 2,6,-1
 86 626 l 1,7,-1
 86 667 l 1,8,-1
 313 667 l 1,9,-1
 313 626 l 1,10,-1
 271 625 l 2,11,12
 260 625 260 625 255 621 c 128,-1,13
 250 617 250 617 251 607 c 2,14,-1
 325 124 l 1,15,-1
 579 607 l 2,16,17
 582 614 582 614 580 619.5 c 128,-1,18
 578 625 578 625 564 625 c 2,19,-1
 516 626 l 1,20,-1
 516 667 l 1,21,-1
 719 667 l 1,22,-1
 719 626 l 1,23,-1
 663 623 l 1,0,-1
EndSplineSet
EndChar

StartChar: W
Encoding: 87 87 58
Width: 926
Flags: W
LayerCount: 2
Fore
SplineSet
940 623 m 1,0,-1
 641 -16 l 1,1,-1
 578 -16 l 1,2,-1
 520 518 l 1,3,-1
 270 -16 l 1,4,-1
 201 -16 l 1,5,-1
 151 607 l 2,6,7
 151 616 151 616 146 620.5 c 128,-1,8
 141 625 141 625 129 625 c 2,9,-1
 88 626 l 1,10,-1
 88 667 l 1,11,-1
 318 667 l 1,12,-1
 318 626 l 1,13,-1
 275 625 l 2,14,15
 264 625 264 625 260 620.5 c 128,-1,16
 256 616 256 616 256 607 c 2,17,-1
 291 173 l 1,18,-1
 525 671 l 1,19,-1
 606 671 l 1,20,-1
 656 167 l 1,21,-1
 859 607 l 2,22,23
 867 625 867 625 840 626 c 2,24,-1
 796 627 l 1,25,-1
 796 668 l 1,26,-1
 1004 668 l 1,27,-1
 1004 627 l 1,28,-1
 940 623 l 1,0,-1
EndSplineSet
EndChar

StartChar: X
Encoding: 88 88 59
Width: 632
Flags: W
LayerCount: 2
Fore
SplineSet
618 625 m 2,0,1
 611 625 611 625 604.5 620 c 128,-1,2
 598 615 598 615 596 612 c 2,3,-1
 376 362 l 1,4,-1
 506 64 l 2,5,6
 510 55 510 55 514.5 53 c 128,-1,7
 519 51 519 51 524 51 c 2,8,-1
 578 48 l 1,9,-1
 578 7 l 1,10,-1
 320 7 l 1,11,-1
 320 48 l 1,12,-1
 383 51 l 2,13,14
 391 51 391 51 395.5 56.5 c 128,-1,15
 400 62 400 62 397 69 c 2,16,-1
 308 278 l 1,17,-1
 120 69 l 1,18,19
 114 64 114 64 115 57.5 c 128,-1,20
 116 51 116 51 128 51 c 2,21,-1
 188 48 l 1,22,-1
 188 7 l 1,23,-1
 -44 7 l 1,24,-1
 -44 48 l 1,25,-1
 3 51 l 2,26,27
 11 51 11 51 17 56 c 128,-1,28
 23 61 23 61 25 64 c 2,29,-1
 274 342 l 1,30,-1
 155 612 l 2,31,32
 152 621 152 621 147.5 623 c 128,-1,33
 143 625 143 625 138 625 c 2,34,-1
 83 628 l 1,35,-1
 83 669 l 1,36,-1
 342 669 l 1,37,-1
 342 628 l 1,38,-1
 278 625 l 2,39,40
 270 625 270 625 265.5 619.5 c 128,-1,41
 261 614 261 614 264 607 c 2,42,-1
 346 420 l 1,43,-1
 509 607 l 2,44,45
 514 612 514 612 513.5 618.5 c 128,-1,46
 513 625 513 625 501 625 c 2,47,-1
 454 628 l 1,48,-1
 454 669 l 1,49,-1
 680 669 l 1,50,-1
 680 628 l 1,51,-1
 618 625 l 2,0,1
EndSplineSet
EndChar

StartChar: Y
Encoding: 89 89 60
Width: 639
Flags: W
LayerCount: 2
Fore
SplineSet
654 625 m 2,0,1
 647 625 647 625 640 620 c 128,-1,2
 633 615 633 615 630 612 c 2,3,-1
 377 283 l 1,4,-1
 336 69 l 2,5,6
 334 62 334 62 338 57 c 128,-1,7
 342 52 342 52 354 52 c 2,8,-1
 410 48 l 1,9,-1
 410 7 l 1,10,-1
 150 7 l 1,11,-1
 150 48 l 1,12,-1
 208 52 l 2,13,14
 216 52 216 52 222 56.5 c 128,-1,15
 228 61 228 61 230 69 c 2,16,-1
 271 275 l 1,17,-1
 160 612 l 2,18,19
 157 621 157 621 152 623 c 128,-1,20
 147 625 147 625 142 625 c 2,21,-1
 86 628 l 1,22,-1
 86 669 l 1,23,-1
 344 669 l 1,24,-1
 344 628 l 1,25,-1
 281 625 l 2,26,27
 273 625 273 625 269 620 c 128,-1,28
 265 615 265 615 267 607 c 2,29,-1
 349 348 l 1,30,-1
 541 607 l 2,31,32
 542 610 542 610 543 613 c 128,-1,33
 544 616 544 616 544 618.5 c 128,-1,34
 544 621 544 621 541.5 622.5 c 128,-1,35
 539 624 539 624 533 624 c 2,36,-1
 471 627 l 1,37,-1
 471 668 l 1,38,-1
 711 668 l 1,39,-1
 711 627 l 1,40,-1
 654 625 l 2,0,1
EndSplineSet
EndChar

StartChar: Z
Encoding: 90 90 61
Width: 562
Flags: W
LayerCount: 2
Fore
SplineSet
585 625 m 1,0,-1
 115 53 l 1,1,-1
 386 53 l 2,2,3
 405 53 405 53 410 73 c 2,4,-1
 439 184 l 1,5,-1
 506 184 l 1,6,-1
 472 -1 l 1,7,-1
 -23 -1 l 1,8,-1
 -15 42 l 1,9,-1
 454 617 l 1,10,-1
 221 617 l 2,11,12
 211 617 211 617 206 612.5 c 128,-1,13
 201 608 201 608 199 599 c 2,14,-1
 172 512 l 1,15,-1
 104 512 l 1,16,-1
 136 670 l 1,17,-1
 594 670 l 1,18,-1
 585 625 l 1,0,-1
EndSplineSet
EndChar

StartChar: bracketleft
Encoding: 91 91 62
Width: 420
Flags: W
LayerCount: 2
Fore
SplineSet
308 661 m 1,0,-1
 160 -85 l 1,1,-1
 312 -85 l 1,2,-1
 312 -131 l 1,3,-1
 55 -131 l 1,4,-1
 222 708 l 1,5,-1
 471 708 l 1,6,-1
 471 662 l 1,7,-1
 308 661 l 1,0,-1
EndSplineSet
EndChar

StartChar: backslash
Encoding: 92 92 63
Width: 488
Flags: W
LayerCount: 2
Fore
SplineSet
424 -92 m 1,0,-1
 0 671 l 1,1,-1
 63 671 l 1,2,-1
 487 -92 l 1,3,-1
 424 -92 l 1,0,-1
EndSplineSet
EndChar

StartChar: bracketright
Encoding: 93 93 64
Width: 420
Flags: W
LayerCount: 2
Fore
SplineSet
208 -131 m 1,0,-1
 -41 -131 l 1,1,-1
 -41 -84 l 1,2,-1
 123 -84 l 1,3,-1
 270 662 l 1,4,-1
 118 662 l 1,5,-1
 118 707 l 1,6,-1
 375 707 l 1,7,-1
 208 -131 l 1,0,-1
EndSplineSet
EndChar

StartChar: asciicircum
Encoding: 94 94 65
Width: 342
Flags: W
LayerCount: 2
Fore
SplineSet
330 550 m 1,0,-1
 248 642 l 1,1,-1
 128 550 l 1,2,-1
 59 550 l 1,3,-1
 224 719 l 1,4,-1
 302 719 l 1,5,-1
 400 550 l 1,6,-1
 330 550 l 1,0,-1
EndSplineSet
EndChar

StartChar: underscore
Encoding: 95 95 66
Width: 303
Flags: W
LayerCount: 2
Fore
SplineSet
225 -153 m 1,0,-1
 -78 -153 l 1,1,-1
 -64 -88 l 1,2,-1
 238 -88 l 1,3,-1
 225 -153 l 1,0,-1
EndSplineSet
EndChar

StartChar: grave
Encoding: 96 96 67
Width: 393
Flags: W
LayerCount: 2
Fore
SplineSet
256 550 m 1,0,-1
 111 645 l 2,1,2
 101 651 101 651 95 661 c 128,-1,3
 89 671 89 671 89 686 c 0,4,5
 89 693 89 693 91 700.5 c 128,-1,6
 93 708 93 708 98 714 c 128,-1,7
 103 720 103 720 111.5 724 c 128,-1,8
 120 728 120 728 133 728 c 0,9,10
 143 728 143 728 150.5 726.5 c 128,-1,11
 158 725 158 725 163.5 722 c 128,-1,12
 169 719 169 719 173.5 714.5 c 128,-1,13
 178 710 178 710 182 705 c 2,14,-1
 315 549 l 1,15,-1
 256 550 l 1,0,-1
EndSplineSet
EndChar

StartChar: a
Encoding: 97 97 68
Width: 520
Flags: W
LayerCount: 2
Fore
SplineSet
371 392 m 2,0,1
 371 394 371 394 367 402.5 c 128,-1,2
 363 411 363 411 357.5 420.5 c 128,-1,3
 352 430 352 430 345.5 437 c 128,-1,4
 339 444 339 444 335 444 c 0,5,6
 297 444 297 444 267 432 c 128,-1,7
 237 420 237 420 215 399 c 128,-1,8
 193 378 193 378 177.5 350.5 c 128,-1,9
 162 323 162 323 152.5 293 c 128,-1,10
 143 263 143 263 139 232.5 c 128,-1,11
 135 202 135 202 135 175 c 0,12,13
 135 155 135 155 138 134.5 c 128,-1,14
 141 114 141 114 149.5 97 c 128,-1,15
 158 80 158 80 172.5 69.5 c 128,-1,16
 187 59 187 59 210 59 c 0,17,18
 227 59 227 59 244.5 66.5 c 128,-1,19
 262 74 262 74 277 84 c 128,-1,20
 292 94 292 94 303 104 c 128,-1,21
 314 114 314 114 319 119 c 1,22,-1
 371 392 l 2,0,1
518 30 m 1,23,24
 513 28 513 28 497.5 21.5 c 128,-1,25
 482 15 482 15 463 8.5 c 128,-1,26
 444 2 444 2 424.5 -3 c 128,-1,27
 405 -8 405 -8 391 -8 c 0,28,29
 373 -8 373 -8 361 -4 c 128,-1,30
 349 0 349 0 341 8.5 c 128,-1,31
 333 17 333 17 329 29.5 c 128,-1,32
 325 42 325 42 324 58 c 1,33,34
 313 48 313 48 298 36.5 c 128,-1,35
 283 25 283 25 265 15 c 128,-1,36
 247 5 247 5 226.5 -1.5 c 128,-1,37
 206 -8 206 -8 184 -8 c 0,38,39
 155 -8 155 -8 133 0 c 128,-1,40
 111 8 111 8 95 21.5 c 128,-1,41
 79 35 79 35 69 53 c 128,-1,42
 59 71 59 71 53 90.5 c 128,-1,43
 47 110 47 110 45 130 c 128,-1,44
 43 150 43 150 43 168 c 0,45,46
 43 206 43 206 51 245 c 128,-1,47
 59 284 59 284 75 320 c 128,-1,48
 91 356 91 356 115 387.5 c 128,-1,49
 139 419 139 419 170.5 442 c 128,-1,50
 202 465 202 465 241 478 c 128,-1,51
 280 491 280 491 326 491 c 0,52,53
 339 491 339 491 352 488 c 128,-1,54
 365 485 365 485 376.5 480 c 128,-1,55
 388 475 388 475 397.5 469 c 128,-1,56
 407 463 407 463 413 457 c 1,57,-1
 427 480 l 1,58,-1
 495 480 l 1,59,60
 493 475 493 475 490.5 467 c 128,-1,61
 488 459 488 459 485.5 451 c 128,-1,62
 483 443 483 443 481 436 c 128,-1,63
 479 429 479 429 479 426 c 0,64,65
 476 413 476 413 470 386.5 c 128,-1,66
 464 360 464 360 457 327 c 128,-1,67
 450 294 450 294 442.5 258 c 128,-1,68
 435 222 435 222 429.5 190 c 128,-1,69
 424 158 424 158 420.5 133 c 128,-1,70
 417 108 417 108 417 97 c 0,71,72
 417 71 417 71 428 61.5 c 128,-1,73
 439 52 439 52 459 52 c 0,74,75
 463 52 463 52 472.5 54 c 128,-1,76
 482 56 482 56 492 58.5 c 128,-1,77
 502 61 502 61 510.5 63 c 128,-1,78
 519 65 519 65 522 65 c 1,79,-1
 518 30 l 1,23,24
EndSplineSet
EndChar

StartChar: b
Encoding: 98 98 69
Width: 492
Flags: W
LayerCount: 2
Fore
SplineSet
360 306 m 0,0,1
 360 339 360 339 352.5 362 c 128,-1,2
 345 385 345 385 334 399.5 c 128,-1,3
 323 414 323 414 311 420 c 128,-1,4
 299 426 299 426 291 426 c 0,5,6
 279 426 279 426 264.5 422.5 c 128,-1,7
 250 419 250 419 235 412 c 128,-1,8
 220 405 220 405 205 396 c 128,-1,9
 190 387 190 387 178 377 c 1,10,-1
 123 75 l 1,11,12
 127 68 127 68 135 61.5 c 128,-1,13
 143 55 143 55 153.5 49.5 c 128,-1,14
 164 44 164 44 176.5 41 c 128,-1,15
 189 38 189 38 202 38 c 0,16,17
 224 38 224 38 244.5 49.5 c 128,-1,18
 265 61 265 61 282.5 81 c 128,-1,19
 300 101 300 101 314.5 127.5 c 128,-1,20
 329 154 329 154 339 184 c 128,-1,21
 349 214 349 214 354.5 245.5 c 128,-1,22
 360 277 360 277 360 306 c 0,0,1
459 310 m 0,23,24
 459 279 459 279 452.5 243.5 c 128,-1,25
 446 208 446 208 432 172.5 c 128,-1,26
 418 137 418 137 396 104 c 128,-1,27
 374 71 374 71 343 46 c 128,-1,28
 312 21 312 21 271.5 6 c 128,-1,29
 231 -9 231 -9 181 -9 c 0,30,31
 139 -9 139 -9 98 2.5 c 128,-1,32
 57 14 57 14 22 36 c 1,33,-1
 140 669 l 1,34,-1
 51 677 l 1,35,-1
 51 707 l 1,36,-1
 207 736 l 1,37,-1
 246 736 l 1,38,-1
 189 434 l 1,39,40
 202 446 202 446 218 456.5 c 128,-1,41
 234 467 234 467 251.5 475 c 128,-1,42
 269 483 269 483 287.5 487.5 c 128,-1,43
 306 492 306 492 324 492 c 0,44,45
 362 492 362 492 388 475 c 128,-1,46
 414 458 414 458 430 431.5 c 128,-1,47
 446 405 446 405 453 373 c 128,-1,48
 460 341 460 341 459 310 c 0,23,24
EndSplineSet
EndChar

StartChar: c
Encoding: 99 99 70
Width: 435
Flags: W
LayerCount: 2
Fore
SplineSet
402 423 m 0,0,1
 402 414 402 414 399.5 404 c 128,-1,2
 397 394 397 394 388.5 385.5 c 128,-1,3
 380 377 380 377 365.5 370 c 128,-1,4
 351 363 351 363 328 361 c 1,5,-1
 271 438 l 1,6,7
 245 437 245 437 224.5 424 c 128,-1,8
 204 411 204 411 188.5 390.5 c 128,-1,9
 173 370 173 370 162.5 343.5 c 128,-1,10
 152 317 152 317 145.5 290 c 128,-1,11
 139 263 139 263 136.5 237.5 c 128,-1,12
 134 212 134 212 134 192 c 0,13,14
 134 168 134 168 138.5 144.5 c 128,-1,15
 143 121 143 121 153 102.5 c 128,-1,16
 163 84 163 84 179.5 72.5 c 128,-1,17
 196 61 196 61 220 61 c 0,18,19
 240 61 240 61 260.5 68 c 128,-1,20
 281 75 281 75 301.5 87.5 c 128,-1,21
 322 100 322 100 342.5 117.5 c 128,-1,22
 363 135 363 135 384 155 c 1,23,-1
 384 93 l 1,24,25
 369 78 369 78 349 61 c 128,-1,26
 329 44 329 44 305 29.5 c 128,-1,27
 281 15 281 15 252 5.5 c 128,-1,28
 223 -4 223 -4 190 -4 c 0,29,30
 155 -4 155 -4 126.5 8 c 128,-1,31
 98 20 98 20 78.5 43.5 c 128,-1,32
 59 67 59 67 48.5 101.5 c 128,-1,33
 38 136 38 136 38 180 c 256,34,35
 38 224 38 224 48 265 c 128,-1,36
 58 306 58 306 76.5 341.5 c 128,-1,37
 95 377 95 377 120 406 c 128,-1,38
 145 435 145 435 174.5 455.5 c 128,-1,39
 204 476 204 476 237 487 c 128,-1,40
 270 498 270 498 303 498 c 0,41,42
 329 498 329 498 348.5 491.5 c 128,-1,43
 368 485 368 485 380 475 c 128,-1,44
 392 465 392 465 397.5 453 c 128,-1,45
 403 441 403 441 402 423 c 0,0,1
EndSplineSet
EndChar

StartChar: d
Encoding: 100 100 71
Width: 525
Flags: W
LayerCount: 2
Fore
SplineSet
415 85 m 2,0,1
 413 71 413 71 416.5 62.5 c 128,-1,2
 420 54 420 54 426.5 49 c 128,-1,3
 433 44 433 44 440 42.5 c 128,-1,4
 447 41 447 41 450 41 c 256,5,6
 453 41 453 41 463 43.5 c 128,-1,7
 473 46 473 46 484.5 49 c 128,-1,8
 496 52 496 52 506 54 c 2,9,-1
 519 57 l 1,10,-1
 519 20 l 1,11,12
 514 18 514 18 498.5 12.5 c 128,-1,13
 483 7 483 7 464 1.5 c 128,-1,14
 445 -4 445 -4 425 -8 c 128,-1,15
 405 -12 405 -12 390 -12 c 0,16,17
 368 -12 368 -12 353.5 -6.5 c 128,-1,18
 339 -1 339 -1 331 9 c 128,-1,19
 323 19 323 19 320 32.5 c 128,-1,20
 317 46 317 46 317 62 c 1,21,22
 304 48 304 48 288.5 35 c 128,-1,23
 273 22 273 22 255 12 c 128,-1,24
 237 2 237 2 217 -4.5 c 128,-1,25
 197 -11 197 -11 177 -11 c 0,26,27
 136 -11 136 -11 108.5 5 c 128,-1,28
 81 21 81 21 65 46.5 c 128,-1,29
 49 72 49 72 42.5 103.5 c 128,-1,30
 36 135 36 135 36 166 c 0,31,32
 36 205 36 205 44.5 244.5 c 128,-1,33
 53 284 53 284 69.5 320 c 128,-1,34
 86 356 86 356 110 387 c 128,-1,35
 134 418 134 418 165 441 c 128,-1,36
 196 464 196 464 234 477 c 128,-1,37
 272 490 272 490 315 490 c 0,38,39
 326 490 326 490 336.5 488 c 128,-1,40
 347 486 347 486 356.5 483.5 c 128,-1,41
 366 481 366 481 374 478 c 128,-1,42
 382 475 382 475 388 474 c 1,43,-1
 421 666 l 1,44,-1
 331 674 l 1,45,-1
 331 704 l 1,46,-1
 485 733 l 1,47,-1
 526 733 l 1,48,-1
 415 85 l 2,0,1
374 391 m 2,49,50
 374 392 374 392 368 401 c 128,-1,51
 362 410 362 410 352.5 419.5 c 128,-1,52
 343 429 343 429 332 436.5 c 128,-1,53
 321 444 321 444 312 444 c 0,54,55
 276 444 276 444 243 423 c 128,-1,56
 210 402 210 402 185 365 c 128,-1,57
 160 328 160 328 145 277.5 c 128,-1,58
 130 227 130 227 130 169 c 0,59,60
 130 137 130 137 136.5 114 c 128,-1,61
 143 91 143 91 153.5 76 c 128,-1,62
 164 61 164 61 178 54 c 128,-1,63
 192 47 192 47 206 47 c 0,64,65
 219 47 219 47 234.5 53.5 c 128,-1,66
 250 60 250 60 266 71 c 128,-1,67
 282 82 282 82 297.5 96.5 c 128,-1,68
 313 111 313 111 326 126 c 1,69,-1
 374 391 l 2,49,50
EndSplineSet
EndChar

StartChar: e
Encoding: 101 101 72
Width: 434
Flags: W
LayerCount: 2
Fore
SplineSet
328 394 m 0,0,1
 328 403 328 403 324.5 412.5 c 128,-1,2
 321 422 321 422 314.5 429 c 128,-1,3
 308 436 308 436 298 440.5 c 128,-1,4
 288 445 288 445 276 445 c 0,5,6
 260 445 260 445 245 436.5 c 128,-1,7
 230 428 230 428 216.5 413.5 c 128,-1,8
 203 399 203 399 191.5 380 c 128,-1,9
 180 361 180 361 170.5 340.5 c 128,-1,10
 161 320 161 320 154 299 c 128,-1,11
 147 278 147 278 143 259 c 1,12,13
 174 261 174 261 207.5 272.5 c 128,-1,14
 241 284 241 284 268.5 302 c 128,-1,15
 296 320 296 320 313.5 343 c 128,-1,16
 331 366 331 366 328 394 c 0,0,1
419 391 m 1,17,18
 419 364 419 364 406.5 341.5 c 128,-1,19
 394 319 394 319 372.5 300.5 c 128,-1,20
 351 282 351 282 322.5 268 c 128,-1,21
 294 254 294 254 263 244 c 128,-1,22
 232 234 232 234 199.5 228 c 128,-1,23
 167 222 167 222 138 221 c 1,24,25
 137 212 137 212 136 198.5 c 128,-1,26
 135 185 135 185 135 176 c 0,27,28
 135 149 135 149 141.5 126.5 c 128,-1,29
 148 104 148 104 160 87.5 c 128,-1,30
 172 71 172 71 189.5 61.5 c 128,-1,31
 207 52 207 52 228 52 c 0,32,33
 261 52 261 52 301.5 76 c 128,-1,34
 342 100 342 100 397 148 c 1,35,-1
 397 86 l 1,36,37
 383 73 383 73 362.5 57 c 128,-1,38
 342 41 342 41 316 27 c 128,-1,39
 290 13 290 13 259.5 3.5 c 128,-1,40
 229 -6 229 -6 195 -6 c 0,41,42
 180 -6 180 -6 162.5 -3.5 c 128,-1,43
 145 -1 145 -1 127.5 6.5 c 128,-1,44
 110 14 110 14 94 27 c 128,-1,45
 78 40 78 40 66 60 c 128,-1,46
 54 80 54 80 46.5 108 c 128,-1,47
 39 136 39 136 39 174 c 0,48,49
 39 213 39 213 48.5 252 c 128,-1,50
 58 291 58 291 75 326.5 c 128,-1,51
 92 362 92 362 116 393 c 128,-1,52
 140 424 140 424 169 446.5 c 128,-1,53
 198 469 198 469 231 481.5 c 128,-1,54
 264 494 264 494 299 494 c 0,55,56
 333 494 333 494 356 483 c 128,-1,57
 379 472 379 472 393 456 c 128,-1,58
 407 440 407 440 412.5 423 c 128,-1,59
 418 406 418 406 419 391 c 1,17,18
EndSplineSet
EndChar

StartChar: f
Encoding: 102 102 73
Width: 321
Flags: W
LayerCount: 2
Fore
SplineSet
440 674 m 1,0,1
 440 651 440 651 422.5 638.5 c 128,-1,2
 405 626 405 626 378 623 c 1,3,-1
 300 685 l 1,4,5
 290 677 290 677 281 660.5 c 128,-1,6
 272 644 272 644 264.5 623.5 c 128,-1,7
 257 603 257 603 250.5 579.5 c 128,-1,8
 244 556 244 556 239.5 534 c 128,-1,9
 235 512 235 512 232 493 c 128,-1,10
 229 474 229 474 228 462 c 1,11,-1
 350 462 l 1,12,-1
 350 413 l 1,13,-1
 219 413 l 1,14,15
 218 402 218 402 214.5 374.5 c 128,-1,16
 211 347 211 347 206 310.5 c 128,-1,17
 201 274 201 274 195 232.5 c 128,-1,18
 189 191 189 191 183 152.5 c 128,-1,19
 177 114 177 114 171.5 81.5 c 128,-1,20
 166 49 166 49 162 31 c 0,21,22
 156 4 156 4 144.5 -25.5 c 128,-1,23
 133 -55 133 -55 117 -82.5 c 128,-1,24
 101 -110 101 -110 81.5 -134.5 c 128,-1,25
 62 -159 62 -159 40 -177.5 c 128,-1,26
 18 -196 18 -196 -6 -206.5 c 128,-1,27
 -30 -217 -30 -217 -54 -217 c 0,28,29
 -73 -217 -73 -217 -85 -211 c 128,-1,30
 -97 -205 -97 -205 -103.5 -196.5 c 128,-1,31
 -110 -188 -110 -188 -112.5 -180 c 128,-1,32
 -115 -172 -115 -172 -115 -169 c 0,33,34
 -115 -150 -115 -150 -108 -140 c 128,-1,35
 -101 -130 -101 -130 -90 -122 c 1,36,-1
 12 -148 l 1,37,38
 25 -132 25 -132 35.5 -109 c 128,-1,39
 46 -86 46 -86 55 -58 c 128,-1,40
 64 -30 64 -30 71 2 c 128,-1,41
 78 34 78 34 83 68 c 0,42,43
 95 138 95 138 105.5 225 c 128,-1,44
 116 312 116 312 131 410 c 1,45,-1
 54 403 l 1,46,-1
 54 442 l 1,47,-1
 140 470 l 1,48,49
 144 496 144 496 152.5 526.5 c 128,-1,50
 161 557 161 557 173.5 587 c 128,-1,51
 186 617 186 617 203 644.5 c 128,-1,52
 220 672 220 672 242 693 c 128,-1,53
 264 714 264 714 292 726.5 c 128,-1,54
 320 739 320 739 354 739 c 0,55,56
 379 739 379 739 396.5 733 c 128,-1,57
 414 727 414 727 424.5 717.5 c 128,-1,58
 435 708 435 708 439.5 697.5 c 128,-1,59
 444 687 444 687 440 674 c 1,0,1
EndSplineSet
EndChar

StartChar: g
Encoding: 103 103 74
Width: 439
Flags: W
LayerCount: 2
Fore
SplineSet
320 -87 m 1,0,1
 320 -69 320 -69 309.5 -54 c 128,-1,2
 299 -39 299 -39 270 -26 c 2,3,-1
 145 30 l 1,4,5
 122 25 122 25 106.5 15 c 128,-1,6
 91 5 91 5 82 -7.5 c 128,-1,7
 73 -20 73 -20 69.5 -34.5 c 128,-1,8
 66 -49 66 -49 66 -64 c 0,9,10
 66 -81 66 -81 73 -101.5 c 128,-1,11
 80 -122 80 -122 95 -139.5 c 128,-1,12
 110 -157 110 -157 133 -168.5 c 128,-1,13
 156 -180 156 -180 187 -180 c 0,14,15
 223 -180 223 -180 248 -170 c 128,-1,16
 273 -160 273 -160 289 -145.5 c 128,-1,17
 305 -131 305 -131 312 -115 c 128,-1,18
 319 -99 319 -99 320 -87 c 1,0,1
309 360 m 0,19,20
 309 378 309 378 306 394.5 c 128,-1,21
 303 411 303 411 296 423.5 c 128,-1,22
 289 436 289 436 278.5 443.5 c 128,-1,23
 268 451 268 451 253 451 c 0,24,25
 235 451 235 451 216 438 c 128,-1,26
 197 425 197 425 181.5 402.5 c 128,-1,27
 166 380 166 380 156 349.5 c 128,-1,28
 146 319 146 319 146 284 c 0,29,30
 146 266 146 266 149.5 251 c 128,-1,31
 153 236 153 236 160.5 225.5 c 128,-1,32
 168 215 168 215 178 209 c 128,-1,33
 188 203 188 203 201 203 c 0,34,35
 225 203 225 203 245 218.5 c 128,-1,36
 265 234 265 234 279 257.5 c 128,-1,37
 293 281 293 281 300.5 308.5 c 128,-1,38
 308 336 308 336 309 360 c 0,19,20
391 421 m 1,39,40
 395 410 395 410 399 392.5 c 128,-1,41
 403 375 403 375 403 355 c 0,42,43
 403 308 403 308 385.5 272.5 c 128,-1,44
 368 237 368 237 338.5 213.5 c 128,-1,45
 309 190 309 190 270 178.5 c 128,-1,46
 231 167 231 167 188 167 c 1,47,48
 185 160 185 160 183 151.5 c 128,-1,49
 181 143 181 143 180 134.5 c 128,-1,50
 179 126 179 126 179 119 c 128,-1,51
 179 112 179 112 180 109 c 1,52,-1
 313 48 l 2,53,54
 335 38 335 38 353.5 28 c 128,-1,55
 372 18 372 18 385 6 c 128,-1,56
 398 -6 398 -6 405 -21.5 c 128,-1,57
 412 -37 412 -37 412 -58 c 256,58,59
 412 -79 412 -79 402 -99 c 128,-1,60
 392 -119 392 -119 375 -136.5 c 128,-1,61
 358 -154 358 -154 334 -169 c 128,-1,62
 310 -184 310 -184 282 -194.5 c 128,-1,63
 254 -205 254 -205 223 -210.5 c 128,-1,64
 192 -216 192 -216 161 -216 c 0,65,66
 112 -216 112 -216 76 -204 c 128,-1,67
 40 -192 40 -192 16.5 -172 c 128,-1,68
 -7 -152 -7 -152 -18 -126 c 128,-1,69
 -29 -100 -29 -100 -29 -72 c 0,70,71
 -29 -47 -29 -47 -19 -26 c 128,-1,72
 -9 -5 -9 -5 9 12 c 128,-1,73
 27 29 27 29 51 42 c 128,-1,74
 75 55 75 55 102 64 c 1,75,76
 100 75 100 75 102 90.5 c 128,-1,77
 104 106 104 106 109 122 c 128,-1,78
 114 138 114 138 122 153 c 128,-1,79
 130 168 130 168 140 178 c 1,80,81
 120 186 120 186 103 197 c 128,-1,82
 86 208 86 208 74 222.5 c 128,-1,83
 62 237 62 237 55 256 c 128,-1,84
 48 275 48 275 48 298 c 0,85,86
 48 334 48 334 61.5 369 c 128,-1,87
 75 404 75 404 101 432 c 128,-1,88
 127 460 127 460 164 477 c 128,-1,89
 201 494 201 494 248 494 c 0,90,91
 266 494 266 494 281.5 491 c 128,-1,92
 297 488 297 488 309.5 484 c 128,-1,93
 322 480 322 480 331.5 476 c 128,-1,94
 341 472 341 472 345 470 c 1,95,-1
 480 470 l 1,96,-1
 480 424 l 1,97,-1
 391 421 l 1,39,40
EndSplineSet
EndChar

StartChar: h
Encoding: 104 104 75
Width: 523
Flags: W
LayerCount: 2
Fore
SplineSet
521 24 m 1,0,1
 515 22 515 22 499.5 16.5 c 128,-1,2
 484 11 484 11 464.5 4.5 c 128,-1,3
 445 -2 445 -2 424.5 -6.5 c 128,-1,4
 404 -11 404 -11 389 -11 c 0,5,6
 380 -11 380 -11 366 -8.5 c 128,-1,7
 352 -6 352 -6 340 1 c 128,-1,8
 328 8 328 8 321 20.5 c 128,-1,9
 314 33 314 33 317 53 c 1,10,-1
 378 347 l 2,11,12
 382 366 382 366 377 381 c 128,-1,13
 372 396 372 396 363 406 c 128,-1,14
 354 416 354 416 343 421 c 128,-1,15
 332 426 332 426 324 426 c 0,16,17
 313 426 313 426 296.5 420.5 c 128,-1,18
 280 415 280 415 261.5 405 c 128,-1,19
 243 395 243 395 224 381 c 128,-1,20
 205 367 205 367 189 350 c 1,21,-1
 116 0 l 1,22,-1
 25 0 l 1,23,-1
 162 667 l 1,24,-1
 74 675 l 1,25,-1
 74 705 l 1,26,-1
 230 734 l 1,27,-1
 270 734 l 1,28,-1
 203 412 l 1,29,30
 218 428 218 428 238.5 442.5 c 128,-1,31
 259 457 259 457 282.5 467.5 c 128,-1,32
 306 478 306 478 331.5 484 c 128,-1,33
 357 490 357 490 381 490 c 0,34,35
 408 490 408 490 428.5 481.5 c 128,-1,36
 449 473 449 473 461.5 456.5 c 128,-1,37
 474 440 474 440 477.5 415 c 128,-1,38
 481 390 481 390 474 357 c 2,39,-1
 419 88 l 2,40,41
 417 74 417 74 421 64.5 c 128,-1,42
 425 55 425 55 432.5 49.5 c 128,-1,43
 440 44 440 44 448 42 c 128,-1,44
 456 40 456 40 460 40 c 0,45,46
 473 40 473 40 489 46.5 c 128,-1,47
 505 53 505 53 522 58 c 1,48,-1
 521 24 l 1,0,1
EndSplineSet
EndChar

StartChar: i
Encoding: 105 105 76
Width: 266
Flags: W
LayerCount: 2
Fore
SplineSet
263 28 m 1,0,1
 258 26 258 26 242.5 19.5 c 128,-1,2
 227 13 227 13 206.5 6 c 128,-1,3
 186 -1 186 -1 163 -6 c 128,-1,4
 140 -11 140 -11 120 -11 c 0,5,6
 95 -11 95 -11 80 -2.5 c 128,-1,7
 65 6 65 6 58 20 c 128,-1,8
 51 34 51 34 50.5 51.5 c 128,-1,9
 50 69 50 69 53 86 c 2,10,-1
 116 424 l 1,11,-1
 31 433 l 1,12,-1
 31 461 l 1,13,-1
 181 492 l 1,14,-1
 222 492 l 1,15,-1
 147 93 l 2,16,17
 146 83 146 83 148 74 c 128,-1,18
 150 65 150 65 155 58 c 128,-1,19
 160 51 160 51 168 47 c 128,-1,20
 176 43 176 43 186 43 c 0,21,22
 194 43 194 43 205.5 46 c 128,-1,23
 217 49 217 49 228.5 53 c 128,-1,24
 240 57 240 57 250 60.5 c 128,-1,25
 260 64 260 64 264 65 c 1,26,-1
 263 28 l 1,0,1
260 639 m 1,27,28
 260 628 260 628 256 618 c 128,-1,29
 252 608 252 608 244.5 600.5 c 128,-1,30
 237 593 237 593 226 588.5 c 128,-1,31
 215 584 215 584 201 584 c 0,32,33
 171 584 171 584 155.5 600 c 128,-1,34
 140 616 140 616 140 639 c 0,35,36
 140 648 140 648 144 657.5 c 128,-1,37
 148 667 148 667 156 675 c 128,-1,38
 164 683 164 683 175.5 688 c 128,-1,39
 187 693 187 693 202 693 c 0,40,41
 216 693 216 693 226.5 688.5 c 128,-1,42
 237 684 237 684 244.5 676.5 c 128,-1,43
 252 669 252 669 255.5 659 c 128,-1,44
 259 649 259 649 260 639 c 1,27,28
EndSplineSet
EndChar

StartChar: j
Encoding: 106 106 77
Width: 272
Flags: W
LayerCount: 2
Fore
SplineSet
160 80 m 2,0,1
 156 56 156 56 147.5 23.5 c 128,-1,2
 139 -9 139 -9 126 -43 c 128,-1,3
 113 -77 113 -77 95 -109.5 c 128,-1,4
 77 -142 77 -142 54 -168 c 128,-1,5
 31 -194 31 -194 3 -209.5 c 128,-1,6
 -25 -225 -25 -225 -58 -225 c 0,7,8
 -89 -225 -89 -225 -106.5 -210 c 128,-1,9
 -124 -195 -124 -195 -124 -173 c 0,10,11
 -124 -164 -124 -164 -121.5 -157 c 128,-1,12
 -119 -150 -119 -150 -115 -145 c 128,-1,13
 -111 -140 -111 -140 -106.5 -136.5 c 128,-1,14
 -102 -133 -102 -133 -99 -131 c 1,15,-1
 1 -158 l 1,16,17
 8 -151 8 -151 15.5 -135 c 128,-1,18
 23 -119 23 -119 30 -99 c 128,-1,19
 37 -79 37 -79 42.5 -57 c 128,-1,20
 48 -35 48 -35 51 -15 c 2,21,-1
 126 422 l 1,22,-1
 43 431 l 1,23,-1
 43 459 l 1,24,-1
 193 490 l 1,25,-1
 230 490 l 1,26,-1
 160 80 l 2,0,1
265 636 m 0,27,28
 265 628 265 628 261 618 c 128,-1,29
 257 608 257 608 249 600 c 128,-1,30
 241 592 241 592 230 587 c 128,-1,31
 219 582 219 582 206 582 c 0,32,33
 179 582 179 582 162 597.5 c 128,-1,34
 145 613 145 613 145 637 c 0,35,36
 145 648 145 648 148.5 658 c 128,-1,37
 152 668 152 668 159.5 676 c 128,-1,38
 167 684 167 684 178.5 688.5 c 128,-1,39
 190 693 190 693 205 693 c 256,40,41
 220 693 220 693 231 688.5 c 128,-1,42
 242 684 242 684 249.5 676 c 128,-1,43
 257 668 257 668 261 658 c 128,-1,44
 265 648 265 648 265 636 c 0,27,28
EndSplineSet
EndChar

StartChar: k
Encoding: 107 107 78
Width: 508
Flags: W
LayerCount: 2
Fore
SplineSet
497 22 m 1,0,1
 485 16 485 16 469 10 c 128,-1,2
 453 4 453 4 436 -0.5 c 128,-1,3
 419 -5 419 -5 403 -8 c 128,-1,4
 387 -11 387 -11 376 -11 c 0,5,6
 364 -11 364 -11 352.5 -7 c 128,-1,7
 341 -3 341 -3 331 3.5 c 128,-1,8
 321 10 321 10 312.5 18.5 c 128,-1,9
 304 27 304 27 299 35 c 0,10,11
 293 45 293 45 284.5 61 c 128,-1,12
 276 77 276 77 266.5 96.5 c 128,-1,13
 257 116 257 116 247.5 137 c 128,-1,14
 238 158 238 158 229 177.5 c 128,-1,15
 220 197 220 197 212.5 214 c 128,-1,16
 205 231 205 231 200 241 c 1,17,-1
 155 200 l 1,18,-1
 114 -3 l 1,19,-1
 23 -3 l 1,20,-1
 155 664 l 1,21,-1
 68 672 l 1,22,-1
 68 702 l 1,23,-1
 222 731 l 1,24,-1
 262 731 l 1,25,-1
 170 267 l 1,26,-1
 331 433 l 2,27,28
 345 447 345 447 356.5 457 c 128,-1,29
 368 467 368 467 378.5 473.5 c 128,-1,30
 389 480 389 480 400 483 c 128,-1,31
 411 486 411 486 424 486 c 0,32,33
 440 486 440 486 452 481.5 c 128,-1,34
 464 477 464 477 472 469.5 c 128,-1,35
 480 462 480 462 483.5 452.5 c 128,-1,36
 487 443 487 443 487 434 c 0,37,38
 487 417 487 417 471.5 399 c 128,-1,39
 456 381 456 381 421 369 c 1,40,-1
 387 405 l 1,41,42
 374 395 374 395 358.5 382 c 128,-1,43
 343 369 343 369 327 355.5 c 128,-1,44
 311 342 311 342 296.5 329 c 128,-1,45
 282 316 282 316 271 306 c 1,46,47
 277 294 277 294 284.5 275 c 128,-1,48
 292 256 292 256 300.5 234.5 c 128,-1,49
 309 213 309 213 319 190.5 c 128,-1,50
 329 168 329 168 340 148 c 256,51,52
 351 128 351 128 363 109 c 128,-1,53
 375 90 375 90 388 75.5 c 128,-1,54
 401 61 401 61 414.5 52.5 c 128,-1,55
 428 44 428 44 441 44 c 0,56,57
 446 44 446 44 453.5 45 c 128,-1,58
 461 46 461 46 469.5 47.5 c 128,-1,59
 478 49 478 49 486.5 51.5 c 128,-1,60
 495 54 495 54 501 56 c 1,61,-1
 497 22 l 1,0,1
EndSplineSet
EndChar

StartChar: l
Encoding: 108 108 79
Width: 265
Flags: W
LayerCount: 2
Fore
SplineSet
263 25 m 1,0,1
 258 23 258 23 242 17 c 128,-1,2
 226 11 226 11 206 4.5 c 128,-1,3
 186 -2 186 -2 164.5 -7 c 128,-1,4
 143 -12 143 -12 126 -12 c 0,5,6
 104 -12 104 -12 88 -7 c 128,-1,7
 72 -2 72 -2 62 7.5 c 128,-1,8
 52 17 52 17 47.5 30 c 128,-1,9
 43 43 43 43 43 59 c 0,10,11
 43 74 43 74 45 94 c 1,12,-1
 154 665 l 1,13,-1
 66 673 l 1,14,-1
 66 703 l 1,15,-1
 222 732 l 1,16,-1
 260 732 l 1,17,-1
 139 95 l 2,18,19
 138 85 138 85 140.5 75 c 128,-1,20
 143 65 143 65 149 57.5 c 128,-1,21
 155 50 155 50 164 45.5 c 128,-1,22
 173 41 173 41 183 41 c 0,23,24
 190 41 190 41 201.5 43.5 c 128,-1,25
 213 46 213 46 225 49 c 128,-1,26
 237 52 237 52 247 55 c 128,-1,27
 257 58 257 58 261 58 c 1,28,-1
 263 25 l 1,0,1
EndSplineSet
EndChar

StartChar: m
Encoding: 109 109 80
Width: 775
Flags: W
LayerCount: 2
Fore
SplineSet
772 25 m 1,0,1
 760 20 760 20 744.5 13.5 c 128,-1,2
 729 7 729 7 712.5 1.5 c 128,-1,3
 696 -4 696 -4 679.5 -7.5 c 128,-1,4
 663 -11 663 -11 649 -11 c 0,5,6
 629 -11 629 -11 613 -6.5 c 128,-1,7
 597 -2 597 -2 586.5 6.5 c 128,-1,8
 576 15 576 15 571.5 28 c 128,-1,9
 567 41 567 41 570 58 c 2,10,-1
 625 325 l 2,11,12
 629 349 629 349 628 367.5 c 128,-1,13
 627 386 627 386 621 398 c 128,-1,14
 615 410 615 410 606 416 c 128,-1,15
 597 422 597 422 588 422 c 0,16,17
 566 422 566 422 544.5 412 c 128,-1,18
 523 402 523 402 505 388.5 c 128,-1,19
 487 375 487 375 474 361 c 128,-1,20
 461 347 461 347 457 339 c 1,21,-1
 387 2 l 1,22,-1
 295 2 l 1,23,-1
 361 328 l 2,24,25
 364 344 364 344 364 361 c 128,-1,26
 364 378 364 378 359.5 392 c 128,-1,27
 355 406 355 406 345.5 415 c 128,-1,28
 336 424 336 424 320 424 c 0,29,30
 303 424 303 424 283.5 414 c 128,-1,31
 264 404 264 404 246 390 c 128,-1,32
 228 376 228 376 213.5 361.5 c 128,-1,33
 199 347 199 347 192 338 c 1,34,-1
 122 3 l 1,35,-1
 31 3 l 1,36,-1
 116 427 l 1,37,-1
 33 436 l 1,38,-1
 33 464 l 1,39,-1
 182 495 l 1,40,-1
 223 495 l 1,41,-1
 204 403 l 1,42,43
 222 420 222 420 242.5 436.5 c 128,-1,44
 263 453 263 453 285 465.5 c 128,-1,45
 307 478 307 478 329.5 485.5 c 128,-1,46
 352 493 352 493 373 493 c 0,47,48
 397 493 397 493 413 484 c 128,-1,49
 429 475 429 475 439 461.5 c 128,-1,50
 449 448 449 448 453.5 432 c 128,-1,51
 458 416 458 416 459 403 c 1,52,53
 477 421 477 421 498.5 437.5 c 128,-1,54
 520 454 520 454 543.5 466.5 c 128,-1,55
 567 479 567 479 591.5 486.5 c 128,-1,56
 616 494 616 494 638 494 c 0,57,58
 662 494 662 494 680.5 485 c 128,-1,59
 699 476 699 476 710 459.5 c 128,-1,60
 721 443 721 443 724 420 c 128,-1,61
 727 397 727 397 722 369 c 2,62,-1
 666 99 l 2,63,64
 664 87 664 87 666.5 77 c 128,-1,65
 669 67 669 67 675 60 c 128,-1,66
 681 53 681 53 689.5 49 c 128,-1,67
 698 45 698 45 707 45 c 0,68,69
 719 45 719 45 735 50.5 c 128,-1,70
 751 56 751 56 769 62 c 1,71,-1
 772 25 l 1,0,1
EndSplineSet
EndChar

StartChar: n
Encoding: 110 110 81
Width: 529
Flags: W
LayerCount: 2
Fore
SplineSet
526 20 m 1,0,1
 520 18 520 18 504.5 13 c 128,-1,2
 489 8 489 8 469.5 2.5 c 128,-1,3
 450 -3 450 -3 429.5 -7 c 128,-1,4
 409 -11 409 -11 394 -11 c 0,5,6
 386 -11 386 -11 371 -9.5 c 128,-1,7
 356 -8 356 -8 342 -2 c 128,-1,8
 328 4 328 4 319.5 15.5 c 128,-1,9
 311 27 311 27 315 47 c 2,10,-1
 376 354 l 2,11,12
 379 374 379 374 376 387 c 128,-1,13
 373 400 373 400 366 408 c 128,-1,14
 359 416 359 416 350 419 c 128,-1,15
 341 422 341 422 333 422 c 0,16,17
 321 422 321 422 303.5 415 c 128,-1,18
 286 408 286 408 266.5 396.5 c 128,-1,19
 247 385 247 385 227 369.5 c 128,-1,20
 207 354 207 354 191 337 c 1,21,-1
 123 2 l 1,22,-1
 30 2 l 1,23,-1
 116 426 l 1,24,-1
 33 435 l 1,25,-1
 33 463 l 1,26,-1
 183 494 l 1,27,-1
 223 494 l 1,28,-1
 205 401 l 1,29,30
 221 417 221 417 242 433.5 c 128,-1,31
 263 450 263 450 287 463 c 128,-1,32
 311 476 311 476 337 484 c 128,-1,33
 363 492 363 492 387 492 c 0,34,35
 441 492 441 492 464 462 c 128,-1,36
 487 432 487 432 476 365 c 1,37,-1
 423 83 l 2,38,39
 421 69 421 69 425.5 61 c 128,-1,40
 430 53 430 53 437.5 49 c 128,-1,41
 445 45 445 45 453 44 c 128,-1,42
 461 43 461 43 465 43 c 0,43,44
 478 43 478 43 494 46.5 c 128,-1,45
 510 50 510 50 527 55 c 1,46,-1
 526 20 l 1,0,1
EndSplineSet
EndChar

StartChar: o
Encoding: 111 111 82
Width: 505
Flags: W
LayerCount: 2
Fore
SplineSet
374 304 m 1,0,1
 374 339 374 339 367.5 366 c 128,-1,2
 361 393 361 393 349.5 411.5 c 128,-1,3
 338 430 338 430 322 439.5 c 128,-1,4
 306 449 306 449 287 449 c 0,5,6
 255 449 255 449 227 425.5 c 128,-1,7
 199 402 199 402 178.5 364 c 128,-1,8
 158 326 158 326 146.5 278 c 128,-1,9
 135 230 135 230 135 182 c 0,10,11
 135 145 135 145 141.5 117.5 c 128,-1,12
 148 90 148 90 160 71.5 c 128,-1,13
 172 53 172 53 188 44 c 128,-1,14
 204 35 204 35 223 35 c 0,15,16
 246 35 246 35 266.5 46.5 c 128,-1,17
 287 58 287 58 303.5 78 c 128,-1,18
 320 98 320 98 333 124.5 c 128,-1,19
 346 151 346 151 355 181 c 128,-1,20
 364 211 364 211 368.5 242.5 c 128,-1,21
 373 274 373 274 374 304 c 1,0,1
474 298 m 0,22,23
 474 258 474 258 465 219.5 c 128,-1,24
 456 181 456 181 439.5 146.5 c 128,-1,25
 423 112 423 112 399.5 83 c 128,-1,26
 376 54 376 54 346.5 33 c 128,-1,27
 317 12 317 12 282.5 0.5 c 128,-1,28
 248 -11 248 -11 210 -11 c 0,29,30
 169 -11 169 -11 136 2 c 128,-1,31
 103 15 103 15 80.5 39.5 c 128,-1,32
 58 64 58 64 46 98.5 c 128,-1,33
 34 133 34 133 34 176 c 0,34,35
 34 216 34 216 42.5 255 c 128,-1,36
 51 294 51 294 67 329 c 128,-1,37
 83 364 83 364 106 394 c 128,-1,38
 129 424 129 424 158.5 445.5 c 128,-1,39
 188 467 188 467 222.5 479 c 128,-1,40
 257 491 257 491 296 491 c 0,41,42
 332 491 332 491 364 480 c 128,-1,43
 396 469 396 469 420.5 445.5 c 128,-1,44
 445 422 445 422 459 385.5 c 128,-1,45
 473 349 473 349 474 298 c 0,22,23
EndSplineSet
EndChar

StartChar: p
Encoding: 112 112 83
Width: 494
Flags: W
LayerCount: 2
Fore
SplineSet
362 305 m 0,0,1
 362 326 362 326 357.5 348.5 c 128,-1,2
 353 371 353 371 343.5 389.5 c 128,-1,3
 334 408 334 408 319.5 419.5 c 128,-1,4
 305 431 305 431 285 431 c 0,5,6
 267 431 267 431 249 423 c 128,-1,7
 231 415 231 415 216.5 405 c 128,-1,8
 202 395 202 395 191.5 385.5 c 128,-1,9
 181 376 181 376 178 374 c 1,10,-1
 119 64 l 1,11,12
 123 62 123 62 131 57 c 128,-1,13
 139 52 139 52 149.5 47.5 c 128,-1,14
 160 43 160 43 172 39.5 c 128,-1,15
 184 36 184 36 197 36 c 0,16,17
 224 36 224 36 246.5 48 c 128,-1,18
 269 60 269 60 287.5 80.5 c 128,-1,19
 306 101 306 101 320 128 c 128,-1,20
 334 155 334 155 343 185 c 128,-1,21
 352 215 352 215 356.5 245.5 c 128,-1,22
 361 276 361 276 362 305 c 0,0,1
460 307 m 1,23,24
 460 266 460 266 450.5 226.5 c 128,-1,25
 441 187 441 187 423 151.5 c 128,-1,26
 405 116 405 116 379.5 86 c 128,-1,27
 354 56 354 56 322.5 34.5 c 128,-1,28
 291 13 291 13 254 1 c 128,-1,29
 217 -11 217 -11 177 -11 c 0,30,31
 155 -11 155 -11 137 -5 c 128,-1,32
 119 1 119 1 107 6 c 1,33,-1
 76 -154 l 2,34,35
 75 -162 75 -162 79 -167 c 128,-1,36
 83 -172 83 -172 96 -173 c 2,37,-1
 158 -178 l 1,38,-1
 158 -215 l 1,39,-1
 -93 -215 l 1,40,-1
 -93 -178 l 1,41,-1
 -41 -173 l 2,42,43
 -21 -172 -21 -172 -19 -154 c 1,44,-1
 93 425 l 1,45,-1
 10 434 l 1,46,-1
 10 462 l 1,47,-1
 161 493 l 1,48,-1
 200 493 l 1,49,-1
 188 431 l 1,50,51
 200 439 200 439 216 449.5 c 128,-1,52
 232 460 232 460 250.5 469.5 c 128,-1,53
 269 479 269 479 289 485.5 c 128,-1,54
 309 492 309 492 329 492 c 0,55,56
 367 492 367 492 392 476 c 128,-1,57
 417 460 417 460 431.5 434 c 128,-1,58
 446 408 446 408 452 375 c 128,-1,59
 458 342 458 342 460 307 c 1,23,24
EndSplineSet
EndChar

StartChar: q
Encoding: 113 113 84
Width: 521
Flags: W
LayerCount: 2
Fore
SplineSet
376 388 m 1,0,1
 376 393 376 393 370.5 403 c 128,-1,2
 365 413 365 413 356.5 423 c 128,-1,3
 348 433 348 433 339 440 c 128,-1,4
 330 447 330 447 325 447 c 0,5,6
 284 447 284 447 248.5 426.5 c 128,-1,7
 213 406 213 406 186.5 369 c 128,-1,8
 160 332 160 332 145 282 c 128,-1,9
 130 232 130 232 130 174 c 0,10,11
 130 146 130 146 135.5 123.5 c 128,-1,12
 141 101 141 101 151 85 c 128,-1,13
 161 69 161 69 176 60.5 c 128,-1,14
 191 52 191 52 209 52 c 0,15,16
 224 52 224 52 238.5 57.5 c 128,-1,17
 253 63 253 63 266.5 72 c 128,-1,18
 280 81 280 81 293.5 92 c 128,-1,19
 307 103 307 103 320 114 c 1,20,-1
 376 388 l 1,0,1
359 -153 m 2,21,22
 358 -161 358 -161 362 -166 c 128,-1,23
 366 -171 366 -171 379 -172 c 2,24,-1
 441 -177 l 1,25,-1
 441 -214 l 1,26,-1
 190 -214 l 1,27,-1
 190 -177 l 1,28,-1
 243 -172 l 2,29,30
 252 -172 252 -172 258 -167.5 c 128,-1,31
 264 -163 264 -163 266 -154 c 2,32,-1
 307 54 l 1,33,34
 273 26 273 26 237 8 c 128,-1,35
 201 -10 201 -10 166 -10 c 0,36,37
 136 -10 136 -10 111 1 c 128,-1,38
 86 12 86 12 68 34.5 c 128,-1,39
 50 57 50 57 40 90.5 c 128,-1,40
 30 124 30 124 30 168 c 0,41,42
 30 206 30 206 39 245 c 128,-1,43
 48 284 48 284 65 320 c 128,-1,44
 82 356 82 356 106.5 387 c 128,-1,45
 131 418 131 418 162 441 c 128,-1,46
 193 464 193 464 230 477 c 128,-1,47
 267 490 267 490 308 490 c 0,48,49
 339 490 339 490 363 481 c 128,-1,50
 387 472 387 472 400 462 c 1,51,-1
 423 491 l 1,52,-1
 483 491 l 1,53,-1
 359 -153 l 2,21,22
EndSplineSet
EndChar

StartChar: r
Encoding: 114 114 85
Width: 374
Flags: W
LayerCount: 2
Fore
SplineSet
409 426 m 1,0,1
 409 409 409 409 403 399 c 128,-1,2
 397 389 397 389 385.5 384 c 128,-1,3
 374 379 374 379 358 377.5 c 128,-1,4
 342 376 342 376 322 376 c 1,5,-1
 299 423 l 1,6,7
 281 416 281 416 260 397 c 128,-1,8
 239 378 239 378 220 353.5 c 128,-1,9
 201 329 201 329 187 303 c 128,-1,10
 173 277 173 277 169 256 c 2,11,-1
 117 5 l 1,12,-1
 25 5 l 1,13,-1
 110 429 l 1,14,-1
 27 438 l 1,15,-1
 27 466 l 1,16,-1
 177 497 l 1,17,-1
 217 497 l 1,18,-1
 197 396 l 1,19,20
 227 443 227 443 266 469.5 c 128,-1,21
 305 496 305 496 350 496 c 0,22,23
 368 496 368 496 380 489.5 c 128,-1,24
 392 483 392 483 399.5 473 c 128,-1,25
 407 463 407 463 410 451.5 c 128,-1,26
 413 440 413 440 409 426 c 1,0,1
EndSplineSet
EndChar

StartChar: s
Encoding: 115 115 86
Width: 370
Flags: W
LayerCount: 2
Fore
SplineSet
349 431 m 0,0,1
 349 414 349 414 341.5 404 c 128,-1,2
 334 394 334 394 323 388.5 c 128,-1,3
 312 383 312 383 300 381 c 128,-1,4
 288 379 288 379 279 379 c 1,5,-1
 235 440 l 2,6,7
 233 442 233 442 227 444.5 c 128,-1,8
 221 447 221 447 212 447 c 0,9,10
 196 447 196 447 185 440 c 128,-1,11
 174 433 174 433 167 423 c 128,-1,12
 160 413 160 413 157.5 401.5 c 128,-1,13
 155 390 155 390 155 381 c 0,14,15
 155 368 155 368 162.5 354.5 c 128,-1,16
 170 341 170 341 182.5 327.5 c 128,-1,17
 195 314 195 314 210.5 301 c 128,-1,18
 226 288 226 288 242 276 c 0,19,20
 258 263 258 263 273 249.5 c 128,-1,21
 288 236 288 236 300 221.5 c 128,-1,22
 312 207 312 207 319 190.5 c 128,-1,23
 326 174 326 174 326 156 c 0,24,25
 326 126 326 126 314 98 c 128,-1,26
 302 70 302 70 278 48.5 c 128,-1,27
 254 27 254 27 218.5 14.5 c 128,-1,28
 183 2 183 2 137 2 c 0,29,30
 101 2 101 2 75 10 c 128,-1,31
 49 18 49 18 32 30.5 c 128,-1,32
 15 43 15 43 7 59.5 c 128,-1,33
 -1 76 -1 76 -1 93 c 0,34,35
 -1 116 -1 116 13 130.5 c 128,-1,36
 27 145 27 145 57 145 c 0,37,38
 66 145 66 145 74 143 c 128,-1,39
 82 141 82 141 88.5 138 c 128,-1,40
 95 135 95 135 100 131.5 c 128,-1,41
 105 128 105 128 107 126 c 1,42,-1
 88 78 l 1,43,44
 98 63 98 63 113.5 53 c 128,-1,45
 129 43 129 43 154 43 c 0,46,47
 169 43 169 43 183 48.5 c 128,-1,48
 197 54 197 54 207.5 64.5 c 128,-1,49
 218 75 218 75 224 90 c 128,-1,50
 230 105 230 105 230 124 c 0,51,52
 230 139 230 139 224 152 c 128,-1,53
 218 165 218 165 207.5 177.5 c 128,-1,54
 197 190 197 190 182.5 202 c 128,-1,55
 168 214 168 214 150 227 c 0,56,57
 135 239 135 239 121 253 c 128,-1,58
 107 267 107 267 96 282.5 c 128,-1,59
 85 298 85 298 78.5 315.5 c 128,-1,60
 72 333 72 333 72 351 c 0,61,62
 72 387 72 387 88.5 415 c 128,-1,63
 105 443 105 443 131 462 c 128,-1,64
 157 481 157 481 188.5 490.5 c 128,-1,65
 220 500 220 500 250 500 c 0,66,67
 278 500 278 500 297 493.5 c 128,-1,68
 316 487 316 487 327.5 477.5 c 128,-1,69
 339 468 339 468 344 457.5 c 128,-1,70
 349 447 349 447 349 431 c 0,0,1
EndSplineSet
EndChar

StartChar: t
Encoding: 116 116 87
Width: 299
Flags: W
LayerCount: 2
Fore
SplineSet
202 418 m 1,0,-1
 140 105 l 2,1,2
 138 92 138 92 141.5 82 c 128,-1,3
 145 72 145 72 153.5 65 c 128,-1,4
 162 58 162 58 173 54.5 c 128,-1,5
 184 51 184 51 196 51 c 0,6,7
 210 51 210 51 225 53.5 c 128,-1,8
 240 56 240 56 253.5 59.5 c 128,-1,9
 267 63 267 63 278.5 67 c 128,-1,10
 290 71 290 71 297 73 c 1,11,-1
 297 33 l 1,12,13
 291 31 291 31 273 24 c 128,-1,14
 255 17 255 17 232 9.5 c 128,-1,15
 209 2 209 2 183.5 -4 c 128,-1,16
 158 -10 158 -10 137 -10 c 0,17,18
 110 -10 110 -10 92 -3.5 c 128,-1,19
 74 3 74 3 63.5 14 c 128,-1,20
 53 25 53 25 48.5 40.5 c 128,-1,21
 44 56 44 56 44 74 c 0,22,23
 44 83 44 83 44.5 93 c 128,-1,24
 45 103 45 103 47 113 c 2,25,-1
 108 416 l 1,26,-1
 46 411 l 1,27,-1
 46 443 l 1,28,-1
 121 476 l 1,29,-1
 169 576 l 1,30,-1
 230 576 l 1,31,-1
 210 462 l 1,32,-1
 348 462 l 1,33,-1
 348 417 l 1,34,-1
 202 418 l 1,0,-1
EndSplineSet
EndChar

StartChar: u
Encoding: 117 117 88
Width: 526
Flags: W
LayerCount: 2
Fore
SplineSet
523 23 m 1,0,1
 514 18 514 18 498 12 c 128,-1,2
 482 6 482 6 463 1 c 128,-1,3
 444 -4 444 -4 424.5 -7.5 c 128,-1,4
 405 -11 405 -11 389 -11 c 0,5,6
 361 -11 361 -11 347.5 -1.5 c 128,-1,7
 334 8 334 8 329 20 c 128,-1,8
 324 32 324 32 324 44.5 c 128,-1,9
 324 57 324 57 324 62 c 1,10,11
 285 25 285 25 242 6.5 c 128,-1,12
 199 -12 199 -12 149 -12 c 0,13,14
 115 -12 115 -12 93.5 0 c 128,-1,15
 72 12 72 12 61 30.5 c 128,-1,16
 50 49 50 49 48 70.5 c 128,-1,17
 46 92 46 92 49 111 c 2,18,-1
 113 423 l 1,19,-1
 30 432 l 1,20,-1
 30 460 l 1,21,-1
 180 491 l 1,22,-1
 221 491 l 1,23,-1
 142 110 l 2,24,25
 140 98 140 98 144 87 c 128,-1,26
 148 76 148 76 156 67.5 c 128,-1,27
 164 59 164 59 174 54 c 128,-1,28
 184 49 184 49 193 49 c 0,29,30
 211 49 211 49 229 54 c 128,-1,31
 247 59 247 59 265 67.5 c 128,-1,32
 283 76 283 76 299.5 87 c 128,-1,33
 316 98 316 98 330 111 c 1,34,-1
 405 479 l 1,35,-1
 498 479 l 1,36,-1
 418 95 l 2,37,38
 415 80 415 80 418 70 c 128,-1,39
 421 60 421 60 428 53.5 c 128,-1,40
 435 47 435 47 444 44.5 c 128,-1,41
 453 42 453 42 461 42 c 0,42,43
 470 42 470 42 486 44.5 c 128,-1,44
 502 47 502 47 522 59 c 1,45,-1
 523 23 l 1,0,1
EndSplineSet
EndChar

StartChar: v
Encoding: 118 118 89
Width: 461
Flags: W
LayerCount: 2
Fore
SplineSet
466 434 m 1,0,1
 466 422 466 422 464 411 c 128,-1,2
 462 400 462 400 459 390.5 c 128,-1,3
 456 381 456 381 452.5 373.5 c 128,-1,4
 449 366 449 366 447 362 c 0,5,6
 414 301 414 301 376 245 c 128,-1,7
 338 189 338 189 301.5 141.5 c 128,-1,8
 265 94 265 94 232.5 56 c 128,-1,9
 200 18 200 18 178 -7 c 1,10,-1
 121 -7 l 1,11,12
 131 14 131 14 136 32.5 c 128,-1,13
 141 51 141 51 141 67 c 0,14,15
 141 68 141 68 140.5 81 c 128,-1,16
 140 94 140 94 138.5 115 c 128,-1,17
 137 136 137 136 135 163 c 128,-1,18
 133 190 133 190 130.5 219 c 128,-1,19
 128 248 128 248 125 277.5 c 128,-1,20
 122 307 122 307 118.5 332.5 c 128,-1,21
 115 358 115 358 111.5 377.5 c 128,-1,22
 108 397 108 397 105 407 c 0,23,24
 101 417 101 417 96.5 421.5 c 128,-1,25
 92 426 92 426 84 426 c 2,26,-1
 13 429 l 1,27,-1
 13 457 l 1,28,-1
 119 490 l 1,29,30
 160 490 160 490 178.5 473 c 128,-1,31
 197 456 197 456 200 421 c 2,32,-1
 231 114 l 1,33,34
 256 147 256 147 277 177 c 128,-1,35
 298 207 298 207 315.5 235 c 128,-1,36
 333 263 333 263 347.5 291 c 128,-1,37
 362 319 362 319 373 348 c 1,38,-1
 354 469 l 1,39,40
 363 478 363 478 377.5 484 c 128,-1,41
 392 490 392 490 410 490 c 0,42,43
 442 490 442 490 456 474 c 128,-1,44
 470 458 470 458 466 434 c 1,0,1
EndSplineSet
EndChar

StartChar: w
Encoding: 119 119 90
Width: 702
Flags: W
LayerCount: 2
Fore
SplineSet
706 435 m 1,0,1
 706 415 706 415 695.5 386 c 128,-1,2
 685 357 685 357 667.5 323.5 c 128,-1,3
 650 290 650 290 627.5 253.5 c 128,-1,4
 605 217 605 217 581 181.5 c 128,-1,5
 557 146 557 146 533.5 114 c 128,-1,6
 510 82 510 82 490.5 56.5 c 128,-1,7
 471 31 471 31 458 14 c 128,-1,8
 445 -3 445 -3 442 -7 c 1,9,-1
 380 -7 l 1,10,-1
 359 334 l 1,11,12
 338 287 338 287 314.5 240 c 128,-1,13
 291 193 291 193 267.5 149.5 c 128,-1,14
 244 106 244 106 221 66.5 c 128,-1,15
 198 27 198 27 178 -5 c 1,16,-1
 105 -5 l 1,17,-1
 114 18 l 1,18,-1
 87 430 l 1,19,-1
 12 438 l 1,20,-1
 12 465 l 1,21,-1
 133 499 l 1,22,-1
 177 497 l 1,23,-1
 198 123 l 1,24,25
 217 158 217 158 238 200.5 c 128,-1,26
 259 243 259 243 280.5 288.5 c 128,-1,27
 302 334 302 334 323 381 c 128,-1,28
 344 428 344 428 363 472 c 1,29,-1
 438 480 l 1,30,-1
 462 100 l 1,31,32
 508 159 508 159 543 221.5 c 128,-1,33
 578 284 578 284 608 353 c 1,34,-1
 588 470 l 1,35,36
 589 471 589 471 593.5 475 c 128,-1,37
 598 479 598 479 605.5 483 c 128,-1,38
 613 487 613 487 623 490 c 128,-1,39
 633 493 633 493 645 493 c 0,40,41
 663 493 663 493 674 486 c 128,-1,42
 685 479 685 479 691.5 469.5 c 128,-1,43
 698 460 698 460 700.5 450 c 128,-1,44
 703 440 703 440 706 435 c 1,0,1
EndSplineSet
EndChar

StartChar: x
Encoding: 120 120 91
Width: 527
Flags: W
LayerCount: 2
Fore
SplineSet
539 435 m 1,0,1
 539 416 539 416 526.5 398.5 c 128,-1,2
 514 381 514 381 485 372 c 1,3,-1
 442 411 l 1,4,5
 429 406 429 406 413 392.5 c 128,-1,6
 397 379 397 379 380.5 357.5 c 128,-1,7
 364 336 364 336 347.5 307.5 c 128,-1,8
 331 279 331 279 317 245 c 1,9,10
 319 236 319 236 323 222.5 c 128,-1,11
 327 209 327 209 332 193 c 128,-1,12
 337 177 337 177 343 160 c 128,-1,13
 349 143 349 143 355 128 c 0,14,15
 362 112 362 112 370 98 c 128,-1,16
 378 84 378 84 386.5 73.5 c 128,-1,17
 395 63 395 63 404 57 c 128,-1,18
 413 51 413 51 421 51 c 0,19,20
 432 51 432 51 444.5 53 c 128,-1,21
 457 55 457 55 477 64 c 1,22,-1
 477 28 l 1,23,24
 449 13 449 13 421 4.5 c 128,-1,25
 393 -4 393 -4 361 -4 c 0,26,27
 345 -4 345 -4 331 5 c 128,-1,28
 317 14 317 14 305.5 28.5 c 128,-1,29
 294 43 294 43 284 62 c 128,-1,30
 274 81 274 81 266.5 101.5 c 128,-1,31
 259 122 259 122 253 142.5 c 128,-1,32
 247 163 247 163 244 180 c 1,33,34
 230 154 230 154 212 122.5 c 128,-1,35
 194 91 194 91 171 63 c 128,-1,36
 148 35 148 35 119.5 16 c 128,-1,37
 91 -3 91 -3 57 -3 c 0,38,39
 27 -3 27 -3 7.5 11 c 128,-1,40
 -12 25 -12 25 -12 51 c 0,41,42
 -12 75 -12 75 3.5 89.5 c 128,-1,43
 19 104 19 104 49 109 c 1,44,-1
 90 69 l 1,45,46
 105 78 105 78 121.5 94 c 128,-1,47
 138 110 138 110 155 132.5 c 128,-1,48
 172 155 172 155 188 184 c 128,-1,49
 204 213 204 213 217 248 c 1,50,51
 215 257 215 257 210 274 c 128,-1,52
 205 291 205 291 197.5 310 c 128,-1,53
 190 329 190 329 182 349 c 128,-1,54
 174 369 174 369 166.5 385 c 128,-1,55
 159 401 159 401 153 411 c 128,-1,56
 147 421 147 421 144 421 c 2,57,-1
 57 432 l 1,58,-1
 57 458 l 1,59,60
 61 459 61 459 70.5 462 c 128,-1,61
 80 465 80 465 92 469 c 128,-1,62
 104 473 104 473 117 477 c 128,-1,63
 130 481 130 481 141.5 484.5 c 128,-1,64
 153 488 153 488 161.5 490 c 128,-1,65
 170 492 170 492 173 492 c 0,66,67
 190 492 190 492 205.5 479.5 c 128,-1,68
 221 467 221 467 234.5 443 c 128,-1,69
 248 419 248 419 260 384 c 128,-1,70
 272 349 272 349 283 304 c 1,71,72
 297 332 297 332 317 365 c 128,-1,73
 337 398 337 398 361 426.5 c 128,-1,74
 385 455 385 455 413.5 474 c 128,-1,75
 442 493 442 493 473 493 c 0,76,77
 500 493 500 493 516.5 477 c 128,-1,78
 533 461 533 461 539 435 c 1,0,1
EndSplineSet
EndChar

StartChar: y
Encoding: 121 121 92
Width: 497
Flags: W
LayerCount: 2
Fore
SplineSet
474 413 m 1,0,1
 469 408 469 408 458 392.5 c 128,-1,2
 447 377 447 377 435.5 357.5 c 128,-1,3
 424 338 424 338 413 317.5 c 128,-1,4
 402 297 402 297 396 282 c 0,5,6
 386 259 386 259 372 225 c 128,-1,7
 358 191 358 191 340.5 152 c 128,-1,8
 323 113 323 113 302.5 71 c 128,-1,9
 282 29 282 29 259 -11 c 0,10,11
 236 -50 236 -50 209.5 -88 c 128,-1,12
 183 -126 183 -126 153.5 -156 c 128,-1,13
 124 -186 124 -186 91.5 -204 c 128,-1,14
 59 -222 59 -222 24 -222 c 0,15,16
 -3 -222 -3 -222 -21 -215.5 c 128,-1,17
 -39 -209 -39 -209 -49.5 -199 c 128,-1,18
 -60 -189 -60 -189 -64 -178 c 128,-1,19
 -68 -167 -68 -167 -68 -158 c 0,20,21
 -68 -147 -68 -147 -63 -137 c 128,-1,22
 -58 -127 -58 -127 -49 -119 c 128,-1,23
 -40 -111 -40 -111 -27.5 -106.5 c 128,-1,24
 -15 -102 -15 -102 -1 -102 c 1,25,-1
 57 -160 l 1,26,27
 72 -159 72 -159 87 -148.5 c 128,-1,28
 102 -138 102 -138 118.5 -116.5 c 128,-1,29
 135 -95 135 -95 155 -62 c 128,-1,30
 175 -29 175 -29 200 17 c 1,31,32
 200 22 200 22 196.5 42 c 128,-1,33
 193 62 193 62 187.5 91 c 128,-1,34
 182 120 182 120 175 155 c 128,-1,35
 168 190 168 190 161 226 c 0,36,37
 154 261 154 261 145.5 296 c 128,-1,38
 137 331 137 331 129 359 c 128,-1,39
 121 387 121 387 115 405 c 128,-1,40
 109 423 109 423 106 423 c 2,41,-1
 16 429 l 1,42,-1
 16 453 l 1,43,-1
 29 457 l 2,44,45
 38 460 38 460 49.5 463.5 c 128,-1,46
 61 467 61 467 74 471 c 128,-1,47
 87 475 87 475 98.5 478 c 128,-1,48
 110 481 110 481 119.5 483 c 128,-1,49
 129 485 129 485 133 485 c 0,50,51
 149 485 149 485 161 477.5 c 128,-1,52
 173 470 173 470 182.5 456 c 128,-1,53
 192 442 192 442 200 422.5 c 128,-1,54
 208 403 208 403 215 379 c 0,55,56
 227 335 227 335 240.5 269.5 c 128,-1,57
 254 204 254 204 268 124 c 1,58,-1
 420 488 l 1,59,-1
 448 488 l 1,60,-1
 531 461 l 1,61,-1
 531 439 l 1,62,-1
 474 413 l 1,0,1
EndSplineSet
EndChar

StartChar: z
Encoding: 122 122 93
Width: 444
Flags: W
LayerCount: 2
Fore
SplineSet
110 70 m 1,0,-1
 193 91 l 1,1,2
 203 88 203 88 216 82.5 c 128,-1,3
 229 77 229 77 242.5 72 c 128,-1,4
 256 67 256 67 269 63.5 c 128,-1,5
 282 60 282 60 292 60 c 256,6,7
 302 60 302 60 310 63 c 128,-1,8
 318 66 318 66 324 70.5 c 128,-1,9
 330 75 330 75 334.5 80.5 c 128,-1,10
 339 86 339 86 343 91 c 1,11,-1
 288 152 l 1,12,13
 292 160 292 160 298.5 167 c 128,-1,14
 305 174 305 174 312.5 178.5 c 128,-1,15
 320 183 320 183 327.5 185.5 c 128,-1,16
 335 188 335 188 341 188 c 0,17,18
 354 188 354 188 364 182.5 c 128,-1,19
 374 177 374 177 381 168.5 c 128,-1,20
 388 160 388 160 391.5 149 c 128,-1,21
 395 138 395 138 395 128 c 0,22,23
 395 98 395 98 382 72.5 c 128,-1,24
 369 47 369 47 348 28.5 c 128,-1,25
 327 10 327 10 301.5 -0.5 c 128,-1,26
 276 -11 276 -11 252 -11 c 0,27,28
 230 -11 230 -11 209.5 -4.5 c 128,-1,29
 189 2 189 2 170 10 c 128,-1,30
 151 18 151 18 132.5 24.5 c 128,-1,31
 114 31 114 31 96 31 c 0,32,33
 93 31 93 31 85.5 30 c 128,-1,34
 78 29 78 29 72 23 c 1,35,-1
 48 -23 l 1,36,-1
 -21 14 l 1,37,-1
 318 410 l 1,38,-1
 230 391 l 1,39,40
 210 402 210 402 188.5 410.5 c 128,-1,41
 167 419 167 419 147 419 c 0,42,43
 141 419 141 419 133.5 417.5 c 128,-1,44
 126 416 126 416 119 412.5 c 128,-1,45
 112 409 112 409 105.5 404 c 128,-1,46
 99 399 99 399 96 393 c 1,47,-1
 148 330 l 1,48,49
 147 328 147 328 142.5 322.5 c 128,-1,50
 138 317 138 317 131 311.5 c 128,-1,51
 124 306 124 306 115 302.5 c 128,-1,52
 106 299 106 299 96 299 c 0,53,54
 82 299 82 299 72 304.5 c 128,-1,55
 62 310 62 310 55.5 318.5 c 128,-1,56
 49 327 49 327 46 337 c 128,-1,57
 43 347 43 347 43 356 c 0,58,59
 43 378 43 378 52.5 403 c 128,-1,60
 62 428 62 428 80 449 c 128,-1,61
 98 470 98 470 124 483.5 c 128,-1,62
 150 497 150 497 183 497 c 0,63,64
 205 497 205 497 225.5 489.5 c 128,-1,65
 246 482 246 482 264.5 472.5 c 128,-1,66
 283 463 283 463 299.5 455.5 c 128,-1,67
 316 448 316 448 331 448 c 0,68,69
 333 448 333 448 338 449 c 128,-1,70
 343 450 343 450 352 454 c 1,71,-1
 373 509 l 1,72,-1
 448 470 l 1,73,-1
 110 70 l 1,0,-1
EndSplineSet
EndChar

StartChar: braceleft
Encoding: 123 123 94
Width: 485
Flags: W
LayerCount: 2
Fore
SplineSet
503 661 m 1,0,1
 463 661 463 661 437 651.5 c 128,-1,2
 411 642 411 642 395 627 c 0,3,4
 378 611 378 611 368.5 589.5 c 128,-1,5
 359 568 359 568 353.5 543.5 c 128,-1,6
 348 519 348 519 344 492.5 c 128,-1,7
 340 466 340 466 334 440.5 c 128,-1,8
 328 415 328 415 318 391.5 c 128,-1,9
 308 368 308 368 289 349 c 0,10,11
 273 334 273 334 248 320.5 c 128,-1,12
 223 307 223 307 185 298 c 1,13,14
 207 291 207 291 223.5 282.5 c 128,-1,15
 240 274 240 274 252 263 c 0,16,17
 267 249 267 249 273.5 230 c 128,-1,18
 280 211 280 211 280 190 c 128,-1,19
 280 169 280 169 276.5 146 c 128,-1,20
 273 123 273 123 268.5 100 c 128,-1,21
 264 77 264 77 260 55 c 128,-1,22
 256 33 256 33 255.5 13.5 c 128,-1,23
 255 -6 255 -6 259 -22 c 128,-1,24
 263 -38 263 -38 275 -48 c 0,25,26
 282 -54 282 -54 292 -57.5 c 128,-1,27
 302 -61 302 -61 313 -63 c 128,-1,28
 324 -65 324 -65 336 -65 c 128,-1,29
 348 -65 348 -65 359 -65 c 1,30,-1
 352 -106 l 1,31,32
 325 -106 325 -106 300 -105 c 128,-1,33
 275 -104 275 -104 253.5 -100 c 128,-1,34
 232 -96 232 -96 214.5 -88 c 128,-1,35
 197 -80 197 -80 185 -67 c 0,36,37
 171 -52 171 -52 166 -32 c 128,-1,38
 161 -12 161 -12 161 10 c 128,-1,39
 161 32 161 32 165 56 c 128,-1,40
 169 80 169 80 174 104 c 128,-1,41
 179 128 179 128 183.5 151 c 128,-1,42
 188 174 188 174 188.5 194.5 c 128,-1,43
 189 215 189 215 184.5 232 c 128,-1,44
 180 249 180 249 168 260 c 0,45,46
 160 268 160 268 148 271.5 c 128,-1,47
 136 275 136 275 122.5 276 c 128,-1,48
 109 277 109 277 94 277 c 2,49,-1
 65 277 l 1,50,-1
 73 322 l 1,51,52
 93 322 93 322 111 322 c 128,-1,53
 129 322 129 322 144.5 324.5 c 128,-1,54
 160 327 160 327 173 333 c 128,-1,55
 186 339 186 339 196 349 c 0,56,57
 214 366 214 366 224 392 c 128,-1,58
 234 418 234 418 240 447.5 c 128,-1,59
 246 477 246 477 251 508.5 c 128,-1,60
 256 540 256 540 265 570 c 128,-1,61
 274 600 274 600 289.5 626 c 128,-1,62
 305 652 305 652 332 670 c 0,63,64
 362 690 362 690 406 697.5 c 128,-1,65
 450 705 450 705 511 705 c 1,66,-1
 503 661 l 1,0,1
EndSplineSet
EndChar

StartChar: bar
Encoding: 124 124 95
Width: 353
Flags: W
LayerCount: 2
Fore
SplineSet
146 -257 m 1,0,-1
 146 796 l 1,1,-1
 206 796 l 1,2,-1
 206 -257 l 1,3,-1
 146 -257 l 1,0,-1
EndSplineSet
EndChar

StartChar: braceright
Encoding: 125 125 96
Width: 485
Flags: W
LayerCount: 2
Fore
SplineSet
429 267 m 1,0,1
 409 267 409 267 391 266.5 c 128,-1,2
 373 266 373 266 357.5 263.5 c 128,-1,3
 342 261 342 261 329 255 c 128,-1,4
 316 249 316 249 306 239 c 0,5,6
 288 222 288 222 278.5 196.5 c 128,-1,7
 269 171 269 171 263 141.5 c 128,-1,8
 257 112 257 112 252 80 c 128,-1,9
 247 48 247 48 238 18 c 128,-1,10
 229 -12 229 -12 213.5 -38 c 128,-1,11
 198 -64 198 -64 172 -82 c 0,12,13
 141 -103 141 -103 97 -110 c 128,-1,14
 53 -117 53 -117 -8 -117 c 1,15,-1
 -1 -76 l 1,16,17
 39 -76 39 -76 65.5 -66.5 c 128,-1,18
 92 -57 92 -57 109 -42 c 0,19,20
 126 -26 126 -26 135 -4.5 c 128,-1,21
 144 17 144 17 149.5 42 c 128,-1,22
 155 67 155 67 158.5 93.5 c 128,-1,23
 162 120 162 120 168 145.5 c 128,-1,24
 174 171 174 171 184.5 194.5 c 128,-1,25
 195 218 195 218 214 236 c 0,26,27
 230 252 230 252 255 265 c 128,-1,28
 280 278 280 278 318 288 c 1,29,30
 274 301 274 301 253 322 c 0,31,32
 233 341 233 341 228 368 c 128,-1,33
 223 395 223 395 225.5 425 c 128,-1,34
 228 455 228 455 235.5 486.5 c 128,-1,35
 243 518 243 518 247 546.5 c 128,-1,36
 251 575 251 575 249 598 c 128,-1,37
 247 621 247 621 231 635 c 0,38,39
 223 641 223 641 213 644.5 c 128,-1,40
 203 648 203 648 192 650 c 128,-1,41
 181 652 181 652 169 652 c 128,-1,42
 157 652 157 652 146 652 c 1,43,-1
 154 693 l 1,44,45
 180 693 180 693 204.5 692 c 128,-1,46
 229 691 229 691 250.5 687 c 128,-1,47
 272 683 272 683 290 675 c 128,-1,48
 308 667 308 667 320 654 c 0,49,50
 338 634 338 634 341.5 606 c 128,-1,51
 345 578 345 578 341.5 546.5 c 128,-1,52
 338 515 338 515 330.5 482.5 c 128,-1,53
 323 450 323 450 319 420 c 128,-1,54
 315 390 315 390 317.5 365.5 c 128,-1,55
 320 341 320 341 337 326 c 0,56,57
 345 318 345 318 357 314.5 c 128,-1,58
 369 311 369 311 382.5 310 c 128,-1,59
 396 309 396 309 411 309 c 2,60,-1
 440 309 l 1,61,-1
 429 267 l 1,0,1
EndSplineSet
EndChar

StartChar: asciitilde
Encoding: 126 126 97
Width: 833
Flags: W
LayerCount: 2
Fore
SplineSet
753 306 m 1,0,1
 725 286 725 286 700.5 273 c 128,-1,2
 676 260 676 260 653.5 252 c 128,-1,3
 631 244 631 244 610 241 c 128,-1,4
 589 238 589 238 568 238 c 0,5,6
 533 238 533 238 498 248 c 128,-1,7
 463 258 463 258 427.5 270.5 c 128,-1,8
 392 283 392 283 355.5 293 c 128,-1,9
 319 303 319 303 281 303 c 256,10,11
 243 303 243 303 196 282.5 c 128,-1,12
 149 262 149 262 99 226 c 1,13,-1
 99 290 l 1,14,15
 152 328 152 328 199.5 344 c 128,-1,16
 247 360 247 360 288 360 c 0,17,18
 324 360 324 360 360.5 350 c 128,-1,19
 397 340 397 340 432.5 328 c 128,-1,20
 468 316 468 316 502.5 306 c 128,-1,21
 537 296 537 296 569 296 c 0,22,23
 587 296 587 296 607 299.5 c 128,-1,24
 627 303 627 303 649.5 312 c 128,-1,25
 672 321 672 321 698 335.5 c 128,-1,26
 724 350 724 350 754 371 c 1,27,-1
 753 306 l 1,0,1
EndSplineSet
EndChar

StartChar: quoteleft
Encoding: 8216 8216 98
Width: 253
Flags: W
LayerCount: 2
Fore
SplineSet
284 706 m 1,0,1
 267 690 267 690 247.5 670.5 c 128,-1,2
 228 651 228 651 211.5 629 c 128,-1,3
 195 607 195 607 183.5 583 c 128,-1,4
 172 559 172 559 172 535 c 1,5,-1
 233 535 l 1,6,7
 235 532 235 532 238.5 525.5 c 128,-1,8
 242 519 242 519 242 506 c 0,9,10
 242 494 242 494 236.5 481.5 c 128,-1,11
 231 469 231 469 221 459 c 128,-1,12
 211 449 211 449 197.5 442.5 c 128,-1,13
 184 436 184 436 168 436 c 256,14,15
 152 436 152 436 138.5 440 c 128,-1,16
 125 444 125 444 115 453 c 128,-1,17
 105 462 105 462 99.5 476 c 128,-1,18
 94 490 94 490 94 509 c 0,19,20
 94 540 94 540 109 570.5 c 128,-1,21
 124 601 124 601 145.5 627.5 c 128,-1,22
 167 654 167 654 190 675 c 128,-1,23
 213 696 213 696 229 708 c 1,24,-1
 284 706 l 1,0,1
EndSplineSet
EndChar

StartChar: quoteright
Encoding: 8217 8217 99
Width: 253
Flags: W
LayerCount: 2
Fore
SplineSet
287 632 m 1,0,1
 287 601 287 601 272.5 570 c 128,-1,2
 258 539 258 539 237 512 c 128,-1,3
 216 485 216 485 193.5 464 c 128,-1,4
 171 443 171 443 155 431 c 1,5,-1
 95 431 l 1,6,7
 112 447 112 447 132 466.5 c 128,-1,8
 152 486 152 486 169 508 c 128,-1,9
 186 530 186 530 197 554 c 128,-1,10
 208 578 208 578 208 603 c 1,11,-1
 146 603 l 1,12,13
 144 606 144 606 141 613 c 128,-1,14
 138 620 138 620 138 629 c 0,15,16
 138 641 138 641 143.5 654 c 128,-1,17
 149 667 149 667 159 677.5 c 128,-1,18
 169 688 169 688 183 694.5 c 128,-1,19
 197 701 197 701 214 701 c 0,20,21
 226 701 226 701 238.5 698 c 128,-1,22
 251 695 251 695 261.5 687 c 128,-1,23
 272 679 272 679 278.5 665 c 128,-1,24
 285 651 285 651 287 632 c 1,0,1
EndSplineSet
EndChar

StartChar: quotedblleft
Encoding: 8220 8220 100
Width: 457
Flags: W
LayerCount: 2
Fore
SplineSet
284 706 m 1,0,1
 267 690 267 690 247.5 670.5 c 128,-1,2
 228 651 228 651 211.5 629 c 128,-1,3
 195 607 195 607 183.5 583 c 128,-1,4
 172 559 172 559 172 535 c 1,5,-1
 233 535 l 1,6,7
 235 532 235 532 238.5 525.5 c 128,-1,8
 242 519 242 519 242 506 c 0,9,10
 242 494 242 494 236.5 481.5 c 128,-1,11
 231 469 231 469 221 459 c 128,-1,12
 211 449 211 449 197.5 442.5 c 128,-1,13
 184 436 184 436 168 436 c 256,14,15
 152 436 152 436 138.5 440 c 128,-1,16
 125 444 125 444 115 453 c 128,-1,17
 105 462 105 462 99.5 476 c 128,-1,18
 94 490 94 490 94 509 c 0,19,20
 94 540 94 540 109 570.5 c 128,-1,21
 124 601 124 601 145.5 627.5 c 128,-1,22
 167 654 167 654 190 675 c 128,-1,23
 213 696 213 696 229 708 c 1,24,-1
 284 706 l 1,0,1
488 708 m 1,25,26
 472 692 472 692 452.5 672.5 c 128,-1,27
 433 653 433 653 416 631 c 128,-1,28
 399 609 399 609 388 585 c 128,-1,29
 377 561 377 561 377 537 c 1,30,-1
 439 537 l 1,31,32
 441 533 441 533 444 526 c 128,-1,33
 447 519 447 519 447 510 c 0,34,35
 447 498 447 498 441.5 485 c 128,-1,36
 436 472 436 472 426 461.5 c 128,-1,37
 416 451 416 451 402 444.5 c 128,-1,38
 388 438 388 438 372 438 c 0,39,40
 360 438 360 438 347.5 441 c 128,-1,41
 335 444 335 444 324.5 452 c 128,-1,42
 314 460 314 460 307.5 473.5 c 128,-1,43
 301 487 301 487 301 508 c 0,44,45
 301 539 301 539 315.5 570 c 128,-1,46
 330 601 330 601 350.5 628 c 128,-1,47
 371 655 371 655 393.5 676 c 128,-1,48
 416 697 416 697 432 709 c 1,49,-1
 488 708 l 1,25,26
EndSplineSet
EndChar

StartChar: quotedblright
Encoding: 8221 8221 101
Width: 457
Flags: W
LayerCount: 2
Fore
SplineSet
287 632 m 1,0,1
 287 601 287 601 272.5 570 c 128,-1,2
 258 539 258 539 237 512 c 128,-1,3
 216 485 216 485 193.5 464 c 128,-1,4
 171 443 171 443 155 431 c 1,5,-1
 95 431 l 1,6,7
 112 447 112 447 132 466.5 c 128,-1,8
 152 486 152 486 169 508 c 128,-1,9
 186 530 186 530 197 554 c 128,-1,10
 208 578 208 578 208 603 c 1,11,-1
 146 603 l 1,12,13
 144 606 144 606 141 613 c 128,-1,14
 138 620 138 620 138 629 c 0,15,16
 138 641 138 641 143.5 654 c 128,-1,17
 149 667 149 667 159 677.5 c 128,-1,18
 169 688 169 688 183 694.5 c 128,-1,19
 197 701 197 701 214 701 c 0,20,21
 226 701 226 701 238.5 698 c 128,-1,22
 251 695 251 695 261.5 687 c 128,-1,23
 272 679 272 679 278.5 665 c 128,-1,24
 285 651 285 651 287 632 c 1,0,1
486 628 m 1,25,26
 486 597 486 597 471 566.5 c 128,-1,27
 456 536 456 536 435 509.5 c 128,-1,28
 414 483 414 483 391 462 c 128,-1,29
 368 441 368 441 352 429 c 1,30,-1
 294 429 l 1,31,32
 310 445 310 445 329.5 464.5 c 128,-1,33
 349 484 349 484 366 506 c 128,-1,34
 383 528 383 528 394 552 c 128,-1,35
 405 576 405 576 405 601 c 1,36,-1
 344 601 l 1,37,38
 342 603 342 603 338.5 609.5 c 128,-1,39
 335 616 335 616 335 629 c 0,40,41
 335 641 335 641 340.5 653.5 c 128,-1,42
 346 666 346 666 356 676 c 128,-1,43
 366 686 366 686 379.5 692.5 c 128,-1,44
 393 699 393 699 410 699 c 0,45,46
 442 699 442 699 463 681 c 128,-1,47
 484 663 484 663 486 628 c 1,25,26
EndSplineSet
EndChar

StartChar: consonant_part
Encoding: 65540 -1 103
Width: 163
Flags: W
LayerCount: 2
Fore
SplineSet
320 737 m 1,0,1
 308 674 308 674 250 632 c 1,2,3
 194 588 194 588 126 588 c 1,4,-1
 147 683 l 1,5,6
 170 683 170 683 186 699 c 1,7,8
 207 715 207 715 211 736 c 2,9,-1
 225 804 l 1,10,-1
 334 804 l 1,11,-1
 320 737 l 1,0,1
EndSplineSet
EndChar

StartChar: consonant_part1
Encoding: 65541 -1 104
Width: 330
Flags: W
LayerCount: 2
Fore
SplineSet
454 131 m 2,0,1
 442 78 442 78 403 39 c 128,-1,2
 364 0 364 0 318 0 c 2,3,-1
 176 0 l 2,4,5
 130 0 130 0 91 28 c 128,-1,6
 52 56 52 56 27 103 c 1,7,-1
 60 259 l 1,8,9
 79 184 79 184 121 140 c 1,10,11
 165 96 165 96 214 96 c 2,12,-1
 303 96 l 2,13,14
 318 96 318 96 330 112 c 0,15,16
 337 120 337 120 340.5 127.5 c 128,-1,17
 344 135 344 135 348 149 c 1,18,-1
 422 499 l 2,19,20
 424 513 424 513 424 520 c 0,21,22
 424 543 424 543 409 564.5 c 128,-1,23
 394 586 394 586 358 586 c 2,24,-1
 263 586 l 1,25,-1
 284 681 l 1,26,-1
 502 681 l 1,27,-1
 507 586 l 1,28,29
 533 558 533 558 533 521 c 0,30,31
 533 510 533 510 532 505 c 2,32,-1
 454 131 l 2,0,1
EndSplineSet
EndChar

StartChar: short_rr
Encoding: 65542 -1 105
Width: 782
Flags: W
LayerCount: 2
Fore
SplineSet
916 588 m 1,0,-1
 460 588 l 2,1,2
 442 588 442 588 424.5 576.5 c 128,-1,3
 407 565 407 565 403 549 c 2,4,-1
 387 467 l 2,5,6
 383 444 383 444 398 430 c 1,7,8
 413 414 413 414 436 414 c 2,9,-1
 605 414 l 1,10,-1
 586 319 l 1,11,-1
 417 319 l 2,12,13
 391 319 391 319 370 303 c 1,14,15
 348 289 348 289 344 266 c 2,16,-1
 322 164 l 1,17,18
 321 153 321 153 321 148 c 0,19,20
 321 139 321 139 328 123 c 128,-1,21
 335 107 335 107 349 103 c 1,22,-1
 431 103 l 1,23,-1
 412 8 l 1,24,-1
 289 8 l 2,25,26
 247 8 247 8 220 40 c 0,27,28
 202 62 202 62 202 92 c 0,29,30
 202 99 202 99 204 115 c 1,31,-1
 237 273 l 1,32,33
 242 308 242 308 273 335 c 128,-1,34
 304 362 304 362 344 369 c 1,35,36
 307 378 307 378 290.5 400 c 128,-1,37
 274 422 274 422 274 444 c 0,38,39
 274 451 274 451 276 462 c 2,40,-1
 301 585 l 1,41,42
 312 631 312 631 351 656 c 1,43,44
 390 685 390 685 440 685 c 2,45,-1
 936 685 l 1,46,-1
 916 588 l 1,0,-1
EndSplineSet
LCarets2: 1 0
EndChar

StartChar: u0C82
Encoding: 3202 3202 107
Width: 749
Flags: W
LayerCount: 2
Fore
SplineSet
781 149 m 2,0,1
 769 91 769 91 722.5 45.5 c 128,-1,2
 676 0 676 0 627 0 c 2,3,-1
 326 0 l 2,4,5
 268 0 268 0 232 49 c 1,6,7
 209 84 209 84 209 125 c 0,8,9
 209 143 209 143 213 162 c 2,10,-1
 292 540 l 2,11,12
 304 598 304 598 356.5 639 c 128,-1,13
 409 680 409 680 472 680 c 2,14,-1
 746 680 l 2,15,16
 806 680 806 680 842 636 c 1,17,18
 865 601 865 601 865 562 c 0,19,20
 865 546 865 546 861 527 c 2,21,-1
 781 149 l 2,0,1
677 172 m 1,22,-1
 751 519 l 2,23,24
 752 526 752 526 752 537 c 0,25,26
 752 555 752 555 744 567 c 1,27,28
 729 586 729 586 706 586 c 2,29,-1
 488 586 l 2,30,31
 459 586 459 586 431 568 c 1,32,33
 403 547 403 547 399 526 c 2,34,-1
 324 171 l 2,35,36
 323 166 323 166 323 157 c 0,37,38
 323 138 323 138 338 119 c 1,39,40
 360 97 360 97 389 97 c 2,41,-1
 601 97 l 2,42,43
 626 97 626 97 649 120 c 128,-1,44
 672 143 672 143 677 172 c 1,22,-1
EndSplineSet
EndChar

StartChar: u0C83
Encoding: 3203 3203 108
Width: 484
Flags: W
LayerCount: 2
Fore
SplineSet
610 464 m 2,0,1
 602 425 602 425 568.5 397 c 128,-1,2
 535 369 535 369 495 369 c 2,3,-1
 344 369 l 2,4,5
 300 369 300 369 275 399 c 0,6,7
 257 421 257 421 257 451 c 0,8,9
 257 463 257 463 258 470 c 2,10,-1
 280 579 l 1,11,12
 291 623 291 623 328 651 c 128,-1,13
 365 679 365 679 411 679 c 2,14,-1
 548 679 l 2,15,16
 576 679 576 679 598 664 c 1,17,18
 619 653 619 653 630 624 c 0,19,20
 635 613 635 613 635 595 c 0,21,22
 635 588 635 588 633 572 c 1,23,-1
 610 464 l 2,0,1
535 108 m 2,24,25
 526 64 526 64 494 32 c 128,-1,26
 462 0 462 0 426 0 c 2,27,-1
 267 0 l 2,28,29
 223 0 223 0 198 30 c 0,30,31
 179 53 179 53 179 82 c 0,32,33
 179 87 179 87 181 101 c 2,34,-1
 203 210 l 2,35,36
 212 253 212 253 251 282 c 128,-1,37
 290 311 290 311 333 311 c 2,38,-1
 470 311 l 2,39,40
 516 311 516 311 539 278 c 1,41,42
 555 253 555 253 555 223 c 0,43,44
 555 215 555 215 553 199 c 1,45,-1
 535 108 l 2,24,25
507 491 m 2,46,-1
 519 552 l 1,47,48
 523 566 523 566 517 575.5 c 128,-1,49
 511 585 511 585 495 585 c 2,50,-1
 432 585 l 2,51,52
 418 585 418 585 403 576 c 128,-1,53
 388 567 388 567 384 552 c 2,54,-1
 373 498 l 1,55,56
 371 483 371 483 380 473.5 c 128,-1,57
 389 464 389 464 403 464 c 2,58,-1
 471 464 l 2,59,60
 480 464 480 464 492.5 472 c 128,-1,61
 505 480 505 480 507 491 c 2,46,-1
430 122 m 2,62,-1
 442 185 l 1,63,64
 446 200 446 200 442 208 c 256,65,66
 438 216 438 216 430 216 c 2,67,-1
 349 216 l 2,68,69
 334 216 334 216 322.5 208.5 c 128,-1,70
 311 201 311 201 309 190 c 2,71,-1
 297 130 l 1,72,73
 296 116 296 116 300 105 c 1,74,75
 307 94 307 94 316 94 c 2,76,-1
 398 94 l 2,77,78
 409 94 409 94 418.5 101.5 c 128,-1,79
 428 109 428 109 430 122 c 2,62,-1
EndSplineSet
EndChar

StartChar: u0C85
Encoding: 3205 3205 109
Width: 972
Flags: W
LayerCount: 2
Fore
SplineSet
1033 137 m 2,0,1
 1021 81 1021 81 973 40.5 c 128,-1,2
 925 0 925 0 868 0 c 2,3,-1
 341 0 l 2,4,5
 278 0 278 0 241 42 c 1,6,7
 215 70 215 70 215 109 c 0,8,9
 215 127 215 127 217 136 c 2,10,-1
 303 546 l 2,11,12
 315 603 315 603 363 642 c 128,-1,13
 411 681 411 681 467 681 c 2,14,-1
 643 681 l 1,15,-1
 597 463 l 1,16,-1
 490 463 l 1,17,-1
 515 586 l 1,18,-1
 473 586 l 2,19,20
 451 586 451 586 432 563 c 1,21,22
 410 541 410 541 403 505 c 2,23,-1
 332 172 l 2,24,25
 331 167 331 167 331 158 c 0,26,27
 331 137 331 137 345 119 c 1,28,29
 370 97 370 97 398 97 c 2,30,-1
 840 97 l 2,31,32
 861 97 861 97 882 110 c 128,-1,33
 903 123 903 123 918 145 c 1,34,35
 926 159 926 159 930 168 c 128,-1,36
 934 177 934 177 936 192 c 1,37,-1
 1008 533 l 2,38,39
 1012 554 1012 554 1001 572 c 1,40,41
 986 587 986 587 965 587 c 2,42,-1
 923 587 l 1,43,-1
 908 513 l 2,44,45
 906 499 906 499 906 494 c 0,46,47
 906 452 906 452 955 410 c 1,48,-1
 936 315 l 1,49,-1
 526 315 l 1,50,-1
 545 410 l 1,51,-1
 832 410 l 1,52,53
 797 454 797 454 797 490 c 0,54,55
 797 499 797 499 798 503 c 2,56,-1
 835 680 l 1,57,-1
 998 680 l 2,58,59
 1041 680 1041 680 1069 662 c 1,60,61
 1101 646 1101 646 1115 617 c 1,62,63
 1123 598 1123 598 1123 579 c 0,64,65
 1123 563 1123 563 1121 555 c 2,66,-1
 1033 137 l 2,0,1
EndSplineSet
EndChar

StartChar: u0C86
Encoding: 3206 3206 110
Width: 1041
Flags: W
LayerCount: 2
Fore
SplineSet
1178 489 m 1,0,1
 1169 434 1169 434 1123 393.5 c 128,-1,2
 1077 353 1077 353 1028 353 c 2,3,-1
 986 353 l 1,4,5
 1016 309 1016 309 1012 286 c 2,6,-1
 975 104 l 2,7,8
 966 61 966 61 924 30.5 c 128,-1,9
 882 0 882 0 831 0 c 2,10,-1
 318 2 l 2,11,12
 265 2 265 2 236 42 c 0,13,14
 215 70 215 70 215 106 c 0,15,16
 215 121 215 121 219 137 c 2,17,-1
 305 547 l 2,18,19
 317 604 317 604 373.5 643 c 128,-1,20
 430 682 430 682 497 682 c 2,21,-1
 634 682 l 1,22,-1
 588 464 l 1,23,-1
 479 464 l 1,24,-1
 504 587 l 1,25,-1
 482 587 l 2,26,27
 459 587 459 587 437 568.5 c 128,-1,28
 415 550 415 550 411 528 c 2,29,-1
 336 173 l 2,30,31
 335 166 335 166 335 155 c 0,32,33
 335 134 335 134 344 119 c 1,34,35
 362 97 362 97 387 97 c 2,36,-1
 797 97 l 2,37,38
 825 97 825 97 850.5 120 c 128,-1,39
 876 143 876 143 881 173 c 1,40,-1
 906 287 l 1,41,42
 911 315 911 315 884 355 c 1,43,-1
 606 355 l 1,44,-1
 625 450 l 1,45,-1
 871 450 l 1,46,47
 853 487 853 487 854 501 c 1,48,-1
 872 583 l 2,49,50
 880 623 880 623 921 650 c 128,-1,51
 962 677 962 677 1013 677 c 2,52,-1
 1101 677 l 2,53,54
 1151 677 1151 677 1176 644 c 1,55,56
 1197 619 1197 619 1197 589 c 0,57,58
 1197 581 1197 581 1195 565 c 1,59,-1
 1178 489 l 1,0,1
1069 497 m 1,60,-1
 1080 544 l 2,61,62
 1081 551 1081 551 1081 562 c 0,63,64
 1081 584 1081 584 1062 584 c 2,65,-1
 1022 584 l 2,66,67
 1006 584 1006 584 990 571.5 c 128,-1,68
 974 559 974 559 973 544 c 1,69,-1
 966 511 l 2,70,71
 964 500 964 500 964 495 c 0,72,73
 964 483 964 483 967.5 475 c 128,-1,74
 971 467 971 467 980 452 c 1,75,-1
 1026 452 l 2,76,77
 1041 452 1041 452 1053.5 464.5 c 128,-1,78
 1066 477 1066 477 1069 497 c 1,60,-1
EndSplineSet
EndChar

StartChar: u0C87
Encoding: 3207 3207 111
Width: 785
Flags: W
LayerCount: 2
Fore
SplineSet
812 0 m 1,0,-1
 744 0 l 2,1,2
 694 0 694 0 665 32 c 0,3,4
 643 57 643 57 643 86 c 0,5,6
 643 91 643 91 645 107 c 1,7,-1
 659 175 l 1,8,-1
 550 175 l 2,9,10
 504 175 504 175 479 201 c 0,11,12
 460 220 460 220 460 247 c 0,13,14
 460 256 460 256 461 261 c 2,15,-1
 476 335 l 2,16,17
 481 361 481 361 514 383 c 1,18,19
 550 402 550 402 589 402 c 2,20,-1
 706 402 l 2,21,22
 732 402 732 402 753 386 c 1,23,24
 771 368 771 368 775 343 c 1,25,-1
 815 534 l 2,26,27
 819 556 819 556 804 567 c 1,28,29
 792 579 792 579 763 579 c 2,30,-1
 689 579 l 2,31,32
 661 579 661 579 637.5 561.5 c 128,-1,33
 614 544 614 544 610 525 c 2,34,-1
 596 457 l 1,35,-1
 489 457 l 1,36,-1
 501 520 l 2,37,38
 506 542 506 542 489.5 560.5 c 128,-1,39
 473 579 473 579 445 579 c 2,40,-1
 354 579 l 2,41,42
 329 579 329 579 308 562.5 c 128,-1,43
 287 546 287 546 283 525 c 2,44,-1
 269 457 l 2,45,46
 268 453 268 453 268 448.5 c 128,-1,47
 268 444 268 444 268 443 c 0,48,49
 268 429 268 429 276 421 c 1,50,51
 284 405 284 405 302 405 c 2,52,-1
 324 405 l 1,53,-1
 305 310 l 1,54,-1
 256 310 l 2,55,56
 205 310 205 310 175 349 c 0,57,58
 154 377 154 377 154 413 c 0,59,60
 154 429 154 429 156 438 c 2,61,-1
 177 540 l 2,62,63
 185 577 185 577 211.5 608.5 c 128,-1,64
 238 640 238 640 273.5 657.5 c 128,-1,65
 309 675 309 675 348 675 c 2,66,-1
 478 675 l 2,67,68
 517 675 517 675 544 656.5 c 128,-1,69
 571 638 571 638 571 608 c 1,70,71
 590 640 590 640 620 656 c 1,72,73
 648 675 648 675 681 675 c 2,74,-1
 804 675 l 2,75,76
 869 675 869 675 901 635 c 1,77,78
 926 607 926 607 926 568 c 0,79,80
 926 552 926 552 922 536 c 2,81,-1
 886 364 l 2,82,83
 867 276 867 276 768 195 c 1,84,-1
 754 127 l 1,85,86
 750 115 750 115 758 103 c 1,87,88
 769 92 769 92 778 92 c 2,89,-1
 827 92 l 1,90,-1
 812 0 l 1,0,-1
673 269 m 1,91,-1
 677 283 l 1,92,93
 682 311 682 311 656 311 c 2,94,-1
 593 311 l 2,95,96
 585 311 585 311 579 306.5 c 128,-1,97
 573 302 573 302 571 293 c 0,98,99
 570 285 570 285 574 278 c 128,-1,100
 578 271 578 271 585 271 c 2,101,-1
 673 269 l 1,91,-1
EndSplineSet
EndChar

StartChar: u0C88
Encoding: 3208 3208 112
Width: 1219
Flags: W
LayerCount: 2
Fore
SplineSet
1335 404 m 2,0,1
 1327 364 1327 364 1290 324 c 1,2,3
 1250 287 1250 287 1199 269 c 1,4,5
 1260 176 1260 176 1255 148 c 2,6,-1
 1241 80 l 1,7,8
 1233 48 1233 48 1211 26 c 128,-1,9
 1189 4 1189 4 1163 4 c 2,10,-1
 940 4 l 1,11,-1
 959 99 l 1,12,-1
 1101 99 l 2,13,14
 1113 99 1113 99 1128 110 c 1,15,16
 1142 124 1142 124 1143 135 c 1,17,-1
 1144 140 l 1,18,19
 1148 166 1148 166 1126 188 c 1,20,-1
 1076 262 l 1,21,-1
 857 262 l 1,22,-1
 829 134 l 2,23,24
 817 81 817 81 772.5 42 c 128,-1,25
 728 3 728 3 672 3 c 2,26,-1
 329 3 l 2,27,28
 285 3 285 3 257 38 c 0,29,30
 238 61 238 61 238 96 c 0,31,32
 238 103 238 103 240 119 c 1,33,-1
 270 261 l 1,34,-1
 163 261 l 1,35,-1
 182 356 l 1,36,-1
 289 356 l 1,37,-1
 308 445 l 1,38,39
 322 517 322 517 420 587 c 1,40,-1
 325 587 l 1,41,-1
 346 682 l 1,42,-1
 837 682 l 2,43,44
 856 682 856 682 868.5 694.5 c 128,-1,45
 881 707 881 707 885 723 c 2,46,-1
 896 777 l 1,47,-1
 1006 777 l 1,48,-1
 995 723 l 1,49,50
 986 673 986 673 942 633 c 1,51,52
 902 593 902 593 844 582 c 1,53,54
 877 556 877 556 892 527 c 0,55,56
 899 515 899 515 901.5 501 c 128,-1,57
 904 487 904 487 902 475 c 2,58,-1
 877 358 l 1,59,-1
 1019 358 l 1,60,61
 1000 380 1000 380 1000 410 c 0,62,63
 1000 422 1000 422 1004 438 c 2,64,-1
 1019 513 l 1,65,66
 1030 560 1030 560 1067 593 c 1,67,68
 1109 626 1109 626 1152 626 c 2,69,-1
 1266 626 l 2,70,71
 1316 626 1316 626 1341 590 c 1,72,73
 1360 567 1360 567 1360 531 c 0,74,75
 1360 522 1360 522 1358 506 c 1,76,-1
 1335 404 l 2,0,1
1230 420 m 2,77,-1
 1245 494 l 2,78,79
 1249 510 1249 510 1242 521.5 c 128,-1,80
 1235 533 1235 533 1219 533 c 2,81,-1
 1165 533 l 2,82,83
 1151 533 1151 533 1139.5 522 c 128,-1,84
 1128 511 1128 511 1127 500 c 1,85,-1
 1111 419 l 2,86,87
 1107 401 1107 401 1115 386 c 1,88,-1
 1151 360 l 1,89,90
 1179 356 1179 356 1202.5 376 c 128,-1,91
 1226 396 1226 396 1230 420 c 2,77,-1
767 360 m 1,92,-1
 793 483 l 1,93,94
 795 499 795 499 795 507 c 0,95,96
 795 561 795 561 748 591 c 1,97,-1
 536 591 l 1,98,99
 437 530 437 530 421 453 c 2,100,-1
 400 358 l 1,101,-1
 767 360 l 1,92,-1
730 175 m 1,102,-1
 748 263 l 1,103,-1
 380 263 l 1,104,-1
 358 161 l 2,105,106
 354 138 354 138 366.5 118.5 c 128,-1,107
 379 99 379 99 400 99 c 2,108,-1
 644 99 l 2,109,110
 670 99 670 99 695 120.5 c 128,-1,111
 720 142 720 142 730 175 c 1,102,-1
EndSplineSet
EndChar

StartChar: u0C89
Encoding: 3209 3209 113
Width: 1463
Flags: W
LayerCount: 2
Fore
SplineSet
1526 145 m 2,0,1
 1518 106 1518 106 1493 73 c 1,2,3
 1471 40 1471 40 1434 20.5 c 128,-1,4
 1397 1 1397 1 1361 1 c 2,5,-1
 1175 1 l 2,6,7
 1133 1 1133 1 1102.5 19.5 c 128,-1,8
 1072 38 1072 38 1057 73 c 1,9,10
 1049 96 1049 96 1049 121 c 0,11,12
 1049 127 1049 127 1051 143 c 1,13,-1
 1135 539 l 2,14,15
 1139 560 1139 560 1127.5 572.5 c 128,-1,16
 1116 585 1116 585 1095 585 c 2,17,-1
 918 585 l 2,18,19
 903 585 903 585 884 573 c 1,20,21
 868 558 868 558 864 540 c 2,22,-1
 779 136 l 2,23,24
 770 97 770 97 745.5 67 c 128,-1,25
 721 37 721 37 682 18.5 c 128,-1,26
 643 0 643 0 601 0 c 2,27,-1
 355 0 l 2,28,29
 288 0 288 0 251 46 c 1,30,31
 223 78 223 78 223 121 c 0,32,33
 223 137 223 137 227 156 c 2,34,-1
 306 531 l 2,35,36
 314 571 314 571 337 606 c 1,37,38
 349 622 349 622 365.5 636 c 128,-1,39
 382 650 382 650 398 659 c 1,40,41
 437 678 437 678 470 678 c 2,42,-1
 674 678 l 1,43,-1
 632 483 l 2,44,45
 620 427 620 427 578 389.5 c 128,-1,46
 536 352 536 352 487 352 c 2,47,-1
 413 352 l 1,48,-1
 432 447 l 1,49,-1
 478 447 l 2,50,51
 483 447 483 447 490.5 449.5 c 128,-1,52
 498 452 498 452 505 456 c 1,53,54
 517 465 517 465 521 481 c 2,55,-1
 542 581 l 1,56,-1
 474 581 l 2,57,58
 451 581 451 581 435 565 c 1,59,60
 414 549 414 549 410 528 c 2,61,-1
 331 153 l 2,62,63
 330 149 330 149 330 140 c 0,64,65
 330 122 330 122 339 111 c 0,66,67
 355 92 355 92 376 92 c 2,68,-1
 608 92 l 2,69,70
 630 92 630 92 646 107 c 128,-1,71
 662 122 662 122 669 145 c 1,72,-1
 751 537 l 2,73,74
 763 597 763 597 809 636 c 1,75,76
 855 678 855 678 909 678 c 2,77,-1
 1127 678 l 2,78,79
 1169 678 1169 678 1198 659.5 c 128,-1,80
 1227 641 1227 641 1238 612 c 1,81,82
 1242 598 1242 598 1243 591 c 128,-1,83
 1244 584 1244 584 1244 569 c 0,84,85
 1244 561 1244 561 1242 545 c 1,86,-1
 1160 156 l 2,87,88
 1159 151 1159 151 1159 142 c 0,89,90
 1159 128 1159 128 1166 115 c 1,91,92
 1182 96 1182 96 1200 96 c 2,93,-1
 1355 96 l 2,94,95
 1377 96 1377 96 1393 111 c 128,-1,96
 1409 126 1409 126 1416 149 c 1,97,-1
 1497 532 l 2,98,99
 1501 550 1501 550 1489 561 c 1,100,101
 1481 572 1481 572 1458 572 c 2,102,-1
 1439 572 l 1,103,-1
 1462 681 l 1,104,-1
 1522 681 l 2,105,106
 1573 681 1573 681 1596 645 c 1,107,108
 1614 622 1614 622 1614 589 c 0,109,110
 1614 570 1614 570 1612 561 c 2,111,-1
 1526 145 l 2,0,1
EndSplineSet
EndChar

StartChar: u0C8A
Encoding: 3210 3210 114
Width: 1752
Flags: W
LayerCount: 2
Fore
SplineSet
1811 137 m 2,0,1
 1799 79 1799 79 1756 43 c 1,2,3
 1710 1 1710 1 1661 1 c 2,4,-1
 1605 1 l 2,5,6
 1556 1 1556 1 1527 37 c 0,7,8
 1508 60 1508 60 1508 93 c 0,9,10
 1508 112 1508 112 1510 121 c 2,11,-1
 1529 216 l 1,12,-1
 1638 216 l 1,13,-1
 1619 121 l 2,14,15
 1617 113 1617 113 1622 102 c 1,16,17
 1630 94 1630 94 1638 94 c 2,18,-1
 1671 94 l 2,19,20
 1680 94 1680 94 1687 103.5 c 128,-1,21
 1694 113 1694 113 1699 129 c 1,22,-1
 1781 516 l 2,23,24
 1783 530 1783 530 1783 537 c 0,25,26
 1783 552 1783 552 1775 564 c 0,27,28
 1763 583 1763 583 1741 583 c 2,29,-1
 1606 583 l 2,30,31
 1577 583 1577 583 1554 563 c 128,-1,32
 1531 543 1531 543 1524 515 c 1,33,-1
 1447 154 l 2,34,35
 1439 112 1439 112 1413 75 c 0,36,37
 1402 60 1402 60 1385.5 45 c 128,-1,38
 1369 30 1369 30 1353 21 c 0,39,40
 1317 -1 1317 -1 1280 -1 c 2,41,-1
 1082 -1 l 2,42,43
 1026 -1 1026 -1 1001 43 c 1,44,45
 982 73 982 73 982 109 c 0,46,47
 982 127 982 127 986 146 c 2,48,-1
 1067 529 l 2,49,50
 1071 551 1071 551 1058.5 567 c 128,-1,51
 1046 583 1046 583 1024 583 c 2,52,-1
 887 583 l 2,53,54
 865 583 865 583 845 563.5 c 128,-1,55
 825 544 825 544 821 523 c 2,56,-1
 744 159 l 2,57,58
 729 91 729 91 673 43.5 c 128,-1,59
 617 -4 617 -4 552 -4 c 2,60,-1
 369 -4 l 2,61,62
 295 -4 295 -4 253 42 c 0,63,64
 223 74 223 74 223 120 c 0,65,66
 223 136 223 136 227 152 c 2,67,-1
 308 535 l 2,68,69
 320 595 320 595 373.5 635.5 c 128,-1,70
 427 676 427 676 491 676 c 2,71,-1
 677 676 l 1,72,-1
 640 499 l 2,73,74
 628 443 628 443 581 404 c 1,75,76
 537 364 537 364 481 364 c 2,77,-1
 435 364 l 1,78,-1
 456 459 l 1,79,-1
 488 459 l 2,80,81
 499 459 499 459 514 468 c 1,82,83
 529 480 529 480 530 492 c 1,84,-1
 548 580 l 1,85,-1
 485 580 l 2,86,87
 460 580 460 580 439 563.5 c 128,-1,88
 418 547 418 547 414 526 c 2,89,-1
 336 157 l 2,90,91
 331 131 331 131 347 109 c 1,92,93
 366 90 366 90 394 90 c 2,94,-1
 566 90 l 2,95,96
 589 90 589 90 608 109 c 0,97,98
 617 117 617 117 624 130 c 128,-1,99
 631 143 631 143 633 157 c 2,100,-1
 711 526 l 2,101,102
 719 568 719 568 748 603 c 128,-1,103
 777 638 777 638 817.5 656.5 c 128,-1,104
 858 675 858 675 897 675 c 2,105,-1
 1048 675 l 2,106,107
 1091 675 1091 675 1122.5 656.5 c 128,-1,108
 1154 638 1154 638 1168 602 c 0,109,110
 1177 581 1177 581 1177 553 c 0,111,112
 1177 546 1177 546 1175 527 c 1,113,-1
 1094 144 l 2,114,115
 1092 133 1092 133 1092 128 c 0,116,117
 1092 116 1092 116 1100 108 c 1,118,119
 1112 92 1112 92 1134 92 c 2,120,-1
 1262 92 l 2,121,122
 1288 92 1288 92 1310 112 c 128,-1,123
 1332 132 1332 132 1339 160 c 1,124,-1
 1414 515 l 2,125,126
 1418 537 1418 537 1427 556.5 c 128,-1,127
 1436 576 1436 576 1451 597 c 1,128,129
 1480 634 1480 634 1520.5 655.5 c 128,-1,130
 1561 677 1561 677 1603 677 c 2,131,-1
 1761 677 l 2,132,133
 1805 677 1805 677 1838 656 c 1,134,135
 1870 633 1870 633 1882 597 c 1,136,137
 1891 576 1891 576 1891 550 c 0,138,139
 1891 535 1891 535 1887 516 c 2,140,-1
 1811 137 l 2,0,1
EndSplineSet
EndChar

StartChar: u0C8B_base
Encoding: 65543 -1 116
Width: 1000
Flags: W
LayerCount: 2
Fore
SplineSet
1058 145 m 2,0,1
 1046 87 1046 87 1010 44 c 1,2,3
 968 1 968 1 928 1 c 2,4,-1
 724 1 l 2,5,6
 682 1 682 1 649.5 21 c 128,-1,7
 617 41 617 41 605 77 c 1,8,9
 579 40 579 40 551 20.5 c 128,-1,10
 523 1 523 1 500 1 c 2,11,-1
 268 1 l 2,12,13
 222 1 222 1 197 30 c 0,14,15
 178 53 178 53 178 82 c 0,16,17
 178 89 178 89 180 103 c 2,18,-1
 219 286 l 1,19,-1
 384 286 l 2,20,21
 434 286 434 286 462 257 c 0,22,23
 485 234 485 234 485 206 c 0,24,25
 485 201 485 201 483 187 c 2,26,-1
 474 138 l 1,27,-1
 365 138 l 1,28,-1
 372 173 l 2,29,30
 376 192 376 192 351 192 c 2,31,-1
 309 192 l 1,32,-1
 298 138 l 1,33,34
 297 122 297 122 302 110 c 1,35,36
 313 98 313 98 329 98 c 2,37,-1
 477 98 l 2,38,39
 506 98 506 98 528 113 c 128,-1,40
 550 128 550 128 557 151 c 1,41,-1
 641 548 l 2,42,43
 645 567 645 567 630.5 577.5 c 128,-1,44
 616 588 616 588 590 588 c 2,45,-1
 446 588 l 2,46,47
 438 588 438 588 429 586 c 128,-1,48
 420 584 420 584 405 577 c 128,-1,49
 390 570 390 570 386 555 c 2,50,-1
 371 480 l 1,51,-1
 413 480 l 2,52,53
 428 480 428 480 442 491 c 128,-1,54
 456 502 456 502 460 520 c 2,55,-1
 465 548 l 1,56,-1
 574 548 l 1,57,-1
 567 515 l 2,58,59
 555 462 555 462 514.5 423 c 128,-1,60
 474 384 474 384 426 384 c 2,61,-1
 240 384 l 1,62,-1
 280 575 l 1,63,64
 291 619 291 619 332 651 c 128,-1,65
 373 683 373 683 426 683 c 2,66,-1
 645 683 l 2,67,68
 701 683 701 683 733 646 c 0,69,70
 755 620 755 620 755 584 c 0,71,72
 755 566 755 566 753 557 c 2,73,-1
 674 181 l 1,74,75
 683 146 683 146 707.5 122.5 c 128,-1,76
 732 99 732 99 758 99 c 2,77,-1
 886 99 l 2,78,79
 909 99 909 99 928 118 c 0,80,81
 937 126 937 126 944 139 c 128,-1,82
 951 152 951 152 953 166 c 2,83,-1
 1025 507 l 1,84,85
 1027 523 1027 523 1027 530 c 0,86,87
 1027 549 1027 549 1016 564 c 0,88,89
 1000 587 1000 587 970 587 c 2,90,-1
 825 587 l 1,91,-1
 846 682 l 1,92,-1
 1004 682 l 2,93,94
 1027 682 1027 682 1050 701 c 1,95,96
 1069 720 1069 720 1076 749 c 1,97,-1
 1087 803 l 1,98,-1
 1196 803 l 1,99,-1
 1182 735 l 2,100,101
 1174 699 1174 699 1151 671 c 1,102,103
 1130 642 1130 642 1093 627 c 1,104,105
 1123 609 1123 609 1131 585.5 c 128,-1,106
 1139 562 1139 562 1139 556.5 c 128,-1,107
 1139 551 1139 551 1139 544 c 0,108,109
 1139 536 1139 536 1137 520 c 1,110,-1
 1058 145 l 2,0,1
EndSplineSet
EndChar

StartChar: u0C8C_base
Encoding: 65544 -1 118
Width: 785
Flags: W
LayerCount: 2
Fore
SplineSet
728 145 m 1,0,1
 724 123 724 123 739 114 c 0,2,3
 746 110 746 110 754 110 c 0,4,5
 777 110 777 110 792 128 c 1,6,-1
 919 266 l 1,7,-1
 990 210 l 1,8,-1
 839 54 l 1,9,10
 810 17 810 17 773 9 c 0,11,12
 750 4 750 4 713 15.5 c 128,-1,13
 676 27 676 27 653 53 c 1,14,15
 638 72 638 72 633 79 c 0,16,17
 618 101 618 101 618 126 c 0,18,19
 618 131 618 131 620 143.5 c 128,-1,20
 622 156 622 156 696 247 c 0,21,22
 719 276 719 276 769 336 c 1,23,24
 795 385 795 385 809 467 c 0,25,26
 813 493 813 493 817 539 c 1,27,28
 821 561 821 561 806 572 c 1,29,30
 794 584 794 584 765 584 c 2,31,-1
 691 584 l 2,32,33
 663 584 663 584 639.5 566.5 c 128,-1,34
 616 549 616 549 612 530 c 2,35,-1
 598 462 l 1,36,-1
 491 462 l 1,37,-1
 503 525 l 2,38,39
 508 547 508 547 491.5 565.5 c 128,-1,40
 475 584 475 584 447 584 c 2,41,-1
 356 584 l 2,42,43
 331 584 331 584 310 567.5 c 128,-1,44
 289 551 289 551 285 530 c 2,45,-1
 271 462 l 2,46,47
 270 458 270 458 270 453.5 c 128,-1,48
 270 449 270 449 270 448 c 0,49,50
 270 434 270 434 278 426 c 1,51,52
 286 410 286 410 304 410 c 2,53,-1
 326 410 l 1,54,-1
 307 315 l 1,55,-1
 258 315 l 2,56,57
 207 315 207 315 177 354 c 0,58,59
 156 382 156 382 156 418 c 0,60,61
 156 434 156 434 158 443 c 2,62,-1
 179 545 l 2,63,64
 187 582 187 582 213.5 613.5 c 128,-1,65
 240 645 240 645 275.5 662.5 c 128,-1,66
 311 680 311 680 350 680 c 2,67,-1
 480 680 l 2,68,69
 519 680 519 680 546 661.5 c 128,-1,70
 573 643 573 643 573 613 c 1,71,72
 592 645 592 645 622 661 c 1,73,74
 650 680 650 680 683 680 c 2,75,-1
 806 680 l 2,76,77
 871 680 871 680 903 640 c 1,78,79
 928 612 928 612 928 573 c 0,80,81
 928 557 928 557 924 541 c 2,82,-1
 888 369 l 2,83,84
 881 337 881 337 860 307 c 1,85,86
 858 302 858 302 770 202 c 0,87,88
 756 187 756 187 749 180 c 0,89,90
 728 157 728 157 728 145 c 1,0,1
EndSplineSet
EndChar

StartChar: u0C8E
Encoding: 3214 3214 119
Width: 949
Flags: W
LayerCount: 2
Fore
SplineSet
1009 145 m 2,0,1
 997 87 997 87 952.5 44 c 128,-1,2
 908 1 908 1 857 1 c 2,3,-1
 650 1 l 2,4,5
 614 1 614 1 591 20 c 0,6,7
 580 29 580 29 576 40.5 c 128,-1,8
 572 52 572 52 572 67 c 1,9,10
 557 37 557 37 529 18.5 c 128,-1,11
 501 0 501 0 472 0 c 2,12,-1
 314 0 l 2,13,14
 253 0 253 0 217 40 c 0,15,16
 191 68 191 68 191 108 c 0,17,18
 191 116 191 116 193 135 c 1,19,-1
 250 408 l 1,20,-1
 413 408 l 2,21,22
 441 408 441 408 462.5 386.5 c 128,-1,23
 484 365 484 365 492 329 c 1,24,25
 501 301 501 301 501 268 c 0,26,27
 501 253 501 253 500 246 c 1,28,-1
 394 218 l 1,29,30
 394 247 394 247 392 258 c 128,-1,31
 390 269 390 269 382 287 c 1,32,33
 368 313 368 313 339 313 c 1,34,-1
 307 162 l 1,35,36
 303 134 303 134 317 114 c 1,37,38
 333 95 333 95 359 95 c 2,39,-1
 462 95 l 2,40,41
 488 95 488 95 507 114 c 0,42,43
 519 125 519 125 525 136 c 128,-1,44
 531 147 531 147 535 162 c 2,45,-1
 549 230 l 1,46,-1
 659 230 l 1,47,-1
 647 170 l 2,48,49
 646 165 646 165 646 153 c 0,50,51
 646 135 646 135 658 119 c 0,52,53
 677 96 677 96 705 96 c 2,54,-1
 819 96 l 2,55,56
 848 96 848 96 872.5 118 c 128,-1,57
 897 140 897 140 904 172 c 2,58,-1
 974 499 l 2,59,60
 976 513 976 513 976 520 c 0,61,62
 976 543 976 543 961 561 c 1,63,64
 942 586 942 586 906 586 c 2,65,-1
 815 586 l 1,66,-1
 836 681 l 1,67,-1
 941 681 l 2,68,69
 991 681 991 681 1027 659 c 128,-1,70
 1063 637 1063 637 1079 598 c 0,71,72
 1088 575 1088 575 1088 545 c 0,73,74
 1088 532 1088 532 1084 516 c 2,75,-1
 1009 145 l 2,0,1
EndSplineSet
EndChar

StartChar: u0C8F
Encoding: 3215 3215 120
Width: 946
Flags: W
LayerCount: 2
Fore
SplineSet
1009 161 m 2,0,1
 1001 121 1001 121 969 79 c 1,2,3
 955 63 955 63 936.5 47 c 128,-1,4
 918 31 918 31 896 20 c 1,5,6
 847 -1 847 -1 805 -1 c 2,7,-1
 650 1 l 2,8,9
 617 1 617 1 596 22 c 1,10,11
 587 33 587 33 580 47.5 c 128,-1,12
 573 62 573 62 573 77 c 1,13,14
 520 0 520 0 446 0 c 2,15,-1
 325 0 l 2,16,17
 256 0 256 0 220 44 c 1,18,19
 191 77 191 77 191 119 c 0,20,21
 191 128 191 128 193 147 c 1,22,-1
 247 407 l 1,23,-1
 412 407 l 2,24,25
 438 407 438 407 458 387 c 128,-1,26
 478 367 478 367 489 328 c 0,27,28
 494 313 494 313 495 293 c 128,-1,29
 496 273 496 273 496 245 c 1,30,-1
 387 217 l 1,31,32
 387 245 387 245 385 258 c 128,-1,33
 383 271 383 271 375 285 c 0,34,35
 361 313 361 313 335 313 c 1,36,-1
 303 162 l 1,37,38
 299 134 299 134 313 114 c 1,39,40
 329 95 329 95 355 95 c 2,41,-1
 457 95 l 2,42,43
 485 95 485 95 504 114 c 0,44,45
 516 125 516 125 522 136 c 128,-1,46
 528 147 528 147 532 162 c 2,47,-1
 546 230 l 1,48,-1
 656 230 l 1,49,-1
 644 170 l 2,50,51
 643 165 643 165 643 154 c 0,52,53
 643 136 643 136 654 117 c 1,54,55
 673 95 673 95 699 95 c 2,56,-1
 816 95 l 2,57,58
 844 95 844 95 869.5 118 c 128,-1,59
 895 141 895 141 900 171 c 1,60,-1
 970 498 l 2,61,62
 972 512 972 512 972 519 c 0,63,64
 972 542 972 542 957 560 c 0,65,66
 936 585 936 585 899 585 c 2,67,-1
 797 585 l 1,68,-1
 790 552 l 2,69,70
 783 516 783 516 743.5 489.5 c 128,-1,71
 704 463 704 463 655 463 c 2,72,-1
 528 463 l 2,73,74
 471 463 471 463 439 499 c 0,75,76
 414 526 414 526 414 563 c 0,77,78
 414 570 414 570 416 584 c 1,79,-1
 437 679 l 1,80,-1
 546 679 l 1,81,-1
 528 598 l 1,82,83
 526 580 526 580 536.5 568.5 c 128,-1,84
 547 557 547 557 561 557 c 2,85,-1
 649 557 l 2,86,87
 664 557 664 557 676 572 c 1,88,89
 690 583 690 583 694 606 c 2,90,-1
 709 678 l 1,91,-1
 933 678 l 2,92,93
 986 678 986 678 1023.5 655 c 128,-1,94
 1061 632 1061 632 1073.5 600 c 128,-1,95
 1086 568 1086 568 1086 542 c 0,96,97
 1086 527 1086 527 1082 511 c 2,98,-1
 1009 161 l 2,0,1
EndSplineSet
EndChar

StartChar: u0C90
Encoding: 3216 3216 121
Width: 1003
Flags: W
LayerCount: 2
Fore
SplineSet
1061 147 m 2,0,1
 1049 86 1049 86 996 42 c 128,-1,2
 943 -2 943 -2 882 -2 c 2,3,-1
 727 0 l 2,4,5
 687 0 687 0 657 22 c 1,6,7
 627 47 627 47 619 82 c 1,8,9
 590 45 590 45 554.5 23 c 128,-1,10
 519 1 519 1 487 1 c 2,11,-1
 315 1 l 2,12,13
 254 1 254 1 218 41 c 0,14,15
 192 69 192 69 192 109 c 0,16,17
 192 117 192 117 194 136 c 1,18,-1
 226 285 l 1,19,20
 238 348 238 348 291 392 c 128,-1,21
 344 436 344 436 408 436 c 2,22,-1
 598 436 l 1,23,-1
 568 294 l 1,24,25
 563 265 563 265 547 240 c 128,-1,26
 531 215 531 215 506 194 c 0,27,28
 453 151 453 151 388 146 c 1,29,-1
 381 241 l 1,30,31
 393 241 393 241 407 245.5 c 128,-1,32
 421 250 421 250 432 258 c 0,33,34
 455 274 455 274 459 296 c 2,35,-1
 467 336 l 1,36,-1
 421 336 l 2,37,38
 389 336 389 336 366 318 c 1,39,40
 340 303 340 303 333 277 c 1,41,-1
 312 174 l 1,42,43
 310 158 310 158 310 153 c 0,44,45
 310 137 310 137 321 119 c 1,46,47
 333 94 333 94 362 94 c 2,48,-1
 479 94 l 2,49,50
 514 94 514 94 545 119 c 128,-1,51
 576 144 576 144 584 176 c 1,52,-1
 592 216 l 1,53,-1
 702 216 l 1,54,-1
 694 176 l 2,55,56
 692 162 692 162 692 155 c 0,57,58
 692 134 692 134 706 119 c 1,59,60
 722 94 722 94 755 94 c 2,61,-1
 886 94 l 2,62,63
 909 94 909 94 932 117 c 1,64,65
 954 143 954 143 962 175 c 1,66,-1
 1033 516 l 2,67,68
 1035 530 1035 530 1035 536 c 0,69,70
 1035 551 1035 551 1025.5 567 c 128,-1,71
 1016 583 1016 583 988 583 c 2,72,-1
 871 583 l 2,73,74
 848 583 848 583 828.5 565.5 c 128,-1,75
 809 548 809 548 805 523 c 1,76,-1
 797 488 l 1,77,-1
 688 488 l 1,78,-1
 697 528 l 1,79,80
 701 551 701 551 682 566 c 0,81,82
 673 573 673 573 659 577 c 128,-1,83
 645 581 645 581 627 581 c 2,84,-1
 458 581 l 2,85,86
 435 581 435 581 412 562 c 1,87,88
 389 547 389 547 370 514 c 1,89,-1
 300 568 l 1,90,91
 332 619 332 619 375 647.5 c 128,-1,92
 418 676 418 676 458 676 c 2,93,-1
 670 676 l 2,94,95
 713 676 713 676 738.5 655 c 128,-1,96
 764 634 764 634 768 604 c 1,97,98
 791 637 791 637 823 656 c 1,99,100
 839 667 839 667 854 671 c 128,-1,101
 869 675 869 675 887 675 c 2,102,-1
 1024 675 l 2,103,104
 1066 675 1066 675 1096.5 657.5 c 128,-1,105
 1127 640 1127 640 1139 608 c 0,106,107
 1147 587 1147 587 1147 564 c 0,108,109
 1147 557 1147 557 1145 541 c 1,110,-1
 1061 147 l 2,0,1
EndSplineSet
EndChar

StartChar: u0C92
Encoding: 3218 3218 122
Width: 918
Flags: W
LayerCount: 2
Fore
SplineSet
968 117 m 2,0,1
 957 66 957 66 922 36 c 1,2,3
 889 1 889 1 847 1 c 2,4,-1
 637 1 l 2,5,6
 605 1 605 1 586 19 c 1,7,8
 567 34 567 34 563 63 c 1,9,10
 551 36 551 36 526 18.5 c 128,-1,11
 501 1 501 1 476 1 c 2,12,-1
 285 1 l 2,13,14
 232 1 232 1 200 33 c 1,15,16
 175 56 175 56 175 86 c 0,17,18
 175 91 175 91 177 107 c 1,19,-1
 209 258 l 1,20,-1
 344 337 l 2,21,22
 426 384 426 384 457.5 407 c 128,-1,23
 489 430 489 430 496 455 c 1,24,-1
 514 543 l 2,25,26
 518 562 518 562 508.5 572.5 c 128,-1,27
 499 583 499 583 483 583 c 2,28,-1
 388 583 l 1,29,-1
 377 529 l 1,30,31
 375 514 375 514 383 501.5 c 128,-1,32
 391 489 391 489 409 489 c 2,33,-1
 423 489 l 1,34,-1
 402 393 l 1,35,-1
 355 393 l 2,36,37
 308 393 308 393 283 433 c 0,38,39
 264 463 264 463 264 498 c 0,40,41
 264 512 264 512 268 528 c 2,42,-1
 300 677 l 1,43,-1
 532 677 l 2,44,45
 565 677 565 677 590.5 663 c 128,-1,46
 616 649 616 649 625 630.5 c 128,-1,47
 634 612 634 612 634 597 c 0,48,49
 634 592 634 592 632 578 c 2,50,-1
 599 420 l 1,51,52
 595 395 595 395 565 372 c 0,53,54
 547 358 547 358 532 349 c 0,55,56
 495 326 495 326 425 284 c 2,57,-1
 313 217 l 1,58,-1
 299 149 l 2,59,60
 298 144 298 144 298 136 c 0,61,62
 298 124 298 124 308.5 110 c 128,-1,63
 319 96 319 96 341 96 c 2,64,-1
 464 96 l 2,65,66
 485 96 485 96 506 114 c 1,67,68
 528 136 528 136 532 158 c 2,69,-1
 541 204 l 1,70,-1
 650 204 l 1,71,-1
 642 164 l 2,72,73
 641 159 641 159 641 150 c 0,74,75
 641 134 641 134 650 118 c 1,76,77
 669 99 669 99 694 99 c 2,78,-1
 803 99 l 2,79,80
 824 99 824 99 845 117 c 1,81,82
 867 139 867 139 871 161 c 2,83,-1
 892 257 l 2,84,85
 896 277 896 277 885.5 289.5 c 128,-1,86
 875 302 875 302 856 302 c 2,87,-1
 820 302 l 1,88,-1
 839 397 l 1,89,-1
 934 397 l 2,90,91
 978 397 978 397 996 371 c 1,92,93
 1012 352 1012 352 1012 326 c 0,94,95
 1012 321 1012 321 1010 305 c 1,96,-1
 968 117 l 2,0,1
EndSplineSet
EndChar

StartChar: u0C93
Encoding: 3219 3219 123
Width: 918
Flags: W
LayerCount: 2
Fore
SplineSet
971 131 m 1,0,1
 963 94 963 94 941.5 65 c 128,-1,2
 920 36 920 36 893 18.5 c 128,-1,3
 866 1 866 1 836 1 c 2,4,-1
 639 1 l 2,5,6
 607 1 607 1 588 19 c 1,7,8
 569 34 569 34 565 63 c 1,9,10
 557 50 557 50 545.5 39.5 c 128,-1,11
 534 29 534 29 520 18 c 1,12,13
 491 2 491 2 465 2 c 2,14,-1
 288 2 l 2,15,16
 235 2 235 2 203 34 c 1,17,18
 178 57 178 57 178 87 c 0,19,20
 178 92 178 92 180 108 c 1,21,-1
 212 259 l 1,22,-1
 347 338 l 2,23,24
 429 385 429 385 460.5 408 c 128,-1,25
 492 431 492 431 499 456 c 1,26,-1
 514 530 l 2,27,28
 518 551 518 551 507 569 c 1,29,30
 495 584 495 584 472 584 c 2,31,-1
 391 584 l 1,32,-1
 380 530 l 1,33,34
 378 515 378 515 386 502.5 c 128,-1,35
 394 490 394 490 412 490 c 2,36,-1
 426 490 l 1,37,-1
 405 394 l 1,38,-1
 358 394 l 2,39,40
 311 394 311 394 286 434 c 0,41,42
 267 464 267 464 267 499 c 0,43,44
 267 513 267 513 271 529 c 2,45,-1
 303 678 l 1,46,-1
 408 678 l 1,47,48
 317 742 317 742 325 782 c 2,49,-1
 343 868 l 1,50,51
 348 901 348 901 388 926 c 1,52,53
 421 949 421 949 468 949 c 2,54,-1
 589 949 l 1,55,-1
 570 853 l 1,56,-1
 484 853 l 2,57,58
 469 853 469 853 457.5 845 c 128,-1,59
 446 837 446 837 445 828 c 2,60,-1
 436 786 l 2,61,62
 428 744 428 744 523 677 c 1,63,-1
 535 677 l 2,64,65
 568 677 568 677 593.5 663 c 128,-1,66
 619 649 619 649 628 630.5 c 128,-1,67
 637 612 637 612 637 597 c 0,68,69
 637 592 637 592 635 578 c 2,70,-1
 602 420 l 1,71,72
 598 395 598 395 568 372 c 0,73,74
 550 358 550 358 535 349 c 0,75,76
 498 326 498 326 428 284 c 2,77,-1
 316 217 l 1,78,-1
 302 149 l 2,79,80
 301 144 301 144 301 136 c 0,81,82
 301 124 301 124 311.5 110 c 128,-1,83
 322 96 322 96 344 96 c 2,84,-1
 467 96 l 2,85,86
 488 96 488 96 509 114 c 1,87,88
 531 136 531 136 535 158 c 2,89,-1
 544 204 l 1,90,-1
 653 204 l 1,91,-1
 642 150 l 2,92,93
 637 129 637 129 653.5 112.5 c 128,-1,94
 670 96 670 96 698 96 c 2,95,-1
 807 96 l 2,96,97
 828 96 828 96 849 114 c 1,98,99
 871 136 871 136 875 158 c 2,100,-1
 896 254 l 2,101,102
 900 274 900 274 889.5 286.5 c 128,-1,103
 879 299 879 299 860 299 c 2,104,-1
 824 299 l 1,105,-1
 843 394 l 1,106,-1
 925 394 l 2,107,108
 969 394 969 394 994 358 c 1,109,110
 1010 333 1010 333 1010 301 c 0,111,112
 1010 289 1010 289 1006 273 c 2,113,-1
 971 131 l 1,0,1
EndSplineSet
EndChar

StartChar: u0C94
Encoding: 3220 3220 124
Width: 914
Flags: W
LayerCount: 2
Fore
SplineSet
1078 519 m 1,0,-1
 783 519 l 2,1,2
 737 519 737 519 712 558 c 1,3,4
 694 584 694 584 694 619 c 0,5,6
 694 640 694 640 696 651 c 2,7,-1
 719 764 l 1,8,-1
 965 764 l 1,9,-1
 946 669 l 1,10,-1
 797 669 l 1,11,-1
 793 651 l 1,12,13
 791 636 791 636 799 625 c 1,14,15
 810 614 810 614 825 614 c 2,16,-1
 988 614 l 1,17,-1
 1028 800 l 1,18,19
 1032 828 1032 828 1017.5 844 c 128,-1,20
 1003 860 1003 860 980 860 c 2,21,-1
 692 860 l 1,22,23
 711 845 711 845 707 829 c 1,24,-1
 702 801 l 1,25,26
 694 769 694 769 673 748 c 1,27,28
 647 726 647 726 624 726 c 2,29,-1
 318 726 l 1,30,-1
 339 821 l 1,31,-1
 599 821 l 2,32,33
 611 821 611 821 620.5 830.5 c 128,-1,34
 630 840 630 840 631 847 c 1,35,36
 630 848 630 848 629 848 c 0,37,38
 618 856 618 856 607 860 c 1,39,-1
 347 860 l 1,40,-1
 366 956 l 1,41,-1
 1014 956 l 2,42,43
 1058 956 1058 956 1091.5 938 c 128,-1,44
 1125 920 1125 920 1136 897 c 128,-1,45
 1147 874 1147 874 1147 852 c 0,46,47
 1147 845 1147 845 1145 829 c 1,48,-1
 1078 519 l 1,0,-1
968 118 m 1,49,50
 959 71 959 71 925 36 c 128,-1,51
 891 1 891 1 849 1 c 2,52,-1
 635 1 l 2,53,54
 606 1 606 1 588 19 c 1,55,56
 567 32 567 32 563 62 c 1,57,58
 554 47 554 47 546 39 c 128,-1,59
 538 31 538 31 522 17 c 1,60,61
 497 1 497 1 475 1 c 2,62,-1
 298 1 l 2,63,64
 243 1 243 1 207 43 c 0,65,66
 184 71 184 71 184 110 c 0,67,68
 184 128 184 128 186 137 c 2,69,-1
 212 260 l 1,70,-1
 349 339 l 2,71,72
 441 393 441 393 466.5 412.5 c 128,-1,73
 492 432 492 432 499 457 c 1,74,-1
 520 557 l 2,75,76
 525 585 525 585 485 585 c 2,77,-1
 390 585 l 1,78,-1
 379 531 l 1,79,80
 377 516 377 516 385 503.5 c 128,-1,81
 393 491 393 491 411 491 c 2,82,-1
 437 491 l 1,83,-1
 416 395 l 1,84,-1
 355 395 l 2,85,86
 308 395 308 395 283 435 c 1,87,88
 265 467 265 467 265 500 c 0,89,90
 265 514 265 514 269 530 c 2,91,-1
 301 679 l 1,92,-1
 533 679 l 2,93,94
 566 679 566 679 591 667 c 1,95,96
 616 652 616 652 625.5 633.5 c 128,-1,97
 635 615 635 615 635 600 c 0,98,99
 635 595 635 595 633 581 c 2,100,-1
 600 423 l 2,101,102
 596 402 596 402 577 386 c 1,103,104
 558 367 558 367 525 346 c 2,105,-1
 418 281 l 1,106,-1
 315 220 l 1,107,-1
 301 152 l 2,108,109
 300 147 300 147 300 139 c 0,110,111
 300 127 300 127 309.5 113 c 128,-1,112
 319 99 319 99 342 99 c 2,113,-1
 479 99 l 2,114,115
 497 99 497 99 512 118.5 c 128,-1,116
 527 138 527 138 532 161 c 2,117,-1
 541 207 l 1,118,-1
 650 207 l 1,119,-1
 639 153 l 2,120,121
 635 132 635 132 646.5 115.5 c 128,-1,122
 658 99 658 99 680 99 c 2,123,-1
 789 99 l 2,124,125
 818 99 818 99 842.5 119 c 128,-1,126
 867 139 867 139 871 161 c 2,127,-1
 892 257 l 2,128,129
 896 279 896 279 884.5 290.5 c 128,-1,130
 873 302 873 302 854 302 c 2,131,-1
 821 302 l 1,132,-1
 840 397 l 1,133,-1
 936 397 l 2,134,135
 978 397 978 397 999 371 c 0,136,137
 1014 352 1014 352 1014 326 c 0,138,139
 1014 321 1014 321 1012 305 c 1,140,-1
 968 118 l 1,49,50
EndSplineSet
EndChar

StartChar: u0C95.base
Encoding: 65545 -1 126
Width: 527
Flags: W
AnchorPoint: "s" 278 -62 basechar 0
LayerCount: 2
Fore
SplineSet
800 396 m 1,0,-1
 603 396 l 1,1,2
 654 359 654 359 679 312 c 0,3,4
 698 277 698 277 698 251 c 0,5,6
 698 244 698 244 698 239 c 1,7,8
 696 234 696 234 696 233 c 2,9,-1
 674 130 l 1,10,11
 665 79 665 79 622.5 43.5 c 128,-1,12
 580 8 580 8 534 8 c 2,13,-1
 288 6 l 2,14,15
 245 6 245 6 222 34 c 0,16,17
 214 43 214 43 210 56 c 128,-1,18
 206 69 206 69 206 81 c 0,19,20
 206 92 206 92 207 99 c 2,21,-1
 233 222 l 2,22,23
 247 290 247 290 401 399 c 1,24,-1
 189 399 l 1,25,-1
 210 495 l 1,26,-1
 469 495 l 1,27,-1
 488 590 l 1,28,-1
 229 590 l 1,29,-1
 250 685 l 1,30,-1
 702 685 l 1,31,-1
 681 590 l 1,32,-1
 597 590 l 1,33,-1
 578 495 l 1,34,-1
 824 495 l 1,35,-1
 800 396 l 1,0,-1
574 155 m 1,36,-1
 588 218 l 2,37,38
 590 229 590 229 590 237 c 0,39,40
 590 263 590 263 571 293 c 1,41,42
 548 337 548 337 498 366 c 1,43,44
 360 296 360 296 345 224 c 2,45,-1
 330 150 l 2,46,47
 329 145 329 145 329 137 c 0,48,49
 329 130 329 130 334 117 c 1,50,51
 345 105 345 105 360 105 c 1,52,-1
 359 101 l 1,53,-1
 531 101 l 2,54,55
 546 101 546 101 559 118.5 c 128,-1,56
 572 136 572 136 574 155 c 1,36,-1
EndSplineSet
EndChar

StartChar: u0C95.imathra
Encoding: 65546 -1 127
Width: 620
Flags: W
AnchorPoint: "s" 270 -80 basechar 0
LayerCount: 2
Fore
SplineSet
736 396 m 1,0,-1
 584 396 l 1,1,2
 640 354 640 354 666 303 c 0,3,4
 684 268 684 268 684 236 c 0,5,6
 684 228 684 228 682 214 c 2,7,-1
 657 97 l 2,8,9
 649 58 649 58 615.5 30 c 128,-1,10
 582 2 582 2 543 2 c 2,11,-1
 283 2 l 2,12,13
 237 2 237 2 215 27.5 c 128,-1,14
 193 53 193 53 193 81 c 0,15,16
 193 90 193 90 194 95 c 2,17,-1
 222 226 l 1,18,19
 230 252 230 252 260 281 c 0,20,21
 269 290 269 290 309 323 c 0,22,23
 360 366 360 366 392 392 c 1,24,-1
 229 392 l 1,25,-1
 250 488 l 1,26,-1
 494 488 l 1,27,-1
 598 591 l 1,28,-1
 628 740 l 2,29,30
 632 759 632 759 618 759 c 2,31,-1
 550 759 l 1,32,-1
 538 699 l 2,33,34
 537 694 537 694 544 686 c 128,-1,35
 551 678 551 678 562 678 c 2,36,-1
 576 678 l 1,37,-1
 555 583 l 1,38,-1
 501 583 l 2,39,40
 464 583 464 583 439 608 c 1,41,42
 423 627 423 627 423 649 c 0,43,44
 423 658 423 658 424 663 c 2,45,-1
 464 853 l 1,46,-1
 669 853 l 2,47,48
 708 853 708 853 731 827 c 1,49,50
 745 809 745 809 745 783 c 0,51,52
 745 768 745 768 743 760 c 2,53,-1
 704 577 l 1,54,-1
 612 488 l 1,55,-1
 756 488 l 1,56,-1
 736 396 l 1,0,-1
556 133 m 1,57,-1
 572 214 l 2,58,59
 581 257 581 257 479 359 c 1,60,61
 335 254 335 254 324 208 c 1,62,-1
 306 119 l 2,63,64
 304 110 304 110 313 101 c 128,-1,65
 322 92 322 92 336 92 c 2,66,-1
 518 92 l 2,67,68
 530 92 530 92 540.5 104.5 c 128,-1,69
 551 117 551 117 556 133 c 1,57,-1
EndSplineSet
LCarets2: 1 0
EndChar

StartChar: u0C95.sub
Encoding: 65547 -1 128
Width: 163
Flags: W
LayerCount: 2
Fore
SplineSet
299 -145 m 1,0,-1
 176 -145 l 1,1,2
 240 -194 240 -194 229 -240 c 1,3,-1
 213 -321 l 2,4,5
 205 -357 205 -357 167.5 -384 c 128,-1,6
 130 -411 130 -411 86 -411 c 2,7,-1
 -69 -411 l 1,8,9
 -118 -407 -118 -407 -142 -381.5 c 128,-1,10
 -166 -356 -166 -356 -166 -324 c 0,11,12
 -166 -312 -166 -312 -165 -307 c 2,13,-1
 -156 -261 l 1,14,15
 -141 -211 -141 -211 -55 -144 c 1,16,-1
 -190 -144 l 1,17,-1
 -172 -62 l 1,18,-1
 38 -62 l 1,19,-1
 117 9 l 1,20,-1
 175 63 l 2,21,22
 189 77 189 77 191 92 c 1,23,-1
 219 223 l 2,24,25
 227 258 227 258 177 280 c 1,26,-1
 251 334 l 1,27,28
 325 273 325 273 317 234 c 2,29,-1
 284 76 l 2,30,31
 280 54 280 54 254 31 c 2,32,-1
 140 -65 l 1,33,-1
 317 -65 l 1,34,-1
 299 -145 l 1,0,-1
126 -291 m 1,35,-1
 135 -243 l 2,36,37
 140 -218 140 -218 118.5 -191 c 128,-1,38
 97 -164 97 -164 55 -149 c 1,39,40
 12 -161 12 -161 -21 -191 c 1,41,42
 -50 -223 -50 -223 -58 -256 c 1,43,-1
 -66 -296 l 2,44,45
 -70 -312 -70 -312 -57.5 -323.5 c 128,-1,46
 -45 -335 -45 -335 -26 -335 c 2,47,-1
 83 -335 l 2,48,49
 99 -335 99 -335 108 -321 c 1,50,51
 120 -309 120 -309 126 -291 c 1,35,-1
EndSplineSet
LCarets2: 1 0
EndChar

StartChar: u0C95_u0CC3.sub
Encoding: 65548 -1 129
Width: 324
Flags: W
LayerCount: 2
Fore
SplineSet
595 -275 m 2,0,1
 583 -332 583 -332 540 -371 c 1,2,3
 500 -411 500 -411 450 -411 c 2,4,-1
 63 -409 l 2,5,6
 19 -409 19 -409 -7 -379 c 0,7,8
 -16 -370 -16 -370 -20 -357 c 128,-1,9
 -24 -344 -24 -344 -24 -329 c 0,10,11
 -24 -315 -24 -315 -23 -308 c 2,12,-1
 16 -125 l 1,13,-1
 167 -125 l 1,14,15
 131 -110 131 -110 105 -87 c 1,16,17
 86 -61 86 -61 90 -46 c 1,18,-1
 109 50 l 2,19,20
 118 94 118 94 197 144 c 1,21,-1
 88 144 l 1,22,-1
 104 226 l 1,23,-1
 297 226 l 1,24,-1
 320 335 l 1,25,-1
 427 335 l 1,26,-1
 404 226 l 1,27,-1
 595 226 l 1,28,-1
 579 144 l 1,29,-1
 434 144 l 1,30,31
 473 129 473 129 491 106 c 1,32,33
 505 84 505 84 505 65 c 0,34,35
 505 56 505 56 504 52 c 2,36,-1
 492 -8 l 1,37,38
 481 -56 481 -56 440 -90 c 128,-1,39
 399 -124 399 -124 350 -124 c 2,40,-1
 262 -124 l 1,41,-1
 246 -205 l 1,42,-1
 97 -205 l 1,43,-1
 79 -293 l 2,44,45
 75 -308 75 -308 87 -316 c 1,46,47
 98 -327 98 -327 116 -327 c 2,48,-1
 443 -327 l 2,49,50
 458 -327 458 -327 473 -306 c 128,-1,51
 488 -285 488 -285 495 -252 c 2,52,-1
 552 22 l 1,53,54
 557 51 557 51 525 65 c 1,55,-1
 607 133 l 1,56,57
 636 120 636 120 654 90 c 1,58,59
 662 67 662 67 662 46 c 0,60,61
 662 34 662 34 661 28 c 2,62,-1
 595 -275 l 2,0,1
397 9 m 2,63,-1
 406 55 l 2,64,65
 408 69 408 69 408 76 c 0,66,67
 408 90 408 90 399 109 c 1,68,69
 390 135 390 135 358 147 c 1,70,-1
 283 147 l 1,71,72
 254 132 254 132 232 107 c 128,-1,73
 210 82 210 82 206 60 c 2,74,-1
 191 -8 l 1,75,76
 190 -23 190 -23 199 -32.5 c 128,-1,77
 208 -42 208 -42 224 -42 c 2,78,-1
 361 -40 l 2,79,80
 372 -40 372 -40 384 -26 c 1,81,82
 393 -11 393 -11 397 9 c 2,63,-1
EndSplineSet
EndChar

StartChar: u0C96
Encoding: 3222 3222 130
Width: 935
Flags: W
LayerCount: 2
Fore
SplineSet
982 106 m 2,0,1
 973 62 973 62 944.5 30 c 128,-1,2
 916 -2 916 -2 887 -2 c 2,3,-1
 742 -2 l 2,4,5
 703 -2 703 -2 668 32 c 1,6,-1
 597 87 l 1,7,8
 578 47 578 47 539.5 22 c 128,-1,9
 501 -3 501 -3 457 -3 c 2,10,-1
 234 -3 l 1,11,12
 211 -1 211 -1 196 3.5 c 128,-1,13
 181 8 181 8 167 20 c 0,14,15
 142 42 142 42 149 74 c 2,16,-1
 177 209 l 2,17,18
 185 246 185 246 217 271 c 128,-1,19
 249 296 249 296 285 296 c 2,20,-1
 482 296 l 2,21,22
 531 296 531 296 543 268 c 1,23,-1
 599 528 l 2,24,25
 601 542 601 542 601 547 c 256,26,27
 601 552 601 552 601 559 c 1,28,29
 599 564 599 564 599 565 c 0,30,31
 588 580 588 580 579 580 c 2,32,-1
 455 580 l 2,33,34
 450 580 450 580 439 568 c 1,35,36
 431 553 431 553 427 535 c 2,37,-1
 406 432 l 1,38,-1
 296 432 l 1,39,-1
 325 576 l 1,40,41
 336 620 336 620 372 646 c 1,42,43
 407 675 407 675 457 675 c 2,44,-1
 627 675 l 2,45,46
 674 675 674 675 699 638 c 0,47,48
 718 610 718 610 718 577 c 0,49,50
 718 563 718 563 714 548 c 2,51,-1
 640 197 l 1,52,-1
 715 115 l 1,53,54
 745 87 745 87 777 87 c 2,55,-1
 840 87 l 2,56,57
 855 87 855 87 866.5 103 c 128,-1,58
 878 119 878 119 882 141 c 2,59,-1
 967 538 l 2,60,61
 971 556 971 556 960 567 c 128,-1,62
 949 578 949 578 930 578 c 2,63,-1
 813 578 l 1,64,-1
 832 673 l 1,65,-1
 995 673 l 2,66,67
 1042 673 1042 673 1064 641 c 1,68,69
 1083 620 1083 620 1083 587 c 0,70,71
 1083 572 1083 572 1082 565 c 2,72,-1
 982 106 l 2,0,1
510 129 m 1,73,-1
 518 164 l 1,74,75
 495 197 495 197 444 197 c 2,76,-1
 321 197 l 2,77,78
 306 197 306 197 293 191.5 c 128,-1,79
 280 186 280 186 278 179 c 2,80,-1
 264 115 l 2,81,82
 262 104 262 104 273 97 c 1,83,84
 278 88 278 88 293 88 c 2,85,-1
 458 88 l 2,86,87
 477 88 477 88 493 101 c 128,-1,88
 509 114 509 114 510 129 c 1,73,-1
EndSplineSet
LCarets2: 1 0
EndChar

StartChar: u0C96.base
Encoding: 65549 -1 131
Width: 772
Flags: W
LayerCount: 2
Fore
SplineSet
985 106 m 2,0,1
 980 81 980 81 971 63 c 128,-1,2
 962 45 962 45 947 30 c 1,3,4
 919 -2 919 -2 890 -2 c 1,5,-1
 888 0 l 1,6,-1
 743 0 l 2,7,8
 706 0 706 0 670 35 c 1,9,-1
 607 82 l 1,10,11
 591 46 591 46 550.5 23 c 128,-1,12
 510 0 510 0 461 0 c 2,13,-1
 237 0 l 2,14,15
 193 0 193 0 168.5 22 c 128,-1,16
 144 44 144 44 151 76 c 2,17,-1
 179 211 l 2,18,19
 187 248 187 248 219.5 273 c 128,-1,20
 252 298 252 298 292 298 c 2,21,-1
 483 298 l 2,22,23
 529 298 529 298 544 270 c 1,24,-1
 602 544 l 2,25,26
 603 549 603 549 603 558 c 0,27,28
 603 565 603 565 597.5 574 c 128,-1,29
 592 583 592 583 577 583 c 2,30,-1
 468 583 l 2,31,32
 456 583 456 583 441 571 c 1,33,34
 429 556 429 556 425 538 c 2,35,-1
 404 435 l 1,36,-1
 295 435 l 1,37,-1
 324 579 l 1,38,39
 335 623 335 623 371 649 c 1,40,41
 406 678 406 678 455 678 c 2,42,-1
 627 678 l 2,43,44
 674 678 674 678 699 641 c 1,45,46
 717 612 717 612 717 582 c 0,47,48
 717 568 717 568 713 552 c 2,49,-1
 639 201 l 1,50,-1
 718 133 l 1,51,52
 755 92 755 92 777 92 c 2,53,-1
 854 92 l 2,54,55
 872 92 872 92 876 114 c 2,56,-1
 951 469 l 2,57,58
 953 478 953 478 953 497 c 0,59,60
 953 529 953 529 935 548 c 1,61,62
 907 581 907 581 861 581 c 2,63,-1
 812 581 l 1,64,-1
 831 676 l 1,65,-1
 942 676 l 1,66,67
 986 671 986 671 1017.5 639.5 c 128,-1,68
 1049 608 1049 608 1058 565 c 0,69,70
 1063 543 1063 543 1063.5 535.5 c 128,-1,71
 1064 528 1064 528 1064 519 c 0,72,73
 1064 497 1064 497 1057 469 c 1,74,-1
 985 106 l 2,0,1
507 133 m 1,75,-1
 512 159 l 1,76,77
 476 201 476 201 420 201 c 2,78,-1
 303 201 l 2,79,80
 295 201 295 201 290.5 198.5 c 128,-1,81
 286 196 286 196 285 196 c 0,82,83
 277 191 277 191 275 184 c 2,84,-1
 261 120 l 2,85,86
 259 109 259 109 270 102 c 1,87,88
 275 93 275 93 290 93 c 2,89,-1
 455 93 l 2,90,91
 473 93 473 93 489.5 105.5 c 128,-1,92
 506 118 506 118 507 133 c 1,75,-1
EndSplineSet
EndChar

StartChar: u0C96.imathra
Encoding: 65550 -1 132
Width: 935
Flags: W
LayerCount: 2
Fore
SplineSet
985 106 m 2,0,1
 980 81 980 81 971 63 c 128,-1,2
 962 45 962 45 947 30 c 1,3,4
 919 -2 919 -2 890 -2 c 1,5,-1
 888 0 l 1,6,-1
 743 0 l 2,7,8
 706 0 706 0 670 35 c 1,9,-1
 600 89 l 1,10,11
 582 52 582 52 545 26.5 c 128,-1,12
 508 1 508 1 469 1 c 2,13,-1
 237 1 l 2,14,15
 193 1 193 1 168.5 23 c 128,-1,16
 144 45 144 45 151 77 c 2,17,-1
 179 212 l 2,18,19
 187 249 187 249 219.5 274 c 128,-1,20
 252 299 252 299 292 299 c 2,21,-1
 483 299 l 2,22,23
 515 299 515 299 543 259 c 1,24,-1
 600 532 l 2,25,26
 601 537 601 537 601 548 c 0,27,28
 601 560 601 560 596 569 c 1,29,30
 584 584 584 584 566 584 c 2,31,-1
 470 584 l 2,32,33
 458 584 458 584 443 572 c 1,34,35
 431 557 431 557 427 539 c 2,36,-1
 406 436 l 1,37,-1
 297 436 l 1,38,-1
 326 580 l 1,39,40
 337 624 337 624 373 650 c 1,41,42
 408 679 408 679 457 679 c 2,43,-1
 629 679 l 2,44,45
 676 679 676 679 701 642 c 1,46,47
 719 613 719 613 719 583 c 0,48,49
 719 569 719 569 715 553 c 2,50,-1
 641 202 l 1,51,-1
 706 134 l 1,52,53
 756 93 756 93 807 93 c 2,54,-1
 842 93 l 2,55,56
 857 93 857 93 867.5 103.5 c 128,-1,57
 878 114 878 114 882 129 c 2,58,-1
 988 634 l 2,59,60
 989 641 989 641 989 652 c 256,61,62
 989 663 989 663 985.5 671 c 128,-1,63
 982 679 982 679 966 679 c 2,64,-1
 931 679 l 1,65,-1
 912 675 l 1,66,67
 908 673 908 673 905.5 669.5 c 128,-1,68
 903 666 903 666 902 662 c 2,69,-1
 897 640 l 1,70,71
 895 621 895 621 902 610.5 c 128,-1,72
 909 600 909 600 917 600 c 2,73,-1
 957 600 l 1,74,-1
 936 504 l 1,75,-1
 848 504 l 2,76,77
 813 504 813 504 792 533 c 0,78,79
 777 555 777 555 777 580 c 0,80,81
 777 585 777 585 779 599 c 2,82,-1
 798 694 l 2,83,84
 806 730 806 730 842 753 c 128,-1,85
 878 776 878 776 918 776 c 2,86,-1
 1027 776 l 2,87,88
 1069 776 1069 776 1092 743 c 1,89,90
 1107 717 1107 717 1107 688 c 0,91,92
 1107 680 1107 680 1105 664 c 1,93,-1
 985 106 l 2,0,1
513 137 m 2,94,-1
 518 158 l 1,95,96
 472 205 472 205 433 205 c 2,97,-1
 317 205 l 2,98,99
 310 205 310 205 304.5 204 c 128,-1,100
 299 203 299 203 290 199 c 128,-1,101
 281 195 281 195 279 188 c 2,102,-1
 268 132 l 1,103,104
 264 120 264 120 269 108 c 1,105,106
 270 97 270 97 281 97 c 2,107,-1
 458 97 l 2,108,109
 476 97 476 97 492.5 109.5 c 128,-1,110
 509 122 509 122 513 137 c 2,94,-1
EndSplineSet
LCarets2: 1 0
EndChar

StartChar: u0C96.sub
Encoding: 65551 -1 133
Width: 155
Flags: W
LayerCount: 2
Fore
SplineSet
256 -237 m 2,0,1
 244 -295 244 -295 194.5 -337.5 c 128,-1,2
 145 -380 145 -380 89 -380 c 2,3,-1
 22 -380 l 2,4,5
 7 -380 7 -380 -50 -359 c 1,6,7
 -124 -408 -124 -408 -161 -408 c 2,8,-1
 -310 -408 l 1,9,-1
 -305 -408 l 2,10,11
 -340 -408 -340 -408 -365 -386 c 1,12,13
 -381 -370 -381 -370 -381 -348 c 0,14,15
 -381 -339 -381 -339 -380 -334 c 2,16,-1
 -366 -274 l 1,17,18
 -361 -241 -361 -241 -329 -214 c 128,-1,19
 -297 -187 -297 -187 -258 -187 c 2,20,-1
 -149 -187 l 2,21,22
 -133 -187 -133 -187 -127 -194 c 1,23,-1
 -70 -240 l 1,24,-1
 -54 -158 l 2,25,26
 -53 -154 -53 -154 -53 -149.5 c 128,-1,27
 -53 -145 -53 -145 -53 -144 c 0,28,29
 -53 -128 -53 -128 -58 -119 c 1,30,31
 -71 -101 -71 -101 -87 -101 c 2,32,-1
 -101 -101 l 1,33,-1
 -113 -155 l 1,34,-1
 -208 -155 l 1,35,-1
 -180 -25 l 1,36,-1
 -49 -25 l 2,37,38
 4 -25 4 -25 30 -64 c 0,39,40
 48 -90 48 -90 48 -125 c 0,41,42
 48 -140 48 -140 44 -159 c 2,43,-1
 16 -296 l 1,44,45
 35 -310 35 -310 49 -310 c 2,46,-1
 103 -310 l 2,47,48
 122 -310 122 -310 137 -290 c 128,-1,49
 152 -270 152 -270 159 -237 c 2,50,-1
 248 187 l 2,51,52
 252 208 252 208 237 222 c 1,53,54
 225 236 225 236 197 236 c 2,55,-1
 143 236 l 1,56,-1
 161 322 l 1,57,-1
 224 322 l 2,58,59
 287 322 287 322 323 286 c 1,60,61
 349 258 349 258 349 221 c 0,62,63
 349 205 349 205 347 197 c 2,64,-1
 256 -237 l 2,0,1
-117 -318 m 1,65,66
 -154 -276 -154 -276 -197 -276 c 2,67,-1
 -257 -276 l 2,68,69
 -278 -276 -278 -276 -282 -290 c 1,70,-1
 -289 -323 l 1,71,72
 -287 -331 -287 -331 -285 -331 c 0,73,74
 -278 -335 -278 -335 -273 -335 c 2,75,-1
 -163 -335 l 2,76,77
 -154 -335 -154 -335 -117 -318 c 1,65,66
EndSplineSet
LCarets2: 1 0
EndChar

StartChar: u0C97.base
Encoding: 65552 -1 135
Width: 550
Flags: W
LayerCount: 2
Fore
SplineSet
740 0 m 1,0,-1
 631 0 l 1,1,-1
 734 487 l 2,2,3
 735 492 735 492 735 504 c 0,4,5
 735 523 735 523 730 535 c 0,6,7
 718 560 718 560 695 572.5 c 128,-1,8
 672 585 672 585 642 585 c 2,9,-1
 539 585 l 2,10,11
 495 585 495 585 457.5 556 c 128,-1,12
 420 527 420 527 412 486 c 2,13,-1
 309 -1 l 1,14,-1
 199 -1 l 1,15,-1
 303 491 l 2,16,17
 315 547 315 547 376 586 c 1,18,-1
 322 586 l 1,19,-1
 343 681 l 1,20,-1
 725 681 l 1,21,22
 792 665 792 665 828 609 c 0,23,24
 850 573 850 573 850 524 c 0,25,26
 850 506 850 506 846 487 c 2,27,-1
 740 0 l 1,0,-1
EndSplineSet
EndChar

StartChar: u0C97.imathra
Encoding: 65553 -1 136
Width: 729
Flags: W
LayerCount: 2
Fore
SplineSet
754 0 m 1,0,-1
 645 0 l 1,1,-1
 748 487 l 2,2,3
 750 498 750 498 750 517 c 0,4,5
 750 542 750 542 739 557 c 1,6,7
 723 586 723 586 687 586 c 2,8,-1
 510 586 l 2,9,10
 475 586 475 586 447 558 c 1,11,12
 419 533 419 533 411 491 c 2,13,-1
 306 -1 l 1,14,-1
 196 -1 l 1,15,-1
 299 486 l 1,16,17
 308 534 308 534 339.5 573.5 c 128,-1,18
 371 613 371 613 411 634 c 1,19,20
 379 646 379 646 360 671 c 0,21,22
 349 687 349 687 349 710 c 0,23,24
 349 721 349 721 350 726 c 2,25,-1
 365 794 l 1,26,27
 370 827 370 827 407 856 c 1,28,29
 444 881 444 881 484 881 c 2,30,-1
 667 881 l 2,31,32
 741 881 741 881 794.5 839 c 128,-1,33
 848 797 848 797 869 725 c 0,34,35
 874 709 874 709 876.5 687 c 128,-1,36
 879 665 879 665 879 643 c 0,37,38
 879 607 879 607 871 570 c 2,39,-1
 754 0 l 1,0,-1
776 633 m 1,40,41
 776 703 776 703 732 745.5 c 128,-1,42
 688 788 688 788 613 788 c 2,43,-1
 517 788 l 2,44,45
 470 788 470 788 465 762 c 2,46,-1
 458 729 l 2,47,48
 457 724 457 724 457 719.5 c 128,-1,49
 457 715 457 715 457 714 c 0,50,51
 457 703 457 703 459.5 694 c 128,-1,52
 462 685 462 685 473 683 c 1,53,-1
 705 683 l 2,54,55
 748 683 748 683 776 633 c 1,40,41
EndSplineSet
LCarets2: 1 0
EndChar

StartChar: u0C97.sub
Encoding: 65554 -1 137
Width: 95
Flags: W
LayerCount: 2
Fore
SplineSet
107 -410 m 1,0,-1
 11 -410 l 1,1,-1
 57 -192 l 2,2,3
 61 -171 61 -171 50 -153 c 1,4,5
 35 -138 35 -138 14 -138 c 2,6,-1
 -67 -138 l 2,7,8
 -90 -138 -90 -138 -108.5 -153 c 128,-1,9
 -127 -168 -127 -168 -131 -191 c 2,10,-1
 -177 -409 l 1,11,-1
 -273 -409 l 1,12,-1
 -227 -191 l 2,13,14
 -215 -134 -215 -134 -169.5 -94.5 c 128,-1,15
 -124 -55 -124 -55 -70 -55 c 2,16,-1
 47 -55 l 2,17,18
 104 -55 104 -55 136 -90 c 1,19,20
 159 -113 159 -113 159 -150 c 0,21,22
 159 -159 159 -159 157 -175 c 1,23,-1
 107 -410 l 1,0,-1
EndSplineSet
LCarets2: 1 0
EndChar

StartChar: u0C98.base
Encoding: 65555 -1 139
Width: 970
Flags: W
LayerCount: 2
Fore
SplineSet
1297 588 m 1,0,-1
 982 588 l 1,1,2
 1018 560 1018 560 1018 509 c 0,3,4
 1018 495 1018 495 1017 488 c 1,5,6
 1045 411 1045 411 1089 411 c 1,7,8
 1111 413 1111 413 1126 424.5 c 128,-1,9
 1141 436 1141 436 1142 450 c 1,10,-1
 1163 546 l 1,11,-1
 1272 546 l 1,12,-1
 1256 464 l 2,13,14
 1248 427 1248 427 1226 391.5 c 128,-1,15
 1204 356 1204 356 1174 336 c 128,-1,16
 1144 316 1144 316 1116 316 c 2,17,-1
 1062 316 l 2,18,19
 1018 316 1018 316 990 356 c 1,20,-1
 944 138 l 1,21,22
 929 80 929 80 889.5 41 c 128,-1,23
 850 2 850 2 806 2 c 2,24,-1
 643 2 l 2,25,26
 606 2 606 2 584 28 c 0,27,28
 570 44 570 44 563 61 c 128,-1,29
 556 78 556 78 555 94 c 1,30,31
 533 51 533 51 500 26 c 0,32,33
 485 14 485 14 467.5 7 c 128,-1,34
 450 0 450 0 436 0 c 2,35,-1
 264 0 l 2,36,37
 227 0 227 0 204 35 c 1,38,39
 192 60 192 60 192 89 c 0,40,41
 192 107 192 107 194 116 c 2,42,-1
 255 408 l 1,43,-1
 406 408 l 2,44,45
 459 408 459 408 485 373 c 1,46,47
 506 348 506 348 506 312 c 0,48,49
 506 303 506 303 504 287 c 1,50,-1
 499 261 l 1,51,-1
 389 261 l 1,52,-1
 393 282 l 1,53,54
 394 296 394 296 390 307 c 1,55,56
 379 315 379 315 368 315 c 2,57,-1
 346 315 l 1,58,-1
 310 146 l 2,59,60
 309 141 309 141 309 132 c 0,61,62
 309 124 309 124 311.5 119.5 c 128,-1,63
 314 115 314 115 314 114 c 0,64,65
 321 99 321 99 335 99 c 2,66,-1
 444 99 l 2,67,68
 469 99 469 99 493.5 129.5 c 128,-1,69
 518 160 518 160 526 203 c 2,70,-1
 541 275 l 1,71,-1
 650 275 l 1,72,-1
 635 203 l 2,73,74
 634 196 634 196 634 184 c 0,75,76
 634 175 634 175 636.5 163.5 c 128,-1,77
 639 152 639 152 643 137 c 1,78,79
 659 101 659 101 680 101 c 2,80,-1
 789 101 l 2,81,82
 805 101 805 101 823 115 c 1,83,84
 835 129 835 129 839 151 c 2,85,-1
 909 478 l 1,86,87
 911 494 911 494 911 501 c 0,88,89
 911 531 911 531 888 557 c 0,90,91
 859 590 859 590 805 590 c 2,92,-1
 292 590 l 1,93,-1
 313 685 l 1,94,-1
 1325 685 l 1,95,-1
 1297 588 l 1,0,-1
679 413 m 1,96,-1
 570 413 l 1,97,-1
 593 522 l 1,98,-1
 702 522 l 1,99,-1
 679 413 l 1,96,-1
561 -140 m 1,100,-1
 452 -140 l 1,101,-1
 481 -3 l 1,102,-1
 590 -3 l 1,103,-1
 561 -140 l 1,100,-1
EndSplineSet
EndChar

StartChar: u0C98.imathra
Encoding: 65556 -1 140
Width: 1156
Flags: W
LayerCount: 2
Fore
SplineSet
715 602 m 1,0,1
 707 553 707 553 671 524 c 1,2,3
 641 494 641 494 599 494 c 2,4,-1
 422 494 l 1,5,-1
 441 589 l 1,6,-1
 576 589 l 1,7,8
 590 591 590 591 600.5 602.5 c 128,-1,9
 611 614 611 614 612 628 c 1,10,-1
 637 745 l 2,11,12
 639 759 639 759 639 764 c 256,13,14
 639 769 639 769 637 777 c 1,15,16
 630 789 630 789 619 789 c 2,17,-1
 570 789 l 2,18,19
 551 789 551 789 549 771 c 1,20,-1
 542 743 l 2,21,22
 541 736 541 736 545 729 c 128,-1,23
 549 722 549 722 557 722 c 2,24,-1
 606 722 l 1,25,-1
 585 626 l 1,26,-1
 496 626 l 2,27,28
 464 626 464 626 441 651 c 0,29,30
 434 660 434 660 430 671 c 128,-1,31
 426 682 426 682 426 693 c 0,32,33
 426 702 426 702 427 707 c 2,34,-1
 443 782 l 1,35,36
 451 826 451 826 488 852 c 1,37,38
 521 881 521 881 564 881 c 2,39,-1
 694 881 l 2,40,41
 727 881 727 881 746 853 c 0,42,43
 757 837 757 837 757 811 c 0,44,45
 757 795 757 795 755 787 c 2,46,-1
 715 602 l 1,0,1
1285 460 m 2,47,48
 1278 432 1278 432 1267 411 c 128,-1,49
 1256 390 1256 390 1238 372 c 0,50,51
 1205 337 1205 337 1163 337 c 2,52,-1
 1068 337 l 2,53,54
 1025 337 1025 337 996 377 c 1,55,-1
 945 132 l 1,56,57
 930 74 930 74 890.5 35 c 128,-1,58
 851 -4 851 -4 807 -4 c 2,59,-1
 646 -4 l 2,60,61
 609 -4 609 -4 586 19 c 1,62,63
 557 44 557 44 557 77 c 1,64,65
 537 41 537 41 504.5 18 c 128,-1,66
 472 -5 472 -5 437 -5 c 2,67,-1
 268 -5 l 2,68,69
 228 -5 228 -5 207 25 c 0,70,71
 192 48 192 48 192 74 c 0,72,73
 192 82 192 82 194 96 c 2,74,-1
 258 402 l 1,75,-1
 409 402 l 2,76,77
 460 402 460 402 488 370 c 1,78,79
 510 348 510 348 510 316 c 0,80,81
 510 301 510 301 509 294 c 2,82,-1
 501 254 l 1,83,-1
 391 254 l 1,84,-1
 398 289 l 2,85,86
 400 298 400 298 391 302 c 1,87,88
 384 307 384 307 368 307 c 2,89,-1
 349 307 l 1,90,-1
 313 138 l 2,91,92
 312 133 312 133 312 124 c 0,93,94
 312 113 312 113 318 101.5 c 128,-1,95
 324 90 324 90 335 90 c 2,96,-1
 444 90 l 2,97,98
 472 90 472 90 496.5 120.5 c 128,-1,99
 521 151 521 151 529 194 c 2,100,-1
 544 266 l 1,101,-1
 653 266 l 1,102,-1
 638 194 l 1,103,104
 637 183 637 183 637 178 c 0,105,106
 637 156 637 156 650 123.5 c 128,-1,107
 663 91 663 91 684 91 c 2,108,-1
 793 91 l 2,109,110
 808 91 808 91 824 105.5 c 128,-1,111
 840 120 840 120 844 141 c 2,112,-1
 926 528 l 2,113,114
 930 549 930 549 919 567 c 1,115,116
 904 582 904 582 883 582 c 2,117,-1
 806 582 l 1,118,-1
 827 677 l 1,119,-1
 937 677 l 2,120,121
 973 677 973 677 998 656 c 1,122,123
 1021 633 1021 633 1030 597 c 0,124,125
 1034 581 1034 581 1034 560 c 256,126,127
 1034 539 1034 539 1030 516 c 1,128,129
 1065 435 1065 435 1098 435 c 2,130,-1
 1147 435 l 2,131,132
 1158 435 1158 435 1170 450 c 0,133,134
 1174 455 1174 455 1177.5 464 c 128,-1,135
 1181 473 1181 473 1185 488 c 2,136,-1
 1225 678 l 1,137,-1
 1334 678 l 1,138,-1
 1285 460 l 2,47,48
555 -168 m 1,139,-1
 446 -168 l 1,140,-1
 475 -33 l 1,141,-1
 584 -33 l 1,142,-1
 555 -168 l 1,139,-1
EndSplineSet
LCarets2: 1 0
EndChar

StartChar: u0C98.sub
Encoding: 65557 -1 141
Width: 200
Flags: W
LayerCount: 2
Fore
SplineSet
392 -32 m 1,0,1
 377 -106 377 -106 299 -149 c 1,2,-1
 281 -237 l 2,3,4
 272 -280 272 -280 239.5 -312.5 c 128,-1,5
 207 -345 207 -345 164 -345 c 2,6,-1
 19 -345 l 2,7,8
 -17 -345 -17 -345 -39 -323 c 1,9,10
 -66 -300 -66 -300 -75 -264 c 1,11,12
 -108 -306 -108 -306 -148.5 -330.5 c 128,-1,13
 -189 -355 -189 -355 -223 -355 c 2,14,-1
 -365 -355 l 2,15,16
 -407 -355 -407 -355 -425 -329 c 1,17,18
 -443 -307 -443 -307 -443 -284 c 0,19,20
 -443 -280 -443 -280 -441 -266 c 2,21,-1
 -422 -171 l 1,22,23
 -411 -127 -411 -127 -378.5 -99 c 128,-1,24
 -346 -71 -346 -71 -306 -71 c 2,25,-1
 -169 -71 l 1,26,-1
 -187 -152 l 1,27,-1
 -290 -152 l 2,28,29
 -304 -152 -304 -152 -315.5 -163 c 128,-1,30
 -327 -174 -327 -174 -329 -186 c 2,31,-1
 -341 -247 l 2,32,33
 -342 -256 -342 -256 -337 -265 c 1,34,35
 -328 -272 -328 -272 -320 -272 c 2,36,-1
 -197 -272 l 2,37,38
 -176 -272 -176 -272 -143 -239 c 1,39,40
 -113 -206 -113 -206 -107 -178 c 2,41,-1
 -99 -138 l 1,42,-1
 -3 -138 l 1,43,-1
 -12 -185 l 2,44,45
 -16 -210 -16 -210 2 -235 c 1,46,47
 23 -260 23 -260 46 -260 c 2,48,-1
 160 -260 l 2,49,50
 182 -260 182 -260 189 -232 c 1,51,-1
 200 -178 l 1,52,-1
 91 -178 l 1,53,-1
 109 -96 l 1,54,-1
 232 -96 l 2,55,56
 254 -96 254 -96 275 -77 c 1,57,58
 282 -69 282 -69 290 -56.5 c 128,-1,59
 298 -44 298 -44 300 -30 c 2,60,-1
 315 47 l 1,61,62
 319 60 319 60 275 92 c 1,63,-1
 345 160 l 1,64,65
 422 103 422 103 411 52 c 2,66,-1
 392 -32 l 1,0,1
-63 -412 m 1,67,-1
 -159 -412 l 1,68,-1
 -147 -349 l 1,69,-1
 -86 -289 l 1,70,-1
 -51 -349 l 1,71,-1
 -63 -412 l 1,67,-1
EndSplineSet
LCarets2: 1 0
EndChar

StartChar: u0C99
Encoding: 3225 3225 142
Width: 872
Flags: W
LayerCount: 2
Fore
SplineSet
926 109 m 2,0,1
 917 65 917 65 882.5 33 c 128,-1,2
 848 1 848 1 808 1 c 2,3,-1
 617 1 l 2,4,5
 585 1 585 1 562 22.5 c 128,-1,6
 539 44 539 44 539 77 c 1,7,8
 523 42 523 42 496 21 c 128,-1,9
 469 0 469 0 443 0 c 2,10,-1
 260 0 l 2,11,12
 217 0 217 0 192 28 c 0,13,14
 174 47 174 47 174 76 c 0,15,16
 174 87 174 87 175 94 c 2,17,-1
 207 239 l 1,18,-1
 442 408 l 1,19,20
 463 419 463 419 474 462 c 1,21,-1
 490 544 l 1,22,23
 494 559 494 559 480 573 c 1,24,25
 466 584 466 584 444 584 c 2,26,-1
 390 584 l 1,27,-1
 382 544 l 2,28,29
 378 529 378 529 385 515 c 1,30,31
 389 503 389 503 400 503 c 2,32,-1
 414 503 l 1,33,-1
 393 408 l 1,34,-1
 325 408 l 2,35,36
 293 408 293 408 275 438 c 0,37,38
 263 457 263 457 263 483 c 0,39,40
 263 490 263 490 265 509 c 1,41,-1
 301 678 l 1,42,-1
 487 678 l 2,43,44
 533 678 533 678 563.5 658.5 c 128,-1,45
 594 639 594 639 594 606 c 1,46,47
 672 678 672 678 746 678 c 2,48,-1
 950 678 l 2,49,50
 983 678 983 678 995.5 658 c 128,-1,51
 1008 638 1008 638 1008 619 c 0,52,53
 1008 615 1008 615 1006 599 c 1,54,-1
 990 517 l 1,55,-1
 881 517 l 1,56,-1
 888 552 l 1,57,58
 892 566 892 566 885 577 c 1,59,60
 877 585 877 585 862 585 c 2,61,-1
 759 585 l 2,62,63
 710 585 710 585 660 559.5 c 128,-1,64
 610 534 610 534 577 491 c 1,65,-1
 565 431 l 1,66,67
 550 364 550 364 504 335 c 1,68,-1
 308 186 l 1,69,-1
 297 132 l 1,70,71
 293 120 293 120 304.5 108.5 c 128,-1,72
 316 97 316 97 337 97 c 2,73,-1
 423 97 l 2,74,75
 452 97 452 97 474 112 c 128,-1,76
 496 127 496 127 503 150 c 1,77,-1
 514 204 l 1,78,-1
 623 204 l 1,79,-1
 612 150 l 2,80,81
 608 129 608 129 624 112.5 c 128,-1,82
 640 96 640 96 668 96 c 2,83,-1
 791 96 l 2,84,85
 805 96 805 96 812.5 103.5 c 128,-1,86
 820 111 820 111 824 123 c 1,87,-1
 853 260 l 1,88,89
 855 276 855 276 855 280 c 0,90,91
 855 299 855 299 843 299 c 2,92,-1
 766 299 l 1,93,-1
 785 394 l 1,94,-1
 894 394 l 2,95,96
 924 394 924 394 939 380 c 1,97,98
 958 366 958 366 966 345 c 1,99,100
 970 329 970 329 970 314 c 0,101,102
 970 309 970 309 968 295 c 1,103,-1
 926 109 l 2,0,1
633 260 m 1,104,-1
 524 260 l 1,105,-1
 546 369 l 1,106,-1
 655 369 l 1,107,-1
 633 260 l 1,104,-1
EndSplineSet
LCarets2: 1 0
EndChar

StartChar: u0C99.sub
Encoding: 65558 -1 143
Width: 186
Flags: W
LayerCount: 2
Fore
SplineSet
16 -218 m 1,0,-1
 -79 -218 l 1,1,-1
 -65 -150 l 1,2,-1
 30 -150 l 1,3,-1
 16 -218 l 1,0,-1
302 -320 m 1,4,5
 294 -356 294 -356 266 -382 c 1,6,7
 233 -408 233 -408 203 -408 c 2,8,-1
 12 -408 l 2,9,10
 -13 -408 -13 -408 -31 -392 c 128,-1,11
 -49 -376 -49 -376 -56 -346 c 1,12,13
 -67 -371 -67 -371 -96 -390 c 0,14,15
 -105 -397 -105 -397 -121 -402.5 c 128,-1,16
 -137 -408 -137 -408 -149 -408 c 2,17,-1
 -353 -408 l 2,18,19
 -389 -408 -389 -408 -415 -385 c 1,20,21
 -433 -366 -433 -366 -433 -340 c 0,22,23
 -433 -332 -433 -332 -432 -328 c 2,24,-1
 -416 -253 l 1,25,26
 -411 -223 -411 -223 -380.5 -201.5 c 128,-1,27
 -350 -180 -350 -180 -320 -180 c 2,28,-1
 -252 -180 l 2,29,30
 -238 -180 -238 -180 -237 -166 c 1,31,-1
 -232 -140 l 1,32,33
 -231 -126 -231 -126 -242 -126 c 2,34,-1
 -379 -126 l 1,35,-1
 -361 -45 l 1,36,-1
 -184 -45 l 2,37,38
 -159 -45 -159 -45 -147 -56 c 1,39,40
 -133 -72 -133 -72 -134 -90 c 1,41,42
 -102 -44 -102 -44 -48 -44 c 2,43,-1
 115 -44 l 2,44,45
 157 -44 157 -44 178 -66 c 0,46,47
 194 -82 194 -82 194 -105 c 0,48,49
 194 -109 194 -109 192 -123 c 2,50,-1
 181 -177 l 1,51,-1
 86 -177 l 1,52,-1
 94 -137 l 2,53,54
 98 -115 98 -115 63 -115 c 2,55,-1
 -46 -115 l 2,56,57
 -72 -115 -72 -115 -99.5 -133.5 c 128,-1,58
 -127 -152 -127 -152 -146 -184 c 1,59,-1
 -153 -217 l 2,60,61
 -157 -233 -157 -233 -178 -245.5 c 128,-1,62
 -199 -258 -199 -258 -225 -258 c 2,63,-1
 -300 -258 l 2,64,65
 -325 -258 -325 -258 -327 -276 c 1,66,-1
 -334 -304 l 1,67,68
 -334 -313 -334 -313 -329 -317 c 1,69,70
 -325 -324 -325 -324 -314 -324 c 2,71,-1
 -158 -324 l 2,72,73
 -135 -324 -135 -324 -115.5 -311.5 c 128,-1,74
 -96 -299 -96 -299 -95 -284 c 1,75,-1
 -86 -244 l 1,76,-1
 9 -244 l 1,77,-1
 2 -276 l 2,78,79
 1 -281 1 -281 1 -289 c 0,80,81
 1 -301 1 -301 11 -315 c 128,-1,82
 21 -329 21 -329 43 -329 c 2,83,-1
 174 -329 l 2,84,85
 189 -329 189 -329 200 -319.5 c 128,-1,86
 211 -310 211 -310 212 -298 c 1,87,-1
 227 -230 l 1,88,-1
 318 -230 l 1,89,-1
 302 -320 l 1,4,5
EndSplineSet
LCarets2: 1 0
EndChar

StartChar: u0C9A.base
Encoding: 65559 -1 145
Width: 779
Flags: W
LayerCount: 2
Fore
SplineSet
1045 341 m 1,0,-1
 936 341 l 1,1,2
 954 323 954 323 954 300 c 0,3,4
 954 292 954 292 953 288 c 2,5,-1
 916 111 l 2,6,7
 907 65 907 65 870 34 c 128,-1,8
 833 3 833 3 790 3 c 2,9,-1
 594 3 l 2,10,11
 568 3 568 3 549 18 c 1,12,13
 531 36 531 36 531 57 c 1,14,15
 523 36 523 36 496 19.5 c 128,-1,16
 469 3 469 3 437 3 c 2,17,-1
 268 3 l 2,18,19
 225 3 225 3 199 38 c 0,20,21
 181 61 181 61 181 96 c 0,22,23
 181 103 181 103 183 119 c 1,24,-1
 215 268 l 1,25,-1
 448 405 l 1,26,-1
 477 542 l 2,27,28
 481 564 481 564 470 575.5 c 128,-1,29
 459 587 459 587 439 587 c 2,30,-1
 393 587 l 1,31,-1
 384 541 l 1,32,33
 384 523 384 523 390 514 c 128,-1,34
 396 505 396 505 408 505 c 2,35,-1
 430 505 l 1,36,-1
 409 410 l 1,37,-1
 332 410 l 2,38,39
 299 410 299 410 278 438 c 1,40,41
 263 460 263 460 263 485 c 0,42,43
 263 490 263 490 265 504 c 2,44,-1
 302 681 l 1,45,-1
 513 681 l 2,46,47
 554 681 554 681 577 648 c 0,48,49
 592 627 592 627 592 595 c 0,50,51
 592 577 592 577 590 568 c 2,52,-1
 544 350 l 1,53,-1
 309 205 l 1,54,-1
 298 151 l 2,55,56
 297 144 297 144 297 133 c 256,57,58
 297 122 297 122 303 109.5 c 128,-1,59
 309 97 309 97 327 97 c 2,60,-1
 440 97 l 2,61,62
 461 97 461 97 477.5 109.5 c 128,-1,63
 494 122 494 122 498 138 c 2,64,-1
 512 205 l 1,65,-1
 621 205 l 1,66,-1
 610 151 l 2,67,68
 609 146 609 146 609 138 c 0,69,70
 609 125 609 125 616 112 c 128,-1,71
 623 99 623 99 638 99 c 2,72,-1
 752 99 l 2,73,74
 774 99 774 99 790.5 110.5 c 128,-1,75
 807 122 807 122 811 140 c 2,76,-1
 841 284 l 2,77,78
 842 289 842 289 842 300 c 0,79,80
 842 314 842 314 834 325 c 0,81,82
 822 343 822 343 800 343 c 2,83,-1
 665 343 l 1,84,-1
 686 439 l 1,85,-1
 854 439 l 1,86,-1
 884 588 l 1,87,-1
 716 588 l 1,88,-1
 737 683 l 1,89,-1
 954 683 l 1,90,-1
 993 588 l 1,91,-1
 963 439 l 1,92,-1
 1066 439 l 1,93,-1
 1045 341 l 1,0,-1
EndSplineSet
EndChar

StartChar: u0C9A.imathra
Encoding: 65560 -1 146
Width: 949
Flags: W
LayerCount: 2
Fore
SplineSet
1051 341 m 1,0,-1
 942 341 l 1,1,2
 960 325 960 325 960 303 c 0,3,4
 960 294 960 294 959 289 c 2,5,-1
 922 112 l 1,6,7
 911 66 911 66 882.5 35 c 128,-1,8
 854 4 854 4 822 4 c 2,9,-1
 598 4 l 2,10,11
 572 4 572 4 556 20 c 1,12,13
 537 35 537 35 537 57 c 1,14,15
 529 35 529 35 501 19 c 128,-1,16
 473 3 473 3 443 3 c 2,17,-1
 260 3 l 2,18,19
 221 3 221 3 201 27.5 c 128,-1,20
 181 52 181 52 181 75 c 0,21,22
 181 80 181 80 183 91 c 2,23,-1
 223 282 l 1,24,-1
 454 405 l 1,25,-1
 483 542 l 2,26,27
 487 564 487 564 476 575.5 c 128,-1,28
 465 587 465 587 444 587 c 2,29,-1
 397 587 l 1,30,-1
 388 541 l 1,31,32
 386 525 386 525 393.5 515.5 c 128,-1,33
 401 506 401 506 415 506 c 2,34,-1
 450 506 l 1,35,-1
 429 411 l 1,36,-1
 340 411 l 2,37,38
 307 411 307 411 286 436.5 c 128,-1,39
 265 462 265 462 270 492 c 1,40,-1
 310 682 l 1,41,-1
 529 682 l 2,42,43
 569 682 569 682 590 652 c 1,44,45
 602 629 602 629 602 601 c 0,46,47
 602 585 602 585 600 576 c 2,48,-1
 553 352 l 1,49,-1
 320 221 l 1,50,-1
 304 140 l 1,51,52
 302 122 302 122 310 111 c 1,53,54
 322 99 322 99 336 99 c 2,55,-1
 436 99 l 2,56,57
 462 99 462 99 483 110.5 c 128,-1,58
 504 122 504 122 508 140 c 2,59,-1
 527 235 l 1,60,-1
 636 235 l 1,61,-1
 620 153 l 2,62,63
 619 148 619 148 619 140 c 0,64,65
 619 127 619 127 626 114 c 128,-1,66
 633 101 633 101 648 101 c 2,67,-1
 776 101 l 2,68,69
 791 101 791 101 804 112.5 c 128,-1,70
 817 124 817 124 821 142 c 2,71,-1
 851 286 l 2,72,73
 855 308 855 308 845.5 324 c 128,-1,74
 836 340 836 340 814 345 c 1,75,-1
 673 345 l 1,76,-1
 694 441 l 1,77,-1
 843 441 l 1,78,79
 889 462 889 462 896 495 c 2,80,-1
 933 672 l 2,81,82
 934 679 934 679 926.5 681.5 c 128,-1,83
 919 684 919 684 900 684 c 2,84,-1
 861 684 l 2,85,86
 853 684 853 684 848 654 c 1,87,-1
 843 631 l 2,88,89
 842 622 842 622 851.5 614 c 128,-1,90
 861 606 861 606 869 606 c 2,91,-1
 905 606 l 1,92,-1
 886 510 l 1,93,-1
 790 510 l 2,94,95
 758 510 758 510 739 535 c 0,96,97
 725 553 725 553 725 575 c 0,98,99
 725 586 725 586 726 591 c 2,100,-1
 749 700 l 1,101,102
 754 735 754 735 783 758.5 c 128,-1,103
 812 782 812 782 845 782 c 2,104,-1
 973 782 l 2,105,106
 1013 782 1013 782 1031 752 c 1,107,108
 1045 734 1045 734 1045 708 c 0,109,110
 1045 701 1045 701 1043 682 c 1,111,-1
 1007 510 l 2,112,113
 998 468 998 468 966 443 c 1,114,-1
 1075 443 l 1,115,-1
 1051 341 l 1,0,-1
EndSplineSet
LCarets2: 1 0
EndChar

StartChar: u0C9A.sub
Encoding: 65561 -1 147
Width: 186
Flags: W
LayerCount: 2
Fore
SplineSet
340 -149 m 1,0,-1
 263 -149 l 1,1,2
 285 -165 285 -165 285 -195 c 0,3,4
 285 -202 285 -202 283 -218 c 1,5,-1
 264 -314 l 2,6,7
 256 -351 256 -351 227.5 -376.5 c 128,-1,8
 199 -402 199 -402 164 -402 c 2,9,-1
 27 -402 l 2,10,11
 -12 -402 -12 -402 -40 -381 c 1,12,13
 -65 -358 -65 -358 -65 -326 c 1,14,15
 -86 -362 -86 -362 -119 -383 c 1,16,17
 -155 -402 -155 -402 -190 -402 c 2,18,-1
 -348 -402 l 1,19,20
 -387 -406 -387 -406 -415 -385 c 128,-1,21
 -443 -364 -443 -364 -436 -336 c 2,22,-1
 -417 -247 l 1,23,24
 -412 -217 -412 -217 -386 -195 c 1,25,26
 -370 -184 -370 -184 -358.5 -179.5 c 128,-1,27
 -347 -175 -347 -175 -331 -175 c 2,28,-1
 -263 -175 l 2,29,30
 -254 -175 -254 -175 -239.5 -168 c 128,-1,31
 -225 -161 -225 -161 -225 -153 c 1,32,-1
 -221 -135 l 2,33,34
 -220 -130 -220 -130 -223.5 -126 c 128,-1,35
 -227 -122 -227 -122 -245 -122 c 2,36,-1
 -382 -122 l 1,37,-1
 -364 -41 l 1,38,-1
 -196 -41 l 2,39,40
 -159 -41 -159 -41 -136 -57 c 1,41,42
 -114 -78 -114 -78 -119 -100 c 2,43,-1
 -137 -189 l 1,44,45
 -145 -221 -145 -221 -175 -245.5 c 128,-1,46
 -205 -270 -205 -270 -245 -270 c 2,47,-1
 -305 -270 l 2,48,49
 -314 -270 -314 -270 -323.5 -275.5 c 128,-1,50
 -333 -281 -333 -281 -333 -289 c 1,51,-1
 -337 -303 l 1,52,53
 -337 -312 -337 -312 -332 -316 c 1,54,55
 -328 -323 -328 -323 -317 -323 c 2,56,-1
 -193 -323 l 2,57,58
 -163 -323 -163 -323 -136.5 -301.5 c 128,-1,59
 -110 -280 -110 -280 -103 -248 c 2,60,-1
 -94 -201 l 1,61,-1
 1 -201 l 1,62,-1
 -11 -257 l 2,63,64
 -15 -279 -15 -279 1 -301 c 1,65,66
 20 -323 20 -323 36 -323 c 2,67,-1
 124 -323 l 2,68,69
 138 -323 138 -323 152 -312 c 1,70,71
 166 -298 166 -298 167 -283 c 1,72,-1
 185 -201 l 2,73,74
 189 -179 189 -179 178 -164 c 1,75,76
 163 -148 163 -148 142 -148 c 2,77,-1
 19 -148 l 1,78,-1
 37 -67 l 1,79,-1
 119 -67 l 1,80,81
 198 -2 198 -2 209 49 c 2,82,-1
 248 232 l 1,83,-1
 346 232 l 1,84,-1
 307 49 l 2,85,86
 293 -12 293 -12 228 -67 c 1,87,-1
 351 -67 l 1,88,-1
 340 -149 l 1,0,-1
EndSplineSet
LCarets2: 1 0
EndChar

StartChar: u0C9B.base
Encoding: 65562 -1 149
Width: 694
Flags: W
LayerCount: 2
Fore
SplineSet
911 117 m 2,0,1
 900 66 900 66 861 36 c 1,2,3
 825 1 825 1 778 1 c 2,4,-1
 641 1 l 2,5,6
 609 1 609 1 584.5 21 c 128,-1,7
 560 41 560 41 560 69 c 1,8,9
 545 39 545 39 516 20.5 c 128,-1,10
 487 2 487 2 459 2 c 2,11,-1
 310 2 l 2,12,13
 264 2 264 2 235 34 c 0,14,15
 215 57 215 57 215 86 c 0,16,17
 215 93 215 93 217 109 c 1,18,-1
 310 554 l 2,19,20
 318 590 318 590 341 620 c 128,-1,21
 364 650 364 650 393 664 c 1,22,23
 423 682 423 682 453 682 c 2,24,-1
 648 682 l 1,25,-1
 611 505 l 2,26,27
 602 461 602 461 570 429 c 128,-1,28
 538 397 538 397 502 397 c 2,29,-1
 425 397 l 1,30,-1
 446 493 l 1,31,-1
 474 493 l 1,32,33
 485 494 485 494 496 503 c 1,34,35
 504 515 504 515 508 531 c 2,36,-1
 519 585 l 1,37,-1
 473 585 l 2,38,39
 455 585 455 585 436 573 c 1,40,41
 420 558 420 558 416 540 c 2,42,-1
 332 144 l 2,43,44
 328 123 328 123 337 108.5 c 128,-1,45
 346 94 346 94 361 94 c 2,46,-1
 452 94 l 2,47,48
 466 94 466 94 476.5 97.5 c 128,-1,49
 487 101 487 101 499 110 c 0,50,51
 520 126 520 126 524 147 c 2,52,-1
 538 215 l 1,53,-1
 647 215 l 1,54,-1
 633 147 l 2,55,56
 629 126 629 126 640.5 109.5 c 128,-1,57
 652 93 652 93 674 93 c 2,58,-1
 755 93 l 2,59,60
 776 93 776 93 790 109 c 128,-1,61
 804 125 804 125 809 147 c 2,62,-1
 890 530 l 2,63,64
 898 569 898 569 847 581 c 1,65,-1
 710 581 l 1,66,-1
 729 676 l 1,67,-1
 878 676 l 1,68,69
 941 668 941 668 977 626 c 1,70,71
 1000 591 1000 591 1000 556 c 0,72,73
 1000 538 1000 538 998 530 c 2,74,-1
 911 117 l 2,0,1
563 -167 m 1,75,-1
 454 -167 l 1,76,-1
 483 -32 l 1,77,-1
 592 -32 l 1,78,-1
 563 -167 l 1,75,-1
EndSplineSet
EndChar

